<svg xmlns="http://www.w3.org/2000/svg" width="267.23" height="35" viewBox="0 0 267.23 35"><rect class="svg__rect" x="0" y="0" width="190.57000000000002" height="35" fill="#B0AEAF"/><rect class="svg__rect" x="188.57000000000002" y="0" width="78.66" height="35" fill="#1C1C1D"/><path class="svg__text" d="M13.95 18.19L13.95 18.19L13.95 17.39Q13.95 16.19 14.38 15.27Q14.80 14.35 15.60 13.85Q16.40 13.35 17.45 13.35L17.45 13.35Q18.86 13.35 19.73 14.12Q20.59 14.89 20.73 16.29L20.73 16.29L19.25 16.29Q19.14 15.37 18.71 14.96Q18.28 14.55 17.45 14.55L17.45 14.55Q16.48 14.55 15.97 15.26Q15.45 15.96 15.44 17.33L15.44 17.33L15.44 18.09Q15.44 19.47 15.93 20.20Q16.43 20.92 17.38 20.92L17.38 20.92Q18.25 20.92 18.69 20.53Q19.13 20.14 19.25 19.22L19.25 19.22L20.73 19.22Q20.60 20.59 19.72 21.35Q18.84 22.12 17.38 22.12L17.38 22.12Q16.36 22.12 15.59 21.63Q14.81 21.15 14.39 20.26Q13.97 19.37 13.95 18.19ZM26.52 22L25.04 22L25.04 13.47L28.04 13.47Q29.52 13.47 30.32 14.13Q31.12 14.79 31.12 16.05L31.12 16.05Q31.12 16.90 30.71 17.48Q30.30 18.06 29.56 18.37L29.56 18.37L31.47 21.92L31.47 22L29.89 22L28.17 18.71L26.52 18.71L26.52 22ZM26.52 14.66L26.52 17.52L28.05 17.52Q28.80 17.52 29.22 17.15Q29.64 16.77 29.64 16.11L29.64 16.11Q29.64 15.43 29.25 15.05Q28.86 14.68 28.09 14.66L28.09 14.66L26.52 14.66ZM41.09 22L35.52 22L35.52 13.47L41.05 13.47L41.05 14.66L37.00 14.66L37.00 17.02L40.50 17.02L40.50 18.19L37.00 18.19L37.00 20.82L41.09 20.82L41.09 22ZM46.07 22L44.53 22L47.75 13.47L49.08 13.47L52.31 22L50.76 22L50.06 20.01L46.76 20.01L46.07 22ZM48.41 15.28L47.18 18.82L49.65 18.82L48.41 15.28ZM57.95 14.66L55.31 14.66L55.31 13.47L62.08 13.47L62.08 14.66L59.42 14.66L59.42 22L57.95 22L57.95 14.66ZM67.40 22L65.92 22L65.92 13.47L67.40 13.47L67.40 22ZM74.50 22L71.45 13.47L73.07 13.47L75.21 20.14L77.38 13.47L79.01 13.47L75.94 22L74.50 22ZM88.54 22L82.96 22L82.96 13.47L88.50 13.47L88.50 14.66L84.44 14.66L84.44 17.02L87.95 17.02L87.95 18.19L84.44 18.19L84.44 20.82L88.54 20.82L88.54 22ZM98.44 18.19L98.44 18.19L98.44 17.39Q98.44 16.19 98.87 15.27Q99.30 14.35 100.10 13.85Q100.89 13.35 101.94 13.35L101.94 13.35Q103.36 13.35 104.22 14.12Q105.08 14.89 105.22 16.29L105.22 16.29L103.74 16.29Q103.64 15.37 103.21 14.96Q102.78 14.55 101.94 14.55L101.94 14.55Q100.98 14.55 100.46 15.26Q99.94 15.96 99.93 17.33L99.93 17.33L99.93 18.09Q99.93 19.47 100.42 20.20Q100.92 20.92 101.87 20.92L101.87 20.92Q102.75 20.92 103.19 20.53Q103.63 20.14 103.74 19.22L103.74 19.22L105.22 19.22Q105.09 20.59 104.21 21.35Q103.33 22.12 101.87 22.12L101.87 22.12Q100.85 22.12 100.08 21.63Q99.30 21.15 98.88 20.26Q98.46 19.37 98.44 18.19ZM109.26 18.00L109.26 18.00L109.26 17.52Q109.26 16.28 109.70 15.32Q110.15 14.37 110.95 13.86Q111.76 13.35 112.80 13.35Q113.84 13.35 114.65 13.85Q115.46 14.35 115.89 15.29Q116.33 16.23 116.34 17.48L116.34 17.48L116.34 17.96Q116.34 19.21 115.91 20.16Q115.47 21.10 114.67 21.61Q113.86 22.12 112.81 22.12L112.81 22.12Q111.78 22.12 110.96 21.61Q110.15 21.10 109.71 20.17Q109.27 19.23 109.26 18.00ZM110.74 17.46L110.74 17.96Q110.74 19.36 111.29 20.13Q111.84 20.90 112.81 20.90L112.81 20.90Q113.80 20.90 114.33 20.15Q114.86 19.40 114.86 17.96L114.86 17.96L114.86 17.51Q114.86 16.09 114.32 15.34Q113.79 14.58 112.80 14.58L112.80 14.58Q111.84 14.58 111.30 15.33Q110.76 16.09 110.74 17.46L110.74 17.46ZM122.28 22L120.81 22L120.81 13.47L122.73 13.47L125.19 20.01L127.64 13.47L129.56 13.47L129.56 22L128.08 22L128.08 19.19L128.23 15.43L125.71 22L124.65 22L122.14 15.43L122.28 19.19L122.28 22ZM135.78 22L134.30 22L134.30 13.47L136.22 13.47L138.68 20.01L141.14 13.47L143.05 13.47L143.05 22L141.58 22L141.58 19.19L141.72 15.43L139.20 22L138.14 22L135.63 15.43L135.78 19.19L135.78 22ZM147.52 18.00L147.52 18.00L147.52 17.52Q147.52 16.28 147.97 15.32Q148.41 14.37 149.21 13.86Q150.02 13.35 151.06 13.35Q152.11 13.35 152.91 13.85Q153.72 14.35 154.16 15.29Q154.60 16.23 154.60 17.48L154.60 17.48L154.60 17.96Q154.60 19.21 154.17 20.16Q153.73 21.10 152.93 21.61Q152.12 22.12 151.07 22.12L151.07 22.12Q150.04 22.12 149.23 21.61Q148.41 21.10 147.97 20.17Q147.53 19.23 147.52 18.00ZM149.01 17.46L149.01 17.96Q149.01 19.36 149.55 20.13Q150.10 20.90 151.07 20.90L151.07 20.90Q152.06 20.90 152.59 20.15Q153.12 19.40 153.12 17.96L153.12 17.96L153.12 17.51Q153.12 16.09 152.58 15.34Q152.05 14.58 151.06 14.58L151.06 14.58Q150.10 14.58 149.56 15.33Q149.02 16.09 149.01 17.46L149.01 17.46ZM160.55 22L159.07 22L159.07 13.47L160.55 13.47L164.36 19.54L164.36 13.47L165.83 13.47L165.83 22L164.35 22L160.55 15.95L160.55 22ZM170.14 19.42L170.14 19.42L171.62 19.42Q171.62 20.15 172.10 20.55Q172.58 20.95 173.48 20.95L173.48 20.95Q174.25 20.95 174.64 20.63Q175.03 20.32 175.03 19.80L175.03 19.80Q175.03 19.24 174.64 18.94Q174.24 18.63 173.21 18.32Q172.18 18.01 171.57 17.63L171.57 17.63Q170.40 16.90 170.40 15.72L170.40 15.72Q170.40 14.69 171.25 14.02Q172.09 13.35 173.43 13.35L173.43 13.35Q174.32 13.35 175.02 13.68Q175.71 14.01 176.11 14.61Q176.51 15.22 176.51 15.96L176.51 15.96L175.03 15.96Q175.03 15.29 174.61 14.91Q174.20 14.54 173.42 14.54L173.42 14.54Q172.69 14.54 172.29 14.85Q171.89 15.16 171.89 15.71L171.89 15.71Q171.89 16.18 172.32 16.50Q172.75 16.81 173.75 17.10Q174.75 17.40 175.35 17.78Q175.95 18.16 176.23 18.65Q176.52 19.13 176.52 19.79L176.52 19.79Q176.52 20.86 175.70 21.49Q174.88 22.12 173.48 22.12L173.48 22.12Q172.56 22.12 171.78 21.77Q171.00 21.43 170.57 20.83Q170.14 20.22 170.14 19.42Z" fill="#FFFFFF"/><path class="svg__text" d="M207.30 22L202.76 22L202.76 13.60L207.06 13.60Q208.66 13.60 209.50 14.19Q210.35 14.79 210.35 15.79L210.35 15.79Q210.35 16.39 210.05 16.87Q209.75 17.34 209.21 17.62L209.21 17.62Q209.94 17.87 210.34 18.41Q210.75 18.94 210.75 19.70L210.75 19.70Q210.75 20.80 209.86 21.40Q208.97 22 207.30 22L207.30 22ZM205.11 18.58L205.11 20.28L207.11 20.28Q208.35 20.28 208.35 19.43L208.35 19.43Q208.35 18.58 207.11 18.58L207.11 18.58L205.11 18.58ZM205.11 15.31L205.11 16.94L206.74 16.94Q207.94 16.94 207.94 16.12L207.94 16.12Q207.94 15.31 206.74 15.31L206.74 15.31L205.11 15.31ZM217.59 18.95L214.39 13.60L216.90 13.60L218.89 16.94L220.88 13.60L223.18 13.60L219.97 18.99L219.97 22L217.59 22L217.59 18.95ZM230.51 19.46L227.00 19.46L227.00 17.71L230.51 17.71L230.51 19.46ZM234.82 21.24L234.82 21.24L235.60 19.49Q236.16 19.86 236.91 20.09Q237.65 20.32 238.37 20.32L238.37 20.32Q239.74 20.32 239.74 19.64L239.74 19.64Q239.74 19.28 239.35 19.11Q238.96 18.93 238.10 18.74L238.10 18.74Q237.15 18.53 236.51 18.30Q235.88 18.06 235.42 17.55Q234.97 17.03 234.97 16.16L234.97 16.16Q234.97 15.39 235.39 14.77Q235.80 14.15 236.64 13.79Q237.47 13.43 238.68 13.43L238.68 13.43Q239.51 13.43 240.31 13.62Q241.12 13.80 241.73 14.17L241.73 14.17L241.00 15.93Q239.80 15.28 238.67 15.28L238.67 15.28Q237.96 15.28 237.64 15.49Q237.32 15.70 237.32 16.04L237.32 16.04Q237.32 16.37 237.70 16.54Q238.08 16.71 238.93 16.89L238.93 16.89Q239.89 17.10 240.52 17.33Q241.15 17.56 241.62 18.07Q242.08 18.58 242.08 19.46L242.08 19.46Q242.08 20.21 241.66 20.83Q241.24 21.44 240.40 21.80Q239.56 22.17 238.36 22.17L238.36 22.17Q237.34 22.17 236.38 21.92Q235.42 21.67 234.82 21.24ZM248.07 22L245.65 22L249.36 13.60L251.70 13.60L255.42 22L252.95 22L252.29 20.37L248.74 20.37L248.07 22ZM250.51 15.93L249.43 18.61L251.59 18.61L250.51 15.93Z" fill="#FFFFFF" x="201.57000000000002"/></svg>