<?xml version="1.0" encoding="utf-8"?>
<!-- Generator: Adobe Illustrator 22.0.0, SVG Export Plug-In . SVG Version: 6.00 Build 0)  -->
<svg version="1.1" id="Layer_1" xmlns="http://www.w3.org/2000/svg" xmlns:xlink="http://www.w3.org/1999/xlink" x="0px" y="0px"
	 viewBox="0 0 180.4 35" style="enable-background:new 0 0 180.4 35;" xml:space="preserve">
<style type="text/css">
	.st0{fill:#5D9741;}
	.st1{fill:#C1D72F;}
	.st2{fill:#FFFFFF;}
	.st3{fill:#F06060;}
	.st4{fill:#8CBEB2;}
	.st5{fill:#56B9D0;}
	.st6{fill:#FEFEFE;}
</style>
<title>powered-by-electricity</title>
<g>
	<rect x="111.6" y="-44" class="st0" width="68.7" height="35"/>
	<rect y="-44" class="st1" width="111.6" height="35"/>
	<g>
		<path class="st2" d="M130-30.5h2.3v8.4h-2.1l-3.6-4.7v4.7h-2.3v-8.4h2.1l3.6,4.7V-30.5z"/>
		<path class="st2" d="M142.8-30.1c0.7,0.4,1.2,0.9,1.6,1.6c0.4,0.7,0.6,1.4,0.6,2.2c0,0.8-0.2,1.6-0.6,2.2
			c-0.4,0.7-0.9,1.2-1.6,1.6c-0.7,0.4-1.5,0.6-2.3,0.6c-0.9,0-1.7-0.2-2.4-0.6s-1.2-0.9-1.6-1.6s-0.6-1.4-0.6-2.2
			c0-0.8,0.2-1.6,0.6-2.2c0.4-0.7,0.9-1.2,1.6-1.6s1.5-0.6,2.4-0.6C141.3-30.7,142.1-30.5,142.8-30.1z M139.4-28.3
			c-0.3,0.2-0.6,0.5-0.8,0.8c-0.2,0.3-0.3,0.7-0.3,1.2s0.1,0.8,0.3,1.2c0.2,0.4,0.4,0.6,0.8,0.8s0.7,0.3,1,0.3c0.4,0,0.7-0.1,1-0.3
			c0.3-0.2,0.5-0.5,0.7-0.8c0.2-0.3,0.3-0.7,0.3-1.2c0-0.4-0.1-0.8-0.3-1.2c-0.2-0.3-0.4-0.6-0.7-0.8s-0.6-0.3-1-0.3
			C140.1-28.6,139.8-28.5,139.4-28.3z"/>
		<path class="st2" d="M154.7-30c0.7,0.3,1.2,0.8,1.6,1.5c0.4,0.6,0.6,1.4,0.6,2.2s-0.2,1.6-0.6,2.2c-0.4,0.6-0.9,1.1-1.6,1.5
			c-0.7,0.3-1.5,0.5-2.4,0.5h-3.6v-8.4h3.7C153.2-30.5,154-30.3,154.7-30z M153.7-24.7c0.4-0.4,0.5-0.9,0.5-1.6s-0.2-1.2-0.6-1.6
			c-0.4-0.4-0.9-0.6-1.5-0.6h-1.1v4.5h1.3C152.9-24.1,153.4-24.3,153.7-24.7z"/>
		<path class="st2" d="M160.4-30.5h6.9v1.9h-4.4v1.3h4v1.9h-4v1.3h4.5v1.9h-7V-30.5z"/>
	</g>
	<g>
		<path class="st2" d="M15.2-30.7l2.5,6.5l2.5-6.5H22v8.5h-1.5V-25l0.1-3.8l-2.5,6.6h-1.1l-2.5-6.6l0.1,3.8v2.8h-1.5v-8.5H15.2z"/>
		<path class="st2" d="M31.3-24.2H28l-0.7,2h-1.5l3.2-8.5h1.3l3.2,8.5H32L31.3-24.2z M28.4-25.4h2.5l-1.2-3.5L28.4-25.4z"/>
		<path class="st2" d="M37.1-22.2v-8.5h2.5c0.8,0,1.4,0.2,2,0.5s1,0.8,1.4,1.4s0.5,1.3,0.5,2.1v0.4c0,0.8-0.2,1.5-0.5,2.1
			s-0.8,1.1-1.4,1.4s-1.3,0.5-2,0.5H37.1z M38.6-29.5v6.2h1c0.8,0,1.4-0.2,1.8-0.7s0.6-1.2,0.6-2.1v-0.5c0-0.9-0.2-1.6-0.6-2.1
			s-1-0.7-1.8-0.7H38.6z"/>
		<path class="st2" d="M52.6-26h-3.5v2.6h4.1v1.2h-5.6v-8.5h5.5v1.2h-4.1v2.4h3.5V-26z"/>
		<path class="st2" d="M69.3-24.3l1.3-6.4h1.5l-2,8.5h-1.4l-1.6-6.2l-1.7,6.2H64l-2-8.5h1.5l1.3,6.4l1.6-6.4h1.2L69.3-24.3z"/>
		<path class="st2" d="M77.4-22.2h-1.5v-8.5h1.5V-22.2z"/>
		<path class="st2" d="M87.9-29.5h-2.7v7.3h-1.5v-7.3h-2.6v-1.2h6.8V-29.5z"/>
		<path class="st2" d="M98.4-22.2h-1.5V-26h-3.8v3.8h-1.5v-8.5h1.5v3.6h3.8v-3.6h1.5V-22.2z"/>
	</g>
</g>
<g>
	<path class="st0" d="M-15.5-17.2L-15.5-17.2c-5.2,0-9.5-4.3-9.5-9.5v0c0-5.2,4.3-9.5,9.5-9.5h0c5.2,0,9.5,4.3,9.5,9.5v0
		C-6-21.5-10.3-17.2-15.5-17.2z"/>
	<path class="st1" d="M-19.5-14.2L-19.5-14.2c-5.2,0-9.5-4.3-9.5-9.5v0c0-5.2,4.3-9.5,9.5-9.5h0c5.2,0,9.5,4.3,9.5,9.5v0
		C-10-18.5-14.3-14.2-19.5-14.2z"/>
</g>
<g>
	<path class="st3" d="M-15.5,25.8L-15.5,25.8c-5.2,0-9.5-4.3-9.5-9.5v0c0-5.2,4.3-9.5,9.5-9.5h0c5.2,0,9.5,4.3,9.5,9.5v0
		C-6,21.5-10.3,25.8-15.5,25.8z"/>
	<path class="st4" d="M-19.5,28.8L-19.5,28.8c-5.2,0-9.5-4.3-9.5-9.5v0c0-5.2,4.3-9.5,9.5-9.5h0c5.2,0,9.5,4.3,9.5,9.5v0
		C-10,24.5-14.3,28.8-19.5,28.8z"/>
</g>
<g>
	<path class="st5" d="M-15.5,68.8L-15.5,68.8c-5.2,0-9.5-4.3-9.5-9.5v0c0-5.2,4.3-9.5,9.5-9.5h0c5.2,0,9.5,4.3,9.5,9.5v0
		C-6,64.5-10.3,68.8-15.5,68.8z"/>
	<path class="st6" d="M-19.5,71.8L-19.5,71.8c-5.2,0-9.5-4.3-9.5-9.5v0c0-5.2,4.3-9.5,9.5-9.5h0c5.2,0,9.5,4.3,9.5,9.5v0
		C-10,67.5-14.3,71.8-19.5,71.8z"/>
</g>
</svg>
