<svg xmlns="http://www.w3.org/2000/svg" width="380.242" height="50" viewBox="0 0 380.242 50"><path fill="#fff" d="M0 0h219.465v50H0z"/><g fill="#EA004C"><path d="M23.11 24.577c0-1.893.072-2.522.342-3.315.648-2 2.216-3.01 4.36-3.01 2.073 0 3.587 1.01 4.272 2.72.054.092.018.182-.09.218l-1.964.883c-.108.054-.198.018-.252-.09-.342-.793-.92-1.388-1.946-1.388-.955 0-1.568.504-1.838 1.352-.145.45-.198.883-.198 2.63s.054 2.182.198 2.632c.27.846.883 1.35 1.838 1.35 1.027 0 1.604-.594 1.946-1.387.054-.108.144-.144.252-.09l1.964.883c.108.036.145.126.09.217-.685 1.712-2.2 2.72-4.27 2.72-2.146 0-3.713-1.008-4.362-3.01-.27-.793-.342-1.423-.342-3.316zM38.313 27.93c-.27-.848-.342-1.532-.342-3.353s.073-2.505.343-3.352c.63-1.982 2.325-2.974 4.47-2.974 2.143 0 3.837.992 4.468 2.975.272.847.344 1.53.344 3.352s-.072 2.505-.343 3.352c-.63 1.98-2.324 2.973-4.468 2.973s-3.838-.992-4.47-2.974zm6.397-.722c.144-.433.198-1.027.198-2.63s-.054-2.2-.198-2.632c-.27-.848-.92-1.352-1.928-1.352-1.01 0-1.658.504-1.928 1.352-.145.433-.198 1.027-.198 2.63s.054 2.2.198 2.632c.27.847.92 1.352 1.928 1.352 1.01 0 1.658-.505 1.928-1.352zM54.11 18.63c0-.107.073-.18.18-.18h2.146c.144 0 .234.054.288.18l3.1 6.992h.072l3.045-6.992c.055-.126.145-.18.29-.18h2.108c.108 0 .18.072.18.18v11.894c0 .108-.072.18-.18.18H63.3c-.107 0-.18-.07-.18-.18v-6.9h-.07l-2.272 5.17c-.072.163-.18.235-.342.235h-1.244c-.162 0-.27-.073-.342-.235l-2.27-5.172h-.073v6.9c0 .11-.072.182-.18.182H54.29c-.107 0-.18-.072-.18-.18V18.63zM72.54 30.704c-.11 0-.18-.072-.18-.18V18.63c0-.107.07-.18.18-.18h4.756c2.667 0 4.27 1.604 4.27 3.946 0 2.307-1.62 3.93-4.27 3.93h-2.18c-.072 0-.108.035-.108.107v4.09c0 .108-.072.18-.18.18h-2.29zm6.378-8.308c0-.99-.667-1.658-1.784-1.658h-2.018c-.072 0-.108.036-.108.108v3.082c0 .07.036.107.108.107h2.018c1.117 0 1.784-.647 1.784-1.64zM89.833 18.63c.036-.107.108-.18.234-.18h2.27c.127 0 .2.072.235.18l4.145 11.894c.036.108 0 .18-.126.18H94.25c-.126 0-.198-.053-.234-.18l-.703-2.144h-4.288l-.685 2.144c-.036.127-.108.18-.234.18h-2.36c-.127 0-.163-.07-.127-.18l4.217-11.894zm2.756 7.497l-1.388-4.29h-.054l-1.388 4.29h2.83zM104.19 30.704c-.11 0-.18-.072-.18-.18v-9.605c0-.073-.037-.11-.11-.11h-3.1c-.107 0-.18-.07-.18-.18v-2c0-.107.073-.18.18-.18h9.065c.108 0 .18.072.18.18v2c0 .108-.072.18-.18.18h-3.1c-.072 0-.108.037-.108.11v9.603c0 .108-.072.18-.18.18h-2.288zM116.023 18.63c0-.107.072-.18.18-.18h2.29c.107 0 .18.072.18.18v11.894c0 .108-.073.18-.18.18h-2.29c-.108 0-.18-.07-.18-.18V18.63zM125.516 18.63c0-.107.072-.18.18-.18h4.775c2.668 0 3.912 1.315 3.912 3.262 0 1.333-.613 2.162-1.424 2.613v.036c.81.307 1.64 1.316 1.64 2.775 0 2.415-1.604 3.568-4.253 3.568h-4.65c-.107 0-.18-.072-.18-.18V18.63zm4.63 4.83c1.01 0 1.605-.54 1.605-1.44 0-.902-.593-1.425-1.603-1.425h-1.874c-.072 0-.108.036-.108.108v2.648c0 .073.036.11.108.11h1.874zm-1.873 5.1h2.018c1.082 0 1.66-.576 1.66-1.53 0-.94-.578-1.533-1.66-1.533h-2.017c-.072 0-.108.036-.108.108v2.847c0 .07.036.108.108.108zM141.007 18.63c0-.107.072-.18.18-.18h2.29c.107 0 .18.072.18.18v11.894c0 .108-.073.18-.18.18h-2.29c-.108 0-.18-.07-.18-.18V18.63zM150.5 18.63c0-.107.072-.18.18-.18h2.29c.107 0 .18.072.18.18v9.605c0 .072.035.108.107.108h5.406c.108 0 .18.07.18.18v2c0 .108-.07.18-.18.18h-7.983c-.108 0-.18-.07-.18-.18V18.63zM164.91 18.63c0-.107.073-.18.18-.18h2.29c.108 0 .18.072.18.18v11.894c0 .108-.072.18-.18.18h-2.29c-.107 0-.18-.07-.18-.18V18.63zM177.107 30.704c-.108 0-.18-.072-.18-.18v-9.605c0-.073-.036-.11-.108-.11h-3.1c-.11 0-.18-.07-.18-.18v-2c0-.107.07-.18.18-.18h9.063c.108 0 .18.072.18.18v2c0 .108-.072.18-.18.18h-3.1c-.072 0-.108.037-.108.11v9.603c0 .108-.072.18-.18.18h-2.288zM191.733 30.704c-.107 0-.18-.072-.18-.18V25.82l-3.623-7.19c-.036-.09 0-.18.126-.18h2.342c.126 0 .216.054.27.18l2.217 4.47h.055l2.217-4.47c.054-.126.144-.18.27-.18h2.27c.128 0 .182.09.128.18l-3.622 7.19v4.703c0 .108-.072.18-.18.18h-2.29z"/></g><path fill="#C13A3A" d="M219.465 0h160.777v50H219.465z"/><g fill="#fff"><path d="M241.682 18.09h6.47c1.587 0 2.704.396 3.442 1.135.504.505.81 1.172.81 2.037v.035c0 1.46-.827 2.325-1.944 2.812 1.53.504 2.504 1.37 2.504 3.08v.037c0 2.162-1.766 3.478-4.775 3.478h-6.507V18.09zm5.605 5.027c1.062 0 1.658-.36 1.658-1.1v-.035c0-.686-.54-1.082-1.586-1.082h-2.272v2.217h2.2zm.504 4.776c1.063 0 1.677-.414 1.677-1.153v-.036c0-.685-.54-1.135-1.71-1.135h-2.67v2.323h2.704zM259.064 18.09h10.146v2.974h-6.686v1.91h6.055v2.757h-6.056v2h6.775v2.975h-10.237V18.09zM278.666 21.153h-3.785V18.09h11.065v3.063h-3.785v9.55h-3.494v-9.55zM294.715 18h3.37l5.37 12.704h-3.75l-.918-2.253h-4.865l-.902 2.254h-3.676L294.714 18zm3.062 7.73l-1.406-3.586-1.42 3.586h2.827zM309.176 18.09h3.695l3.01 4.884 3.01-4.884h3.694v12.614h-3.48V23.46l-3.224 4.938h-.072l-3.21-4.9v7.207h-3.423V18.09zM333.678 18h3.37l5.37 12.704h-3.75l-.918-2.253h-4.865l-.902 2.254h-3.676L333.677 18zm3.062 7.73l-1.406-3.586-1.422 3.586h2.828zM351.186 24.29l-4.145-6.2h4.02l2.233 3.55 2.252-3.55h3.93l-4.145 6.163 4.324 6.45h-4.018l-2.416-3.802-2.432 3.804h-3.93l4.328-6.415z"/></g></svg>