<svg xmlns="http://www.w3.org/2000/svg" width="454.803" height="50" viewBox="0 0 454.803 50"><path fill="#F4F4F0" d="M0 0h190.572v50H0z"/><path d="M21.61 30.71c-.107 0-.18-.072-.18-.18V18.635c0-.107.073-.18.18-.18h4.758c2.667 0 4.27 1.604 4.27 3.946 0 2.31-1.62 3.93-4.27 3.93h-2.18c-.072 0-.108.04-.108.11v4.09c0 .11-.072.18-.18.18h-2.29zm6.38-8.308c0-.99-.666-1.658-1.783-1.658H24.19c-.073 0-.11.036-.11.108v3.082c0 .07.037.107.11.107h2.017c1.117.008 1.784-.64 1.784-1.632zm8.357 5.533c-.27-.847-.342-1.53-.342-3.352s.072-2.505.342-3.352c.63-1.98 2.325-2.97 4.47-2.97 2.143 0 3.837.99 4.468 2.977.27.848.343 1.532.343 3.353s-.072 2.504-.343 3.35c-.63 1.98-2.325 2.974-4.47 2.974-2.144 0-3.837-.992-4.468-2.974zm6.397-.72c.144-.434.198-1.028.198-2.632s-.054-2.198-.198-2.63c-.27-.85-.92-1.353-1.928-1.353-1.01 0-1.658.504-1.928 1.352-.145.433-.198 1.027-.198 2.63s.054 2.2.198 2.632c.27.847.92 1.352 1.928 1.352 1.01 0 1.658-.505 1.928-1.352zM60.47 30.71c-.126 0-.198-.072-.234-.18l-2.126-7.623h-.036L55.93 30.53c-.036.107-.108.18-.234.18h-1.802c-.108 0-.18-.072-.216-.18l-3.17-11.895c-.02-.107.017-.18.143-.18h2.33c.128 0 .2.072.218.18l1.766 7.695H55l2.09-7.695c.035-.107.107-.18.233-.18h1.566c.106 0 .18.072.214.18l2.163 7.695h.036L63 18.635c.018-.126.09-.18.216-.18h2.308c.128 0 .164.072.146.18L62.508 30.53c-.018.107-.108.18-.234.18H60.47zm10.57-12.074c0-.107.073-.18.18-.18h7.858c.108 0 .18.072.18.18v1.93c0 .107-.072.18-.18.18h-5.28c-.072 0-.108.035-.108.107v2.433c0 .072.036.108.108.108h4.397c.108 0 .18.072.18.18v1.91c0 .108-.072.18-.18.18h-4.397c-.072 0-.108.037-.108.11v2.54c0 .072.036.107.108.107h5.28c.108 0 .18.08.18.188v1.928c0 .11-.072.18-.18.18H71.22c-.107 0-.18-.07-.18-.18v-11.9zM91.993 30.71c-.162 0-.216-.054-.27-.18l-2.11-4.487h-1.64c-.07 0-.107.036-.107.107v4.38c0 .107-.072.18-.18.18h-2.29c-.107 0-.18-.072-.18-.18V18.635c0-.107.073-.18.18-.18h4.885c2.51 0 4.17 1.567 4.17 3.802 0 1.568-.83 2.812-2.18 3.406l2.414 4.83c.054.107 0 .216-.126.216h-2.56zm-.198-8.452c0-.92-.65-1.514-1.658-1.514h-2.162c-.072 0-.108.036-.108.108v2.83c0 .07.036.107.108.107h2.162c1.01 0 1.658-.6 1.658-1.538zm8.662-3.622c0-.107.072-.18.18-.18h7.857c.108 0 .18.072.18.18v1.93c0 .107-.072.18-.18.18h-5.28c-.072 0-.108.035-.108.107v2.433c0 .072.036.108.108.108h4.397c.11 0 .18.072.18.18v1.91c0 .108-.07.18-.18.18h-4.39c-.072 0-.11.037-.11.11v2.54c0 .072.037.107.11.107h5.28c.107 0 .18.08.18.188v1.928c0 .11-.073.18-.18.18h-7.858c-.11 0-.18-.07-.18-.18v-11.9zm14.176 0c0-.107.072-.18.18-.18h4.56c2.144 0 3.64.92 4.234 2.757.216.685.325 1.37.325 3.37s-.108 2.685-.325 3.37c-.595 1.838-2.09 2.757-4.235 2.757h-4.56c-.107 0-.18-.072-.18-.18V18.635zm2.758 9.714h1.39c1.23 0 1.968-.36 2.27-1.352.13-.36.2-.83.2-2.415s-.07-2.055-.2-2.415c-.302-.99-1.04-1.352-2.27-1.352h-1.383c-.07 0-.107.036-.107.108v7.316c0 .073.034.11.107.11zm20.84-9.714c0-.107.078-.18.18-.18h4.78c2.668 0 3.91 1.315 3.91 3.262 0 1.333-.61 2.162-1.422 2.613v.04c.81.31 1.64 1.318 1.64 2.777 0 2.416-1.604 3.57-4.253 3.57h-4.65c-.106 0-.18-.073-.18-.182V18.637zm4.637 4.83c1.01 0 1.604-.54 1.604-1.44 0-.902-.594-1.425-1.604-1.425h-1.874c-.07 0-.11.04-.11.11v2.65c0 .07.04.11.11.11h1.875zm-1.874 5.1h2.018c1.08 0 1.66-.577 1.66-1.532 0-.938-.578-1.532-1.66-1.532h-2.017c-.074 0-.11.036-.11.108v2.847c0 .072.036.108.11.108zm14.5 2.144c-.11 0-.18-.072-.18-.18v-4.704l-3.62-7.19c-.037-.09 0-.18.125-.18h2.343c.127 0 .217.054.27.18l2.218 4.47h.054l2.217-4.47c.053-.126.143-.18.27-.18h2.27c.126 0 .18.09.126.18l-3.62 7.19v4.703c0 .1-.072.18-.18.18h-2.29z" enable-background="new" fill="#C1D72E"/><path fill="#5D9732" d="M190.572 0h264.23v50H190.57z"/><path d="M212.792 18.096h10.146v2.974h-6.686v1.91h6.055v2.757h-6.055v2h6.776v2.974h-10.236V18.1zm16.014 0h3.496v9.55h6.11v3.064h-9.606V18.096zm15.094 0h10.147v2.974h-6.686v1.91h6.06v2.757h-6.053v2h6.777v2.974H243.9V18.1zm15.49 6.342v-.036c0-3.676 2.83-6.56 6.65-6.56 2.577 0 4.235 1.082 5.353 2.632l-2.63 2.036c-.723-.9-1.55-1.478-2.758-1.478-1.767 0-3.01 1.495-3.01 3.333v.036c0 1.9 1.243 3.37 3.01 3.37 1.314 0 2.09-.61 2.847-1.53l2.632 1.88c-1.19 1.64-2.794 2.847-5.587 2.847-3.605.002-6.506-2.755-6.506-6.522zm20.664-3.278h-3.784v-3.064h11.064v3.063h-3.784v9.55h-3.496v-9.55zm12.806-3.064h5.965c1.928 0 3.262.505 4.108 1.37.74.72 1.117 1.693 1.117 2.937v.036c0 1.92-1.027 3.2-2.595 3.87l3.01 4.394h-4.037l-2.54-3.82h-1.53v3.82h-3.497v-12.61zm5.803 6.054c1.19 0 1.873-.576 1.873-1.496v-.035c0-.998-.72-1.5-1.892-1.5h-2.288v3.024h2.307zm11.22-6.054h3.515V30.71h-3.515V18.096zm9.385 6.342v-.036c0-3.676 2.83-6.56 6.65-6.56 2.576 0 4.234 1.082 5.352 2.632l-2.63 2.036c-.723-.9-1.55-1.478-2.758-1.478-1.767 0-3.01 1.495-3.01 3.333v.036c0 1.9 1.243 3.37 3.01 3.37 1.314 0 2.09-.61 2.847-1.53l2.63 1.88c-1.19 1.64-2.8 2.847-5.59 2.847-3.607.002-6.508-2.755-6.508-6.522zm17.652-6.342h3.516V30.71h-3.515V18.096zm12.9 3.064h-3.784v-3.064H357.1v3.063h-3.784v9.55h-3.496v-9.55zm16.447 4.828l-4.793-7.893h3.982l2.595 4.595 2.62-4.595h3.91l-4.794 7.84v4.774h-3.513V25.98z" enable-background="new" fill="#fff"/><path stroke="#fff" stroke-width="2.676" stroke-miterlimit="10" d="M403.938 17.235h28.21v13.06h-28.21z" fill="none"/><path fill="#fff" d="M418.043 17.235h14.104v13.06h-14.104zm-7.468 3.565h1.505v5.93h-1.505z"/><path fill="#5D9732" d="M428.066 23.643c0 1.51-1.22 2.733-2.7 2.733-1.486 0-2.71-1.224-2.71-2.733 0-1.468 1.224-2.677 2.71-2.677 1.483 0 2.7 1.208 2.7 2.677m-3.91 0c0 .68.55 1.22 1.21 1.22.656 0 1.188-.54 1.188-1.22 0-.663-.53-1.174-1.187-1.174-.66-.008-1.21.51-1.21 1.17"/></svg>