<svg xmlns="http://www.w3.org/2000/svg" width="234.996" height="16.959" viewBox="0 0 234.996 16.959"><path fill="#fff" d="M3.574 5.236h2.243L9.39 13.69H6.897l-.612-1.498h-3.24l-.6 1.5H0l3.574-8.456zm2.04 5.145L4.678 8l-.948 2.387h1.883zm139.16-5.08h6.753v1.98h-4.45v1.27h4.03v1.835h-4.03v1.335h4.51v1.98h-6.812V5.3zm11.006 0h2.17l3.454 4.438v-4.44h2.303v8.397h-2.038l-3.59-4.605v4.605h-2.306v-8.4zm12.42 0h3.237c3 0 4.737 1.728 4.737 4.15v.024c0 2.424-1.763 4.223-4.785 4.223h-3.19v-8.4zm3.273 6.333c1.392 0 2.314-.77 2.314-2.125V9.48c0-1.342-.923-2.12-2.314-2.12h-.947v4.27h.947zm8.905-6.334h6.753v1.98h-4.45v1.27h4.03v1.834h-4.03v1.335h4.51v1.98h-6.81V5.3zm13.908-.06h2.242l3.574 8.454h-2.495l-.61-1.496h-3.24l-.6 1.5h-2.445l3.574-8.456zm2.038 5.144L195.388 8l-.947 2.387h1.89zM202.05 5.3h2.603l1.906 5.314 1.9-5.317h2.556l-3.406 8.455h-2.157l-3.407-8.455zm11.962 4.223v-.025c0-2.41 1.942-4.366 4.533-4.366s4.51 1.93 4.51 4.34v.025c0 2.41-1.943 4.365-4.534 4.365-2.59 0-4.503-1.93-4.503-4.345zm6.668 0v-.025c0-1.212-.875-2.268-2.16-2.268-1.27 0-2.12 1.032-2.12 2.243v.02c0 1.21.874 2.267 2.145 2.267 1.284 0 2.135-1.03 2.135-2.243zm6.59-4.223h3.972c1.283 0 2.17.336 2.734.91.49.48.743 1.13.743 1.956v.024c0 1.283-.69 2.135-1.73 2.578l2 2.927h-2.687l-1.69-2.54h-1.02V13.7h-2.327V5.3zm3.863 4.03c.792 0 1.247-.384 1.247-.996V8.31c0-.66-.48-.996-1.26-.996h-1.52v2.02h1.535zm-111.97-5.033c0 1.05-.418 1.264-1.094 1.264-.68 0-1.098-.212-1.098-1.263V0h-1.566v4.238c0 2.338 1.666 2.686 2.66 2.686.992 0 2.66-.348 2.66-2.686V0h-1.568v4.293zm6.44-.957L127.335 0h-1.718l-.875 1.805L123.87 0h-1.72l1.737 3.336-1.845 3.498h1.718l.983-2.006.982 2.006h1.72zM83.043.13l4.063 10.222L91.19.13h4.49l-7.19 16.83h-2.858L78.556.13h4.49zm28.096 3.704h-7.34v2.812h5.732v3.705H103.8v2.908h7.334v3.705h-11.44V.128h11.44v3.706zM74.31 16.96H78.8L71.73.13h-2.86l-7.188 16.83h4.486l1.156-2.896h5.84l1.15 2.895zm-5.805-6.43l1.743-4.366 1.735 4.367H68.51zM36.664 8.398c1.13-.602 2.44-1.947 2.44-3.8 0-2.524-2.33-4.47-5.17-4.47H26.51v16.83h7.787c2.86 0 5.24-1.95 5.24-4.64 0-2.213-1.6-3.39-2.872-3.92zM30.26 3.59h3.242c.916 0 1.684.674 1.684 1.635 0 .963-.768 1.732-1.684 1.732H30.26V3.59zm3.557 9.93H30.26v-3.438h3.316c.938 0 1.97.72 1.97 1.684 0 .984-.794 1.754-1.73 1.754zm24.493 3.44l-4.335-6.347c2.188-.88 3.37-2.74 3.37-5.053 0-2.992-2.114-5.432-5.134-5.432h-8.19v16.83h3.856v-6.113l1.906-.002 4.107 6.115h4.425zM47.87 3.724h4.016c1.03 0 1.912.854 1.912 1.912 0 1.055-.88 2.012-1.912 2.012H47.87V3.724z"/></svg>