<svg xmlns="http://www.w3.org/2000/svg" width="234.996" height="16.959" viewBox="0 0 234.996 16.959"><path fill="#fff" d="M3.574 5.236h2.243L9.39 13.69H6.897l-.612-1.498H3.046l-.6 1.5H0l3.574-8.456zm2.04 5.145l-.936-2.386-.948 2.387h1.883z"/><g fill="#fff"><path d="M144.775 5.296h6.752v1.98h-4.45v1.27h4.03v1.835h-4.03v1.333h4.51v1.98h-6.812V5.295zM155.78 5.296h2.17l3.454 4.438V5.296h2.303v8.396h-2.038l-3.588-4.605v4.605h-2.303V5.296zM168.2 5.296h3.237c3 0 4.737 1.728 4.737 4.15v.024c0 2.423-1.763 4.222-4.785 4.222h-3.19V5.296zm3.273 6.333c1.392 0 2.314-.77 2.314-2.124V9.48c0-1.342-.923-2.12-2.314-2.12h-.947v4.27h.947zM180.378 5.296h6.753v1.98h-4.45v1.27h4.03v1.835h-4.03v1.333h4.51v1.98h-6.81V5.295zM194.286 5.236h2.242l3.574 8.455h-2.495l-.61-1.498h-3.24l-.6 1.5h-2.445l3.574-8.456zm2.038 5.145l-.936-2.386-.947 2.387h1.884zM202.05 5.296h2.603l1.906 5.313 1.906-5.314h2.555l-3.405 8.455h-2.158l-3.407-8.454zM214.012 9.518v-.024c0-2.41 1.942-4.366 4.533-4.366s4.51 1.93 4.51 4.342v.024c0 2.41-1.943 4.365-4.534 4.365-2.59 0-4.508-1.93-4.508-4.342zm6.668 0v-.024c0-1.212-.875-2.268-2.16-2.268-1.27 0-2.12 1.032-2.12 2.243v.023c0 1.21.874 2.267 2.145 2.267 1.284 0 2.135-1.03 2.135-2.242zM227.27 5.296h3.972c1.283 0 2.17.336 2.734.91.49.48.743 1.13.743 1.956v.024c0 1.283-.685 2.135-1.728 2.578l2.003 2.927h-2.687l-1.69-2.542h-1.02v2.543h-2.327V5.297zm3.863 4.03c.792 0 1.247-.384 1.247-.996v-.023c0-.66-.48-.996-1.26-.996H229.6v2.017h1.535z"/></g><g fill="#fff"><path d="M119.163 4.293c0 1.05-.418 1.264-1.094 1.264-.675 0-1.093-.213-1.093-1.264V0h-1.566v4.238c0 2.338 1.667 2.686 2.66 2.686.993 0 2.66-.348 2.66-2.686V0h-1.567v4.293zM125.602 3.336L127.336 0h-1.718l-.875 1.805L123.87 0h-1.72l1.737 3.336-1.845 3.498h1.718l.983-2.006.982 2.006h1.72zM83.045.13l4.062 10.222L91.19.13h4.49l-7.19 16.83h-2.858L78.556.13h4.49zM111.14 3.834h-7.335v2.812h5.732v3.705h-5.732v2.903h7.334v3.705H99.697V.128h11.44v3.706zM74.315 16.96H78.8L71.73.13h-2.86l-7.188 16.83h4.486l1.156-2.896h5.84l1.15 2.895zm-5.805-6.43l1.744-4.366 1.734 4.367H68.51zM36.665 8.398c1.13-.602 2.44-1.947 2.44-3.8 0-2.524-2.33-4.47-5.17-4.47H26.51v16.83h7.787c2.86 0 5.24-1.95 5.24-4.64 0-2.213-1.6-3.39-2.872-3.92zM30.26 3.59h3.242c.916 0 1.684.674 1.684 1.635 0 .963-.768 1.732-1.684 1.732H30.26V3.59zm3.557 9.93H30.26v-3.438h3.316c.938 0 1.97.72 1.97 1.684 0 .984-.794 1.754-1.73 1.754zM58.31 16.96l-4.335-6.347c2.188-.88 3.37-2.74 3.37-5.053 0-2.992-2.114-5.432-5.134-5.432H44.02v16.83h3.852v-6.113l1.906-.002 4.107 6.115h4.426zM47.87 3.724h4.016c1.03 0 1.912.854 1.912 1.912 0 1.055-.88 2.012-1.912 2.012H47.87V3.724z"/></g></svg>