<?xml version="1.0" encoding="utf-8"?>
<!-- Generator: Adobe Illustrator 16.0.0, SVG Export Plug-In . SVG Version: 6.00 Build 0)  -->
<!DOCTYPE svg PUBLIC "-//W3C//DTD SVG 1.1//EN" "http://www.w3.org/Graphics/SVG/1.1/DTD/svg11.dtd">
<svg version="1.1" id="Layer_1" xmlns="http://www.w3.org/2000/svg" xmlns:xlink="http://www.w3.org/1999/xlink" x="0px" y="0px"
	 width="234.996px" height="16.959px" viewBox="0 0 234.996 16.959" enable-background="new 0 0 234.996 16.959"
	 xml:space="preserve">
<g>
	<g>
		<g>
			<g>
				<path fill="#FFFFFF" d="M3.574,5.236h2.243l3.574,8.455H6.896l-0.612-1.499H3.046l-0.6,1.499H0L3.574,5.236z M5.613,10.381
					L4.678,7.994L3.73,10.381H5.613z"/>
			</g>
		</g>
		<g>
			<g>
				<path fill="#FFFFFF" d="M144.775,5.296h6.752v1.979h-4.45v1.271h4.03v1.835h-4.03v1.332h4.51v1.979h-6.812V5.296z"/>
				<path fill="#FFFFFF" d="M155.779,5.296h2.171l3.454,4.438V5.296h2.303v8.396h-2.038l-3.587-4.605v4.605h-2.303V5.296z"/>
				<path fill="#FFFFFF" d="M168.199,5.296h3.238c2.999,0,4.737,1.728,4.737,4.149V9.47c0,2.423-1.763,4.222-4.785,4.222h-3.19
					V5.296z M171.473,11.629c1.392,0,2.314-0.768,2.314-2.123V9.481c0-1.343-0.923-2.122-2.314-2.122h-0.947v4.27H171.473z"/>
				<path fill="#FFFFFF" d="M180.378,5.296h6.753v1.979h-4.45v1.271h4.03v1.835h-4.03v1.332h4.51v1.979h-6.812V5.296z"/>
				<path fill="#FFFFFF" d="M194.286,5.236h2.242l3.574,8.455h-2.495l-0.611-1.499h-3.238l-0.6,1.499h-2.446L194.286,5.236z
					 M196.324,10.381l-0.936-2.387l-0.947,2.387H196.324z"/>
				<path fill="#FFFFFF" d="M202.05,5.296h2.603l1.906,5.313l1.907-5.313h2.555l-3.406,8.455h-2.158L202.05,5.296z"/>
				<path fill="#FFFFFF" d="M214.012,9.518V9.494c0-2.411,1.942-4.366,4.533-4.366s4.51,1.931,4.51,4.342v0.024
					c0,2.41-1.943,4.365-4.534,4.365C215.931,13.859,214.012,11.929,214.012,9.518z M220.68,9.518V9.494
					c0-1.212-0.875-2.268-2.159-2.268c-1.271,0-2.122,1.032-2.122,2.243v0.024c0,1.211,0.875,2.267,2.146,2.267
					C219.829,11.761,220.68,10.729,220.68,9.518z"/>
				<path fill="#FFFFFF" d="M227.271,5.296h3.971c1.283,0,2.17,0.336,2.734,0.911c0.491,0.48,0.743,1.128,0.743,1.955v0.024
					c0,1.283-0.684,2.135-1.727,2.578l2.003,2.927h-2.687l-1.691-2.543h-0.024h-0.995v2.543h-2.327V5.296z M231.133,9.326
					c0.792,0,1.247-0.384,1.247-0.996V8.307c0-0.66-0.479-0.996-1.259-0.996h-1.523v2.016H231.133z"/>
			</g>
		</g>
		<g>
			<g>
				<g>
					<path fill="#FFFFFF" d="M119.163,4.293c0,1.051-0.418,1.264-1.094,1.264c-0.674,0-1.092-0.213-1.092-1.264V0h-1.566v4.238
						c0,2.338,1.666,2.686,2.658,2.686c0.994,0,2.66-0.348,2.66-2.686V0h-1.566V4.293z"/>
					<polygon fill="#FFFFFF" points="125.602,3.336 127.336,0 125.618,0 124.743,1.805 123.87,0 122.151,0 123.887,3.336 
						122.042,6.834 123.76,6.834 124.743,4.828 125.725,6.834 127.446,6.834 					"/>
				</g>
				<path fill="#FFFFFF" d="M83.045,0.129l4.062,10.223l4.084-10.223h4.488l-7.188,16.83h-2.859l-7.076-16.83H83.045z"/>
				<path fill="#FFFFFF" d="M111.139,3.834h-7.334v2.812h5.732v3.705h-5.732v2.902h7.334v3.705H99.698V0.129h11.441V3.834z"/>
				<path fill="#FFFFFF" d="M74.315,16.959h4.486l-7.072-16.83H68.87l-7.188,16.83h4.486l1.156-2.895h5.84L74.315,16.959z
					 M68.51,10.531l1.744-4.367l1.734,4.367H68.51z"/>
				<path fill="#FFFFFF" d="M36.665,8.398c1.129-0.602,2.439-1.947,2.439-3.799c0-2.525-2.33-4.471-5.168-4.471H26.51v16.83h7.787
					c2.859,0,5.24-1.949,5.24-4.641C39.538,10.105,37.938,8.928,36.665,8.398z M30.26,3.59h3.242c0.916,0,1.684,0.674,1.684,1.635
					c0,0.963-0.768,1.732-1.684,1.732H30.26V3.59z M33.817,13.52H30.26v-3.438h3.316c0.938,0,1.971,0.721,1.971,1.684
					C35.547,12.75,34.752,13.52,33.817,13.52z"/>
				<path fill="#FFFFFF" d="M58.309,16.959l-4.334-6.346c2.188-0.879,3.371-2.74,3.371-5.053c0-2.992-2.115-5.432-5.135-5.432
					h-8.193v16.83h3.852v-6.113l1.906-0.002l4.107,6.115H58.309z M47.87,3.725h4.016c1.031,0,1.912,0.854,1.912,1.912
					c0,1.055-0.881,2.012-1.912,2.012H47.87V3.725z"/>
			</g>
		</g>
	</g>
</g>
</svg>
