<svg xmlns="http://www.w3.org/2000/svg" width="142.543" height="164.592" viewBox="0 0 142.543 164.592"><path fill="#393D43" d="M0 41.148L71.27 0l71.273 41.148v82.296L71.27 164.592 0 123.444z"/><path d="M41.766 67.42h3.337l2.446 6.813 2.44-6.813h3.27L48.9 78.264h-2.77L41.767 67.42zm15.614 0h3v10.767h-3V67.42zm7.97 0h8.658v2.538h-5.706v1.63h5.168v2.354h-5.168v1.707h5.783v2.53H65.35V67.42zm12.537 0h3.152l1.87 6.23 2.07-6.26h2.57l2.073 6.26 1.877-6.23h3.1L91 78.264h-2.6l-2.168-6.198-2.153 6.198h-2.6L77.89 67.42zM54.764 85.804h2.876l4.584 10.844h-3.2l-.784-1.923h-4.153l-.77 1.923H50.18l4.584-10.844zm2.615 6.598l-1.2-3.06-1.22 3.06h2.41zm8.89-6.522h2.98v8.152h5.21v2.615h-8.19V85.88zm12.47 0h2.98v8.152h5.215v2.615h-8.2V85.88z" enable-background="new" fill="#fff"/></svg>