<svg xmlns="http://www.w3.org/2000/svg" width="183.694" height="185.37" viewBox="0 0 183.694 185.37"><path d="M148.502 68.557l-.695-1.865h-25.71c-7.156 0-13.66 2.848-18.44 7.467-1.512.75-5.432 1.74-11.3 1.74-5.864 0-9.784-.99-11.298-1.75-4.79-4.62-11.29-7.47-18.45-7.47H36.9l-.694 1.86c-.238.643-1.43 3.965-1.322 6.205.044.95.292 1.812.533 2.65.274.95.557 1.94.64 3.296.223 3.6.13 8.104.05 10.51-.01.077-.007.155-.01.23-.04.605-.07 1.21-.07 1.825 0 14.66 11.927 26.588 26.585 26.588 14.66 0 26.584-11.925 26.584-26.583 0-3.16-.557-6.2-1.576-9.01 1.323-.84 2.864-1.31 4.464-1.31 1.787 0 3.495.573 4.906 1.61-.95 2.73-1.477 5.66-1.477 8.71 0 14.66 11.928 26.586 26.585 26.586 14.66 0 26.585-11.926 26.585-26.584 0-.61-.027-1.21-.068-1.817-.006-.08-.003-.16-.01-.24-.078-2.41-.173-6.91.048-10.515.085-1.36.368-2.344.642-3.3.242-.83.49-1.694.533-2.643.105-2.24-1.086-5.56-1.326-6.206zM40.256 71.954h4.205v2.484h-4.2v-2.484zm22.355 42.17c-11.48 0-20.82-9.327-20.84-20.804.01-.21.04-.787.06-1.617l.03-.38c.02-.147.03-.292.05-.438.03-.195.05-.393.08-.588.02-.145.05-.29.07-.434.03-.19.06-.375.1-.56.03-.157.067-.312.1-.466.03-.164.07-.328.11-.492.04-.176.09-.35.14-.523.037-.133.07-.262.11-.393.06-.21.124-.42.19-.62l.087-.25c.086-.25.175-.5.266-.74.014-.03.023-.06.034-.08 2.695-6.9 8.982-12.01 16.44-13.1.034-.01.063-.01.096-.02.29-.04.58-.08.874-.11l.373-.03c.206-.02.41-.038.624-.04.34-.02.683-.03 1.027-.03 11.497 0 20.85 9.35 20.85 20.85 0 11.49-9.35 20.85-20.85 20.85zm59.49 0c-11.49 0-20.85-9.354-20.85-20.85 0-11.495 9.36-20.85 20.85-20.85.35 0 .69.01 1.03.028.21.008.42.027.63.043.13.01.25.018.38.03.29.028.587.063.878.104.03 0 .063 0 .093.01 7.457 1.09 13.738 6.2 16.44 13.08.01.03.024.07.036.1.09.23.178.47.26.71l.09.27c.07.2.128.4.188.6l.12.41c.045.167.09.335.13.503.04.174.083.346.12.52.032.146.062.293.092.44.037.194.07.39.105.59l.06.402c.03.205.058.412.08.62l.046.41c.013.13.02.263.03.395.03.827.053 1.4.064 1.61-.03 11.48-9.37 20.81-20.85 20.81zm22.36-39.686h-4.2v-2.484h4.21v2.484zm-22.13 21.15c-3.53 0-6.85-1.38-9.35-3.88l-3.56 3.56c3.458 3.456 8.04 5.358 12.92 5.358s9.466-1.902 12.92-5.357L131.7 91.7c-2.5 2.5-5.82 3.88-9.354 3.88zm-59.23 0c-3.53 0-6.853-1.38-9.354-3.88l-3.563 3.56c3.456 3.456 8.044 5.358 12.92 5.358S72.55 98.724 76 95.27l-3.562-3.563c-2.5 2.502-5.824 3.88-9.355 3.88zm-41.95 39.51l-1.8-3.4-1.806.96 1.636 3.083-2.38 1.27-1.636-3.08-4.247 2.25-1.49-2.81 10.82-5.73 3.294 6.217-2.38 1.26zm6.8 6.042c1.057.468 1.956 1.16 2.698 2.077.744.916 1.235 1.94 1.476 3.07.24 1.13.18 2.248-.172 3.358-.353 1.11-1 2.043-1.932 2.8-1.54 1.247-3.2 1.773-4.98 1.58-1.78-.195-3.29-1.058-4.53-2.59-1.24-1.53-1.772-3.187-1.593-4.97.18-1.78 1.04-3.296 2.578-4.544.933-.75 1.98-1.19 3.14-1.31s2.264.06 3.32.53zm1.078 6.526c.076-.938-.183-1.774-.775-2.506-.593-.73-1.355-1.158-2.29-1.28-.934-.12-1.733.09-2.4.627-.805.654-1.27 1.463-1.39 2.424s.124 1.82.73 2.57c.607.75 1.394 1.17 2.358 1.25s1.855-.2 2.66-.86c.666-.54 1.037-1.28 1.11-2.21zm33.66 22.626l-3.606 8.84-2.947-1.202 3.608-8.84-2.433-.995 1.02-2.496 7.817 3.19-1.02 2.49-2.43-1zm10.457 5.348l4.504.92.942-4.632 3.116.635-2.445 11.998-3.12-.63 1.004-4.91-4.502-.92-1 4.92-3.12-.63 2.447-12 3.12.638-.945 4.63zm21.477.182l-3.784-.062-.037 2.046 3.59.058-.045 2.695-3.59-.06-.034 2.11 3.78.06-.042 2.69-6.97-.12.2-12.247 6.966.112-.043 2.696zm23.824 5.758l-4.71 1.364-3.403-11.762 4.366-1.265c2.33-.675 3.79.008 4.38 2.046.337 1.165.14 2.09-.6 2.777l.01.03c1.66-.255 2.75.513 3.27 2.3.17.594.2 1.143.09 1.648-.115.506-.34.94-.68 1.305s-.737.672-1.19.926c-.45.25-.96.46-1.53.63zm-4.38-8.943l.66 2.277.344-.1c.498-.145.876-.338 1.133-.582.255-.243.32-.588.19-1.035-.076-.26-.187-.457-.33-.59-.15-.132-.33-.203-.546-.214-.22-.01-.414 0-.587.025-.172.027-.39.08-.65.153l-.22.07zm1.32 4.555l.73 2.527.39-.12.508-.15s.258-.09.5-.18c.246-.1.42-.19.525-.27.104-.09.225-.2.36-.33.135-.14.215-.29.24-.46.02-.17.005-.36-.056-.57-.044-.16-.1-.29-.17-.41-.065-.12-.15-.208-.25-.27l-.277-.164s-.2-.07-.35-.067c-.15 0-.268 0-.35-.005-.08 0-.21.016-.39.06-.186.042-.307.07-.363.09l-.38.11-.344.1-.31.09zm20.39-5.112l-3.89 2.024.233 2.276-3 1.56-1.477-13.036 3.084-1.604 9.742 8.733-3.01 1.567-1.69-1.52zm-1.887-1.764l-2.956-2.857-.03.01.63 4.06 2.35-1.22zm12.62-2.416l-7.73-9.497 3.5-2.85c1.327-1.08 2.837-1.545 4.53-1.395 1.692.15 3.08.89 4.16 2.216 1.08 1.327 1.52 2.834 1.324 4.522-.196 1.688-.96 3.072-2.284 4.152l-3.502 2.85zm-3.56-9.415l4.325 5.314.555-.46c.79-.65 1.26-1.4 1.415-2.26s-.13-1.74-.847-2.62c-.677-.83-1.454-1.28-2.333-1.35-.88-.07-1.726.23-2.54.89l-.58.47zm15.82-11.8l3.968-4.917c.818.684 1.46 1.317 1.93 1.902.48.584.83 1.288 1.05 2.11.53 1.9.1 3.713-1.3 5.44-1.21 1.498-2.66 2.345-4.35 2.537-1.692.19-3.284-.314-4.775-1.518-1.54-1.25-2.394-2.73-2.565-4.44s.366-3.34 1.61-4.88c.803-1 1.723-1.68 2.76-2.05 1.04-.37 2.164-.41 3.375-.1l-.91 3.14c-.616-.203-1.2-.237-1.757-.102-.555.137-1.03.45-1.424.94-.62.77-.806 1.615-.557 2.55.25.93.77 1.72 1.56 2.354.79.64 1.67.974 2.63 1.007.96.03 1.755-.34 2.38-1.116.45-.56.676-1.13.682-1.727.01-.595-.232-1.13-.722-1.61l-1.634 2.02-1.946-1.57zm8.144-17.845l-1.776 3.34 1.808.962 1.69-3.17 2.38 1.268-1.686 3.17 1.863.99 1.776-3.34 2.38 1.266-3.27 6.15-10.81-5.75 3.27-6.15 2.38 1.264zM5.284 76.985l.96-4.495-4.62-.985.66-3.113 11.977 2.553-.66 3.113-4.91-1.046-.952 4.495 4.907 1.046-.663 3.112L0 79.112.664 76l4.62.985zm.974-19.647l11.37 4.525-1.18 2.958L5.08 60.3l1.178-2.957zm14.06-1.423l-10.55-6.22 2.47-4.195c.692-1.19 1.53-1.95 2.51-2.3.98-.35 2.05-.18 3.22.51 2.385 1.41 2.844 3.35 1.38 5.84l-.92 1.552 3.497 2.06-1.616 2.744zm-6.72-7.66l2.63 1.552.27-.46c.15-.263.27-.462.34-.6.07-.14.15-.326.23-.563s.1-.432.08-.584c-.03-.152-.1-.317-.22-.495s-.31-.342-.56-.49c-.26-.154-.5-.244-.72-.27s-.4-.018-.553.03c-.154.047-.31.16-.47.335s-.29.333-.384.472-.22.344-.38.614l-.27.46zm11.39-18.61l1.03 2.574c-.838.13-1.5.49-2 1.06-.22.25-.353.55-.402.88-.05.33.046.61.283.81.163.14.37.2.62.18.25-.02.45-.07.6-.15.15-.08.35-.19.59-.34l.715-.454c.833-.536 1.62-.836 2.36-.9.73-.064 1.45.205 2.14.81 1.123.97 1.677 2.01 1.664 3.115-.014 1.19-.48 2.32-1.403 3.385-1.007 1.16-2.297 1.94-3.873 2.337l-1.05-2.71c1.27-.173 2.205-.61 2.81-1.304.27-.31.424-.65.466-1.026.045-.37-.085-.687-.39-.95-.416-.36-1.076-.25-1.98.33-.03.014-.14.09-.34.22-.505.33-.92.58-1.246.742-.33.163-.7.287-1.11.374-.41.087-.81.057-1.2-.092s-.796-.41-1.23-.786c-.933-.807-1.424-1.756-1.476-2.846-.05-1.09.325-2.1 1.133-3.035.406-.465.906-.9 1.5-1.31.598-.41 1.188-.717 1.77-.927zm11.08-7.34l6.06 7.374-2.46 2.02-6.07-7.38-2.03 1.67-1.715-2.08 6.52-5.37 1.72 2.09-2.03 1.67zm13.96-9.195l-3.28 1.9 1.027 1.77 3.102-1.802 1.35 2.332-3.104 1.8 1.06 1.827 3.276-1.898 1.35 2.33-6.024 3.49-6.14-10.59 6.023-3.5 1.352 2.33zm42.58-3.005l-4.39.1-.793 2.147-3.378.078L88.48.08 91.96 0l4.893 12.136-3.394.078-.85-2.11zM91.7 7.69l-1.39-3.87h-.033l-1.225 3.93 2.646-.06zm10.456 5.04l2.11-12.064 4.8.84c1.354.237 2.365.752 3.035 1.545.67.8.89 1.86.66 3.19-.48 2.73-2.14 3.85-4.98 3.35L106 9.28l-.7 4-3.135-.55zm4.804-8.987l-.53 3.007.53.093c.3.052.525.09.68.11.157.022.36.028.608.017.25-.01.44-.053.573-.13.14-.074.27-.2.39-.375s.22-.408.27-.696c.06-.3.06-.56 0-.77-.05-.21-.12-.38-.22-.51s-.26-.24-.48-.33c-.22-.09-.41-.16-.57-.2-.16-.04-.4-.086-.71-.14l-.53-.09zm9.93 12.175l4.32-11.46 4.56 1.72c1.286.485 2.185 1.18 2.694 2.083s.525 1.99.048 3.26c-.978 2.59-2.82 3.38-5.523 2.36l-1.69-.64-1.44 3.8-2.98-1.12zm6.394-7.935l-1.077 2.857.5.19c.284.106.5.185.65.235s.346.093.593.128c.25.036.445.028.59-.02.148-.05.298-.15.45-.3.157-.15.286-.36.39-.635.106-.282.155-.532.145-.75-.01-.22-.052-.4-.125-.542-.074-.143-.212-.28-.412-.407-.2-.13-.378-.23-.53-.3-.153-.07-.377-.16-.67-.27l-.503-.19zm31.89 16.796c1.1.35 2.072.93 2.912 1.76.84.83 1.443 1.79 1.808 2.88.363 1.09.432 2.21.202 3.35-.23 1.14-.765 2.14-1.608 2.997-1.393 1.41-2.983 2.12-4.774 2.125-1.792.005-3.39-.684-4.792-2.067-1.404-1.385-2.116-2.97-2.137-4.76-.02-1.79.664-3.396 2.055-4.807.843-.858 1.834-1.41 2.973-1.65 1.137-.25 2.257-.2 3.36.15zm1.798 6.36c-.03-.94-.38-1.75-1.05-2.41s-1.48-1-2.42-1.02c-.942-.017-1.713.28-2.313.89-.73.74-1.1 1.593-1.12 2.562-.01.97.32 1.79 1.01 2.466s1.51 1 2.48.975c.97-.027 1.81-.41 2.54-1.15.6-.61.884-1.384.854-2.326zM169 40.04l-4.63 6.53 7.852-1.56 1.884 2.9-13.116 2.29-1.343-2.07 7.465-10.987 1.884 2.9zm8.48 22.05l-1.44-3.5-1.898.78 1.366 3.32-2.493 1.025-1.365-3.32-1.952.804 1.44 3.5-2.49 1.02-2.65-6.45 11.323-4.66 2.65 6.44-2.49 1.03zm-6.84 9.65l11.99-2.49.92 4.42c.35 1.674.06 3.23-.85 4.66s-2.21 2.326-3.88 2.675-3.218.045-4.626-.906c-1.41-.95-2.287-2.27-2.636-3.94l-.916-4.42zm9.994 1.173l-6.71 1.395.145.7c.2.995.66 1.76 1.35 2.296.69.534 1.6.686 2.71.455 1.05-.22 1.805-.7 2.27-1.45.463-.75.59-1.64.374-2.67l-.154-.74zm-119.5-24.57v5.687H59.24v-5.68h-1.567v-1.61h5.03v1.605h-1.568zm14.63 5.686v-7.29h2.69c1.02 0 1.89.35 2.614 1.05s1.084 1.57 1.084 2.582-.362 1.88-1.088 2.586c-.727.71-1.598 1.06-2.616 1.06H75.76zm1.896-5.69v4.08h.43c.605 0 1.106-.17 1.503-.51s.6-.85.6-1.53c0-.64-.19-1.14-.57-1.5-.38-.36-.885-.54-1.51-.54h-.445zm23.35 5.68l1.24-7.29h1.866l1.48 3.893 1.565-3.898h1.89l1.11 7.29h-1.896l-.53-4.2h-.02l-1.75 4.194h-.754l-1.676-4.196h-.02l-.61 4.196h-1.883zm24.23-4.287l2.296-3.007h2.35l-2.9 3.452 3.162 3.84h-2.456l-2.447-3.165h-.02v3.16h-1.895v-7.29h1.896v3.006h.018zm-5.57-.393v-.02c.008-1.555-1.132-2.52-2.973-2.527l-3.077-.013-.024 7.19 1.96.008.007-2.064h.558l.01.014c.17.38.41.725.71 1.02.83.834 1.73 1.174 2.84 1.07l.004-1.684c-.617.054-1.133-.015-1.625-.51l-.08-.09-.016-.02.025-.012c.22-.08.42-.17.6-.29.717-.45 1.097-1.166 1.1-2.074zm-1.96.067v.02c0 .33-.15.603-.42.77-.192.122-.454.187-.75.187l-.97-.002v-.02l.006-1.933.96.003c.368 0 .66.083.862.25.21.167.313.41.313.723zm-63.56 89.92v-7.29h1.9l3.47 4.456h.02v-4.458h1.897v7.29H59.54l-3.473-4.47h-.02v4.465h-1.895zm13.117-7.064c.612-.313 1.27-.47 1.973-.47.7 0 1.36.156 1.972.47.616.31 1.11.76 1.49 1.34.38.58.57 1.23.57 1.942 0 1.18-.38 2.14-1.134 2.89s-1.723 1.126-2.896 1.126c-1.176 0-2.14-.376-2.898-1.13s-1.136-1.714-1.136-2.893c0-.715.19-1.363.57-1.943.38-.58.877-1.03 1.49-1.34zm3.423 1.95c-.407-.39-.89-.58-1.45-.58-.563 0-1.046.19-1.45.58s-.61.832-.61 1.342c0 .62.2 1.132.6 1.55.4.412.886.62 1.46.62.573 0 1.06-.208 1.46-.623.4-.417.6-.935.6-1.554 0-.51-.205-.955-.61-1.34zm9.26-.57v5.684h-1.894v-5.69H76.49v-1.603h5.028v1.605H79.95zm34.04-1.608v5.68h2.274v1.604h-4.168v-7.29h1.896zm6.79 3.79l-2.69-3.79h2.274l1.363 1.98 1.363-1.98h2.27l-2.688 3.79v3.5h-1.896v-3.5zM83.37 31.7h1.896v4.1c0 .595-.047 1.093-.14 1.496-.095.403-.302.763-.624 1.08-.55.54-1.354.81-2.418.81s-1.87-.27-2.418-.81c-.322-.317-.53-.676-.623-1.08-.094-.403-.14-.9-.14-1.494v-4.1h1.895v3.838c0 .234.005.427.015.58s.038.33.087.524c.048.193.116.348.203.464s.214.214.382.295.367.12.6.12.432-.04.6-.12c.167-.08.295-.18.382-.295s.154-.27.203-.464c.048-.194.077-.368.087-.522s.015-.347.015-.58v-3.838zm10.754.407l-.755 1.47c-.39-.33-.81-.49-1.26-.49-.2 0-.39.05-.56.16-.17.11-.26.256-.26.443 0 .13.05.244.16.347.1.106.2.177.3.216.09.04.22.082.38.134l.48.145c.56.167 1.01.405 1.32.71.314.307.473.734.473 1.282 0 .883-.25 1.538-.755 1.963-.54.456-1.23.685-2.07.685-.91 0-1.77-.277-2.56-.83l.81-1.53c.576.503 1.14.754 1.686.754.244 0 .46-.066.642-.19.182-.127.274-.31.274-.548 0-.33-.31-.584-.92-.765L91.29 36c-.35-.097-.624-.187-.824-.27-.2-.085-.4-.203-.6-.354-.2-.15-.34-.346-.428-.58-.084-.23-.126-.52-.126-.86 0-.733.234-1.324.705-1.772s1.073-.674 1.81-.674c.366 0 .76.057 1.174.167.42.11.79.254 1.11.434zm8.566 5.62h-2.61l-.503 1.26h-2.012l2.805-7.29h2.07l2.745 7.29h-2.02l-.474-1.27zm-.51-1.45l-.774-2.33h-.02l-.783 2.32h1.576zM77.91 152.46h2.39v1.605h-5.86l2.98-3.24c.553-.605.83-1.2.83-1.788 0-.246-.08-.465-.236-.658-.158-.2-.356-.29-.595-.29-.25 0-.44.08-.58.25-.15.17-.22.38-.22.64 0 .1.01.2.03.31h-2.09c.03-.85.3-1.53.8-2.04.5-.52 1.18-.77 2.03-.77.785 0 1.45.24 1.996.71.543.47.815 1.1.815 1.87 0 .49-.097.91-.287 1.254s-.49.706-.896 1.074l-1.13 1.054zm7.67-5.633c.404-.23.87-.344 1.39-.344.523 0 .987.115 1.394.344s.73.537.973.92c.24.385.424.804.546 1.258.122.455.184.928.184 1.417 0 .387-.037.766-.11 1.136-.075.37-.192.73-.354 1.07s-.36.64-.595.895c-.235.256-.528.46-.88.61-.352.15-.736.227-1.156.227-.42 0-.804-.074-1.155-.227-.352-.15-.645-.354-.88-.61-.235-.253-.434-.552-.595-.894s-.28-.7-.353-1.07c-.08-.37-.12-.75-.12-1.14 0-.49.06-.96.18-1.42.12-.46.3-.88.54-1.26.24-.39.564-.69.97-.92zm1.985 1.576c-.17-.164-.37-.246-.595-.246s-.424.084-.595.248-.298.373-.382.624-.144.49-.18.72-.052.45-.052.65.02.422.06.66c.04.23.1.48.18.73.09.257.21.467.38.63.17.166.37.248.6.248s.43-.08.6-.245c.17-.166.3-.376.388-.63.083-.255.143-.5.18-.734.034-.236.05-.457.05-.663s-.016-.424-.05-.656c-.037-.232-.097-.475-.18-.726-.084-.25-.21-.46-.383-.627zm8.225-.024h-1.044v-1.61h2.94v7.29H95.79v-5.69zm12.388 2.72h.88v1.45h-.88v1.51h-1.76v-1.51h-3.54v-1.21l2.814-4.58h2.485v4.33zm-1.76 0v-2.8h-.02l-1.702 2.8h1.722zm69.507-51.1l1.58 3.2 3.532.51-2.556 2.49.61 3.52-3.16-1.668-3.16 1.662.61-3.52-2.55-2.493 3.536-.51zM9.938 100l1.58 3.202 3.53.51-2.555 2.494.605 3.52-3.16-1.663-3.16 1.662.603-3.52-2.55-2.492 3.53-.51zm133.73-79.185l.02-.03c1.37-2.18.616-4.546-1.97-6.173l-4.322-2.717-6.348 10.098 2.758 1.73 1.822-2.902.78.5-.003.02c-.088.69-.053 1.38.1 2.06.434 1.9 1.405 3.17 3.05 4l1.49-2.37c-.923-.46-1.59-1.01-1.848-2.14-.015-.06-.023-.13-.032-.19l-.006-.05.04.01c.37.087.74.13 1.09.13 1.4 0 2.57-.674 3.37-1.953zm-2.818-1.63l-.018.03c-.29.463-.742.717-1.266.717-.383 0-.807-.137-1.225-.398l-1.36-.855.02-.04 1.71-2.72 1.35.85c.52.33.85.7.99 1.11.15.42.08.85-.19 1.29zM67.39 7.93l-.01-.035c-.872-2.424-3.2-3.29-6.073-2.262L56.5 7.358l4.025 11.225 3.063-1.098-1.157-3.225.87-.312.02.014c.49.494 1.05.893 1.68 1.19 1.76.83 3.36.85 5.03.067l-.94-2.64c-.94.43-1.78.62-2.82.13-.06-.03-.114-.06-.174-.1l-.042-.03.04-.036c.3-.24.56-.5.775-.778.87-1.104 1.056-2.44.547-3.858zm-3.024 1.21l.015.034c.19.516.11 1.023-.21 1.438-.23.303-.6.55-1.07.717l-1.51.54-.01-.04-1.08-3.02 1.5-.54c.575-.208 1.075-.24 1.48-.1.427.147.726.468.9.954zm7.792 40.214v-.02c.006-1.556-1.137-2.522-2.975-2.528l-3.077-.012-.023 7.188 1.962.006.006-2.064h.56v.012c.18.38.42.723.71 1.02.83.832 1.73 1.172 2.84 1.07l.01-1.686c-.62.057-1.13-.012-1.62-.506-.025-.03-.053-.06-.078-.092l-.02-.02.027-.013c.215-.08.414-.17.594-.29.717-.45 1.1-1.17 1.1-2.08zm-1.96.066v.02c-.004.33-.15.604-.42.77-.196.123-.456.188-.753.188l-.97-.004v-.02l.007-1.932.96.004c.368 0 .66.084.862.25.208.168.313.412.313.724zm38.328 85.24v-.022c.006-1.553-1.137-2.52-2.975-2.527l-3.07-.01-.02 7.19 1.96.01.01-2.06h.56l.01.01c.17.38.41.73.71 1.02.826.84 1.73 1.18 2.835 1.07l.01-1.68c-.62.06-1.137-.01-1.626-.5-.028-.03-.055-.06-.08-.093l-.02-.02.03-.01c.215-.074.415-.17.595-.28.72-.45 1.1-1.167 1.1-2.075zm-1.962.065v.02c0 .33-.15.604-.418.77-.194.123-.457.188-.754.186h-.97v-.02l.007-1.93.96.01c.36 0 .65.09.86.25.21.17.31.42.31.73zm-67.857 28.797l.047.02c.586.252 1.17.38 1.73.38 1.082 0 2.042-.454 2.86-1.35l.024-.022c1.693-1.85 1.383-4.25-.808-6.26l-3.667-3.355-7.842 8.562 2.34 2.14 2.26-2.46.03.02.64.587-.01.02c-.2.64-.29 1.31-.26 1.988.088 1.89.79 3.277 2.22 4.357l1.84-2.01c-.8-.61-1.34-1.25-1.39-2.38 0-.07 0-.13.004-.2v-.05zm-.242-3.105l-1.157-1.06.023-.026 2.11-2.3.03.03 1.12 1.03c.44.4.7.82.76 1.24.07.43-.08.84-.41 1.21l-.02.025c-.3.32-.66.49-1.06.49-.454 0-.93-.21-1.38-.62zm53.28-112.97l2.554 2.555-2.56 2.554L89.19 50zm-.012 85.718l2.554 2.553-2.554 2.555-2.554-2.553z" fill="#CCCECF"/></svg>