<svg xmlns="http://www.w3.org/2000/svg" width="183.694" height="185.37" viewBox="0 0 183.694 185.37"><path d="M148.502 68.557l-.695-1.865h-25.71c-7.156 0-13.66 2.848-18.44 7.467-1.512.75-5.432 1.74-11.3 1.74-5.864 0-9.784-.99-11.298-1.744-4.79-4.617-11.29-7.47-18.45-7.47H36.9l-.694 1.866c-.238.645-1.43 3.967-1.322 6.207.044.95.292 1.812.533 2.65.274.95.557 1.94.64 3.296.223 3.6.13 8.103.05 10.51-.01.076-.007.154-.01.23-.04.604-.07 1.21-.07 1.824 0 14.66 11.927 26.586 26.585 26.586 14.66 0 26.584-11.927 26.584-26.585 0-3.16-.557-6.2-1.576-9.01 1.323-.84 2.864-1.31 4.464-1.31 1.787 0 3.495.574 4.906 1.61-.95 2.73-1.477 5.66-1.477 8.712 0 14.66 11.928 26.585 26.585 26.585 14.66 0 26.585-11.926 26.585-26.584 0-.61-.027-1.212-.068-1.815-.006-.076-.003-.158-.01-.238-.078-2.407-.173-6.91.048-10.513.085-1.363.368-2.346.642-3.3.242-.833.49-1.696.533-2.645.105-2.24-1.086-5.56-1.326-6.207zM40.256 71.954h4.205v2.484h-4.2v-2.484zm22.355 42.17c-11.48 0-20.82-9.327-20.842-20.804.01-.21.035-.787.062-1.617l.03-.38c.013-.147.03-.292.046-.438.023-.195.047-.393.076-.588.02-.145.044-.29.068-.434.03-.19.06-.375.1-.56.03-.157.062-.312.098-.466.03-.164.072-.328.11-.492.042-.176.09-.35.136-.523.038-.133.07-.262.11-.393.06-.21.125-.418.19-.62l.088-.25c.085-.25.174-.498.265-.738.013-.027.022-.055.033-.08 2.695-6.896 8.982-12.01 16.44-13.102.034-.005.063-.007.096-.013.288-.04.58-.078.875-.107l.375-.03c.206-.014.41-.033.624-.04.34-.02.683-.027 1.027-.027 11.498 0 20.85 9.354 20.85 20.85 0 11.494-9.35 20.85-20.85 20.85zm59.49 0c-11.492 0-20.85-9.354-20.85-20.85 0-11.495 9.357-20.85 20.85-20.85.346 0 .69.01 1.03.028.208.008.417.027.626.043.123.01.25.018.374.03.29.028.582.063.873.104.03 0 .063.002.093.01 7.457 1.09 13.738 6.2 16.44 13.084.01.034.024.07.036.103.09.236.178.477.26.717l.09.27c.07.198.128.4.188.6.04.136.08.272.117.41.044.167.088.335.13.503.04.174.082.346.118.518.033.147.063.294.093.44.038.195.073.39.106.588l.06.404c.03.206.058.413.08.62l.046.41c.012.13.02.264.03.396.028.825.052 1.4.063 1.608-.027 11.48-9.37 20.808-20.85 20.808zm22.36-39.686h-4.205v-2.484h4.206v2.484zm-22.136 21.15c-3.53 0-6.853-1.38-9.353-3.88l-3.562 3.56c3.454 3.456 8.04 5.358 12.916 5.358s9.466-1.902 12.92-5.357l-3.562-3.568c-2.5 2.502-5.82 3.88-9.355 3.88zm-59.237 0c-3.53 0-6.854-1.38-9.355-3.88l-3.563 3.56c3.454 3.456 8.042 5.358 12.92 5.358S72.546 98.724 76 95.27l-3.563-3.563c-2.5 2.502-5.824 3.88-9.355 3.88zm-41.948 39.51l-1.804-3.4-1.806.96 1.634 3.083-2.382 1.27-1.634-3.086-4.246 2.25-1.49-2.81 10.818-5.734 3.293 6.212-2.38 1.26zm6.8 6.042c1.054.468 1.953 1.16 2.695 2.077.744.916 1.235 1.94 1.476 3.07.24 1.13.18 2.248-.173 3.358-.355 1.11-1 2.043-1.934 2.8-1.54 1.247-3.2 1.773-4.98 1.58-1.78-.195-3.29-1.058-4.53-2.59-1.24-1.53-1.773-3.187-1.594-4.97.18-1.78 1.037-3.296 2.576-4.544.934-.75 1.98-1.19 3.14-1.31s2.265.06 3.32.53zm1.075 6.526c.076-.938-.183-1.774-.775-2.506-.595-.73-1.357-1.158-2.29-1.28-.936-.12-1.735.09-2.4.627-.807.654-1.27 1.463-1.39 2.424s.122 1.82.73 2.57c.605.748 1.392 1.164 2.356 1.246s1.854-.204 2.66-.858c.665-.54 1.036-1.278 1.11-2.216zm33.66 22.626l-3.606 8.84-2.947-1.202 3.608-8.84-2.435-.995 1.02-2.496 7.816 3.19-1.02 2.49-2.433-.993zm10.457 5.348l4.504.92.942-4.632 3.118.635-2.444 11.998-3.12-.63 1.003-4.916-4.503-.92-1.002 4.92-3.12-.637 2.446-11.998 3.12.635-.942 4.63zm21.477.182l-3.784-.062-.035 2.046 3.588.058-.044 2.695-3.59-.06-.034 2.11 3.782.06-.043 2.693-6.968-.113.2-12.242 6.967.112-.044 2.698zm23.824 5.758l-4.71 1.364-3.404-11.762 4.368-1.265c2.33-.675 3.79.008 4.38 2.046.337 1.165.138 2.09-.6 2.777l.01.03c1.66-.255 2.75.513 3.27 2.3.17.594.2 1.143.09 1.648-.115.506-.34.94-.68 1.305s-.737.672-1.188.926c-.45.25-.96.46-1.532.63zm-4.38-8.943l.66 2.277.343-.1c.497-.145.875-.338 1.132-.582.255-.243.32-.588.19-1.035-.076-.26-.187-.457-.33-.59-.148-.132-.33-.203-.546-.214-.218-.01-.412 0-.585.025-.173.027-.39.08-.65.153l-.22.07zm1.32 4.555l.73 2.527.39-.12.507-.145s.255-.086.498-.18c.245-.093.42-.183.524-.27.104-.086.225-.196.36-.332.135-.136.215-.29.24-.46.02-.17.005-.358-.056-.567-.045-.155-.102-.29-.17-.406-.066-.116-.15-.204-.253-.265l-.275-.165s-.2-.07-.35-.066c-.15.003-.266.003-.347-.003-.08 0-.21.017-.395.06-.185.043-.306.07-.362.088l-.38.11-.345.1-.31.09zm20.39-5.112l-3.89 2.024.232 2.276-2.997 1.56-1.476-13.036 3.083-1.604 9.744 8.733-3.01 1.567-1.687-1.52zm-1.888-1.764l-2.953-2.857-.03.01.63 4.063 2.35-1.222zM146.5 167.9l-7.73-9.497 3.502-2.85c1.327-1.08 2.837-1.545 4.53-1.395 1.692.15 3.08.89 4.158 2.216 1.08 1.327 1.522 2.834 1.326 4.522-.198 1.688-.96 3.072-2.286 4.152l-3.502 2.85zm-3.56-9.415l4.327 5.314.556-.457c.79-.643 1.26-1.396 1.415-2.262s-.127-1.737-.845-2.62c-.677-.83-1.454-1.28-2.333-1.347-.878-.067-1.725.23-2.538.894l-.58.473zm15.823-11.8l3.968-4.917c.813.684 1.456 1.317 1.93 1.902.475.584.825 1.288 1.05 2.11.527 1.9.094 3.713-1.3 5.44-1.21 1.498-2.663 2.345-4.355 2.537-1.692.19-3.284-.314-4.775-1.518-1.54-1.25-2.397-2.73-2.568-4.44s.365-3.335 1.61-4.877c.802-.994 1.722-1.677 2.76-2.05 1.04-.372 2.163-.403 3.374-.094l-.91 3.146c-.615-.204-1.2-.238-1.756-.103-.555.137-1.03.45-1.424.938-.62.77-.806 1.617-.557 2.55.25.933.77 1.72 1.56 2.356.79.64 1.67.974 2.63 1.007.963.03 1.757-.34 2.38-1.115.45-.56.678-1.13.684-1.727.007-.593-.235-1.13-.725-1.61l-1.634 2.023-1.946-1.568zm8.144-17.845l-1.775 3.34 1.806.962 1.688-3.17 2.38 1.268-1.686 3.17 1.865.99 1.776-3.34 2.38 1.266-3.272 6.15-10.81-5.75 3.27-6.15 2.38 1.264zM5.287 76.985l.957-4.495-4.62-.985.662-3.113 11.976 2.553-.66 3.113-4.91-1.046-.956 4.495 4.907 1.046-.663 3.112L0 79.112.664 76l4.62.985zm.972-19.647l11.374 4.525-1.177 2.958L5.08 60.3l1.178-2.957zm14.06-1.423l-10.55-6.22 2.475-4.196c.698-1.19 1.536-1.95 2.514-2.3.98-.35 2.05-.18 3.22.51 2.387 1.41 2.846 3.353 1.38 5.842l-.918 1.553 3.498 2.06-1.616 2.744zm-6.72-7.66l2.63 1.552.27-.46c.154-.263.27-.462.344-.6.075-.14.15-.326.23-.563s.103-.432.08-.584c-.024-.152-.097-.317-.218-.495s-.308-.342-.56-.49c-.26-.154-.5-.244-.716-.27s-.4-.018-.552.03c-.154.047-.31.16-.47.335s-.29.333-.384.472-.222.344-.38.614l-.272.46zm11.39-18.61l1.037 2.574c-.835.13-1.5.49-1.996 1.06-.22.25-.353.55-.402.884-.05.337.046.608.283.813.165.142.37.202.618.18.25-.02.45-.07.6-.146.153-.075.35-.187.593-.335l.717-.455c.835-.535 1.62-.835 2.36-.9.732-.063 1.45.206 2.143.81 1.122.97 1.676 2.01 1.663 3.116-.015 1.19-.482 2.32-1.404 3.382-1.008 1.16-2.298 1.94-3.874 2.337l-1.05-2.71c1.27-.175 2.205-.61 2.81-1.306.27-.31.424-.65.466-1.024.043-.37-.087-.686-.39-.95-.418-.36-1.078-.252-1.98.327-.03.018-.143.09-.34.22-.507.335-.923.584-1.248.746-.328.163-.697.287-1.11.374-.41.087-.81.057-1.197-.092s-.796-.41-1.23-.787c-.933-.808-1.424-1.757-1.476-2.847-.05-1.09.328-2.1 1.136-3.036.404-.466.904-.903 1.5-1.31.596-.41 1.186-.718 1.77-.928zm11.08-7.34l6.067 7.374-2.458 2.02-6.07-7.378-2.03 1.67-1.714-2.08 6.52-5.366L38.1 20.63l-2.03 1.672zm13.965-9.195l-3.273 1.9 1.026 1.77 3.102-1.802 1.353 2.332-3.104 1.8 1.06 1.827 3.276-1.898 1.353 2.33L48.8 24.86 42.66 14.27l6.025-3.495 1.353 2.33zm42.58-3.005l-4.384.1-.792 2.147-3.378.078L88.486.08 91.96 0l4.893 12.136-3.394.078-.85-2.11zM91.7 7.69l-1.39-3.87h-.033l-1.225 3.93 2.646-.06zm10.456 5.04l2.11-12.064 4.8.84c1.354.237 2.365.752 3.035 1.545.67.796.89 1.86.656 3.19-.478 2.73-2.14 3.848-4.987 3.35l-1.777-.31-.7 3.997-3.134-.548zm4.804-8.987l-.53 3.007.53.093c.3.052.525.09.68.11.157.022.36.028.608.017.25-.01.44-.053.573-.13.138-.074.268-.2.39-.375s.215-.408.265-.696c.053-.3.053-.56.002-.77-.05-.21-.125-.38-.224-.51s-.26-.235-.48-.323c-.22-.09-.41-.153-.573-.193-.165-.04-.4-.086-.71-.14l-.53-.092zm9.93 12.175l4.32-11.46 4.56 1.72c1.286.485 2.185 1.18 2.694 2.083s.525 1.99.048 3.258c-.978 2.59-2.82 3.38-5.523 2.36l-1.69-.638-1.435 3.797-2.98-1.12zm6.394-7.935l-1.077 2.857.5.19c.284.106.5.185.65.235s.346.093.593.128c.25.036.445.028.59-.02.148-.05.298-.15.45-.3.157-.15.286-.36.39-.635.106-.282.155-.532.145-.75-.01-.22-.052-.4-.125-.542-.074-.143-.212-.28-.412-.407-.2-.128-.378-.227-.53-.296-.153-.07-.377-.16-.67-.27l-.503-.19zm31.89 16.796c1.1.35 2.072.934 2.912 1.762.84.828 1.443 1.79 1.808 2.886.363 1.096.432 2.215.202 3.357-.23 1.14-.765 2.14-1.608 2.996-1.393 1.41-2.983 2.12-4.774 2.126-1.792.005-3.39-.684-4.792-2.067-1.404-1.383-2.116-2.97-2.137-4.76-.02-1.79.664-3.394 2.055-4.805.843-.856 1.834-1.407 2.973-1.65 1.137-.248 2.257-.197 3.36.15zm1.798 6.363c-.03-.94-.38-1.743-1.05-2.404s-1.48-1-2.42-1.016c-.942-.016-1.713.28-2.313.89-.73.74-1.1 1.594-1.116 2.563-.012.97.325 1.79 1.012 2.466s1.513 1 2.48.975c.97-.027 1.817-.41 2.547-1.15.6-.61.885-1.384.855-2.326zm12.027 8.9l-4.63 6.53 7.854-1.56 1.884 2.9L160.99 50.2l-1.343-2.07 7.465-10.987 1.884 2.9zm8.48 22.048l-1.44-3.5-1.896.78 1.366 3.32-2.492 1.026-1.365-3.32-1.952.804 1.44 3.5-2.49 1.026-2.65-6.443 11.323-4.66 2.65 6.44-2.49 1.028zm-6.84 9.65l11.99-2.49.92 4.42c.35 1.675.063 3.23-.85 4.66s-2.207 2.327-3.88 2.676-3.216.045-4.624-.906c-1.41-.95-2.287-2.263-2.636-3.937l-.915-4.42zm9.996 1.174l-6.71 1.395.145.7c.208.996.66 1.762 1.358 2.297.696.534 1.6.686 2.714.455 1.05-.22 1.806-.7 2.27-1.45.464-.75.59-1.638.375-2.666l-.154-.733zM61.134 48.344v5.687H59.24v-5.68h-1.567v-1.61h5.03v1.604h-1.568zm14.632 5.686v-7.29h2.688c1.02 0 1.89.352 2.615 1.058s1.085 1.568 1.085 2.587-.362 1.88-1.088 2.586c-.727.71-1.598 1.06-2.616 1.06h-2.687zm1.895-5.686v4.08h.428c.606 0 1.107-.17 1.504-.512s.6-.85.6-1.527c0-.64-.19-1.138-.57-1.5-.38-.36-.885-.54-1.51-.54h-.445zm23.35 5.686l1.24-7.29h1.865l1.48 3.897 1.565-3.898h1.882l1.104 7.29h-1.896l-.53-4.2h-.02l-1.75 4.196h-.755l-1.673-4.196h-.02l-.61 4.197h-1.883zm24.23-4.283l2.295-3.007h2.35l-2.9 3.453 3.162 3.84h-2.456l-2.447-3.163h-.02v3.162h-1.895V46.74h1.896v3.007h.018zm-5.57-.393v-.02c.007-1.556-1.133-2.522-2.974-2.528l-3.077-.012-.024 7.188 1.96.006.007-2.064h.558l.004.012c.17.38.41.723.708 1.02.827.832 1.73 1.172 2.835 1.07l.003-1.686c-.618.057-1.134-.012-1.626-.506l-.08-.092-.016-.02.026-.013c.22-.078.42-.17.6-.287.718-.45 1.098-1.166 1.1-2.074zm-1.96.066v.02c0 .33-.15.604-.42.77-.193.123-.455.188-.752.188l-.97-.004v-.02l.007-1.932.96.004c.368 0 .66.084.862.25.21.168.313.412.313.724zm-63.56 89.918v-7.29h1.9l3.47 4.456h.02v-4.457h1.896v7.29H59.54l-3.473-4.467h-.02v4.468h-1.895zm13.116-7.064c.612-.312 1.27-.47 1.973-.47.7 0 1.36.157 1.972.47.616.312 1.11.76 1.49 1.34.38.58.57 1.23.57 1.943 0 1.18-.38 2.146-1.134 2.896s-1.723 1.127-2.896 1.127c-1.176 0-2.14-.376-2.898-1.127s-1.136-1.717-1.136-2.896c0-.715.19-1.363.57-1.943.38-.58.877-1.028 1.49-1.34zm3.423 1.95c-.407-.388-.89-.58-1.45-.58-.563 0-1.046.192-1.45.58s-.61.833-.61 1.343c0 .62.2 1.137.6 1.553.4.415.886.623 1.46.623.573 0 1.06-.208 1.46-.623.4-.416.6-.934.6-1.553 0-.51-.205-.957-.61-1.344zm9.26-.57v5.685h-1.894v-5.69H76.49v-1.607h5.028v1.605H79.95zm34.04-1.607v5.686h2.274v1.605h-4.168v-7.29h1.896zm6.79 3.79l-2.69-3.79h2.274l1.363 1.98 1.363-1.98h2.27l-2.688 3.79v3.5h-1.896v-3.5zM83.37 31.703h1.896v4.1c0 .594-.047 1.092-.14 1.495-.095.403-.302.763-.624 1.08-.55.54-1.354.81-2.418.81s-1.87-.27-2.418-.81c-.322-.317-.53-.676-.623-1.08-.094-.403-.14-.9-.14-1.494v-4.1h1.895v3.838c0 .234.005.427.015.58s.038.33.087.524c.048.193.116.348.203.464s.214.214.382.295.367.12.6.12.432-.04.6-.12c.167-.08.295-.18.382-.295s.154-.27.203-.464c.048-.194.077-.368.087-.522s.015-.347.015-.58v-3.838zm10.754.406l-.755 1.47c-.39-.327-.81-.488-1.26-.488-.2 0-.39.055-.56.165-.17.11-.256.255-.256.442 0 .13.053.244.16.347.104.105.205.176.3.215.092.04.22.083.38.135l.484.144c.567.168 1.01.406 1.324.71.316.308.475.735.475 1.283 0 .883-.25 1.538-.755 1.963-.54.455-1.23.684-2.07.684-.914 0-1.77-.276-2.56-.83l.81-1.53c.574.504 1.136.755 1.684.755.244 0 .46-.063.642-.19.184-.124.276-.307.276-.545 0-.33-.31-.583-.92-.764l-.23-.068c-.35-.097-.625-.187-.825-.27-.2-.085-.4-.203-.6-.354-.2-.15-.34-.344-.426-.577-.083-.23-.125-.52-.125-.86 0-.734.234-1.325.705-1.773s1.074-.673 1.81-.673c.367 0 .76.057 1.175.167.416.11.784.254 1.107.434zm8.566 5.62h-2.61l-.503 1.262h-2.012l2.805-7.292h2.07l2.745 7.293h-2.02l-.474-1.267zm-.51-1.45l-.774-2.327h-.02l-.783 2.32h1.576zM77.91 152.46h2.39v1.605h-5.86l2.98-3.24c.553-.605.83-1.2.83-1.788 0-.246-.08-.465-.236-.658-.158-.196-.356-.29-.595-.29-.25 0-.44.08-.58.25-.15.17-.22.38-.22.64 0 .1.01.203.03.31H74.56c.03-.848.3-1.527.807-2.04.507-.512 1.185-.77 2.036-.77.785 0 1.45.24 1.996.718.544.476.816 1.1.816 1.874 0 .49-.098.91-.288 1.256s-.488.706-.895 1.074l-1.13 1.052zm7.67-5.633c.404-.23.87-.344 1.39-.344.523 0 .987.115 1.394.344s.73.537.973.92c.24.385.424.804.546 1.258.122.455.184.928.184 1.417 0 .387-.037.766-.11 1.136-.075.37-.192.73-.354 1.07s-.36.64-.595.895c-.235.256-.528.46-.88.61-.352.15-.736.227-1.156.227-.42 0-.804-.074-1.155-.227-.352-.15-.645-.354-.88-.61-.235-.253-.434-.552-.595-.894s-.28-.7-.353-1.07c-.08-.37-.117-.75-.117-1.137 0-.49.06-.962.184-1.417.122-.455.305-.874.546-1.258.24-.384.565-.69.97-.92zm1.985 1.576c-.17-.164-.37-.246-.595-.246s-.424.084-.595.248-.298.373-.382.624-.144.49-.18.724-.052.45-.052.655.02.427.06.663c.034.233.094.48.18.733.082.256.21.466.38.63.17.165.37.247.595.247s.425-.083.596-.247c.17-.165.3-.375.383-.63.083-.254.143-.5.18-.733.034-.236.05-.457.05-.663s-.016-.423-.05-.655c-.037-.232-.097-.475-.18-.726-.084-.25-.21-.46-.383-.624zm8.225-.024h-1.044v-1.608h2.94v7.29H95.79v-5.685zm12.388 2.724h.88v1.45h-.88v1.51h-1.76v-1.51h-3.54v-1.21l2.814-4.573h2.485v4.333zm-1.76 0V148.3h-.02l-1.702 2.805h1.722zM175.925 100l1.58 3.202 3.532.51-2.556 2.494.61 3.52-3.16-1.663-3.16 1.662.604-3.52-2.557-2.492 3.535-.51zM9.938 100l1.58 3.202 3.53.51-2.555 2.494.605 3.52-3.16-1.663-3.16 1.662.603-3.52-2.55-2.492 3.53-.51zm133.73-79.185l.02-.03c1.37-2.18.616-4.546-1.97-6.173l-4.322-2.717-6.348 10.098 2.758 1.73 1.822-2.902.78.498-.003.02c-.088.685-.053 1.376.1 2.058.434 1.897 1.405 3.167 3.05 3.995l1.49-2.37c-.923-.466-1.59-1.013-1.848-2.142-.015-.064-.023-.13-.032-.195l-.006-.05.04.01c.37.088.74.13 1.09.13 1.406 0 2.57-.673 3.373-1.952zm-2.818-1.63l-.018.03c-.29.463-.742.717-1.266.717-.383 0-.807-.137-1.225-.398l-1.36-.855.02-.037 1.708-2.715 1.35.85c.518.33.85.7.992 1.11.145.42.08.857-.196 1.294zM67.39 7.93l-.01-.035c-.872-2.424-3.2-3.29-6.073-2.262L56.5 7.358l4.025 11.225 3.063-1.098-1.157-3.225.87-.312.02.014c.482.494 1.05.893 1.68 1.19 1.758.83 3.357.85 5.024.067l-.944-2.64c-.94.437-1.78.62-2.826.13-.06-.027-.113-.06-.173-.094l-.042-.025.038-.032c.3-.24.558-.5.775-.778.868-1.102 1.056-2.438.547-3.856zm-3.024 1.21l.015.034c.19.516.11 1.023-.212 1.438-.235.303-.606.55-1.07.717l-1.516.54-.012-.036-1.083-3.017 1.502-.54c.573-.204 1.073-.237 1.482-.095.424.146.723.467.9.953zm7.792 40.214v-.02c.006-1.556-1.137-2.522-2.975-2.528l-3.077-.012-.023 7.188 1.962.006.006-2.064h.56v.012c.18.38.417.723.71 1.02.83.832 1.73 1.172 2.838 1.07l.004-1.686c-.62.057-1.135-.012-1.627-.506-.024-.03-.052-.06-.077-.092l-.02-.02.027-.013c.218-.078.417-.17.597-.287.716-.45 1.1-1.166 1.1-2.074zm-1.96.066v.02c-.004.33-.15.604-.42.77-.196.123-.456.188-.753.188l-.97-.004v-.02l.007-1.932.96.004c.368 0 .66.084.862.25.208.168.313.412.313.724zm38.328 85.24v-.022c.006-1.553-1.137-2.52-2.975-2.527l-3.07-.01-.024 7.19 1.962.006.006-2.06h.558l.007.01c.17.382.41.724.707 1.02.825.833 1.73 1.173 2.834 1.07l.007-1.685c-.62.057-1.136-.012-1.625-.506-.027-.03-.054-.06-.08-.092l-.02-.02.03-.01c.216-.075.416-.17.596-.28.72-.45 1.1-1.168 1.1-2.076zm-1.962.065v.02c0 .33-.15.604-.418.77-.194.123-.457.188-.754.186h-.97v-.02l.007-1.93.96.006c.362 0 .653.085.86.25.21.168.31.413.31.725zm-67.857 28.797l.047.02c.586.252 1.17.38 1.73.38 1.082 0 2.042-.454 2.86-1.35l.024-.022c1.693-1.85 1.383-4.25-.808-6.26l-3.667-3.355-7.842 8.562 2.34 2.14 2.257-2.46.024.02.64.587-.01.02c-.204.64-.292 1.31-.263 1.988.086 1.89.79 3.277 2.22 4.357l1.842-2.01c-.803-.61-1.344-1.25-1.395-2.38 0-.065 0-.13.005-.192v-.05zm-.242-3.105l-1.157-1.06.023-.026 2.11-2.3.03.026 1.12 1.028c.438.4.694.817.76 1.235.064.43-.08.835-.416 1.206l-.02.025c-.3.32-.666.49-1.066.49-.456 0-.933-.212-1.378-.62zm53.28-112.97l2.554 2.555-2.56 2.554L89.19 50zm-.012 85.718l2.554 2.553-2.554 2.555-2.554-2.553z" fill="#CCCECF"/></svg>