<?xml version="1.0" encoding="utf-8"?>
<!-- Generator: Adobe Illustrator 16.0.0, SVG Export Plug-In . SVG Version: 6.00 Build 0)  -->
<!DOCTYPE svg PUBLIC "-//W3C//DTD SVG 1.1//EN" "http://www.w3.org/Graphics/SVG/1.1/DTD/svg11.dtd">
<svg version="1.1" id="Layer_1" xmlns="http://www.w3.org/2000/svg" xmlns:xlink="http://www.w3.org/1999/xlink" x="0px" y="0px"
	 width="21.543px" height="21.541px" viewBox="0 0 21.543 21.541" enable-background="new 0 0 21.543 21.541" xml:space="preserve">
<path fill="#D5D6D6" d="M20.996,17.875l-4.895-4.895c0.74-1.286,1.131-2.747,1.131-4.238C17.232,4.085,13.148,0,8.49,0
	C3.809,0,0,3.808,0,8.489c0,4.657,4.086,8.742,8.742,8.742c1.44,0,2.855-0.366,4.107-1.06l4.926,4.925
	c0.285,0.286,0.666,0.444,1.072,0.444c0.404,0,0.785-0.158,1.072-0.444l1.256-1.255c0.24-0.24,0.367-0.529,0.367-0.836
	C21.543,18.623,21.354,18.232,20.996,17.875z M8.49,3.035c2.987,0,5.707,2.72,5.707,5.707c0,3.008-2.447,5.455-5.455,5.455
	c-2.986,0-5.707-2.721-5.707-5.708C3.035,5.482,5.482,3.035,8.49,3.035z"/>
</svg>
