<?xml version="1.0" encoding="utf-8"?>
<!-- Generator: Adobe Illustrator 16.0.0, SVG Export Plug-In . SVG Version: 6.00 Build 0)  -->
<!DOCTYPE svg PUBLIC "-//W3C//DTD SVG 1.1//EN" "http://www.w3.org/Graphics/SVG/1.1/DTD/svg11.dtd">
<svg version="1.1" id="Layer_1" xmlns="http://www.w3.org/2000/svg" xmlns:xlink="http://www.w3.org/1999/xlink" x="0px" y="0px"
	 width="21.042px" height="21.042px" viewBox="0 0 21.042 21.042" enable-background="new 0 0 21.042 21.042" xml:space="preserve">
<g>
	<g>
		<g>
			<path fill="#B7B9BB" d="M20.568,17.801l-5.032-5.031c0.759-1.248,1.196-2.711,1.196-4.278C16.732,3.942,12.789,0,8.239,0
				C3.688,0,0,3.689,0,8.239s3.942,8.492,8.492,8.492c1.513,0,2.931-0.409,4.148-1.121l5.06,5.061c0.495,0.494,1.298,0.494,1.792,0
				l1.256-1.256C21.243,18.92,21.063,18.296,20.568,17.801z M2.535,8.239c0-3.151,2.554-5.705,5.704-5.705s5.957,2.807,5.957,5.958
				c0,3.151-2.554,5.705-5.704,5.705C5.343,14.197,2.535,11.39,2.535,8.239z"/>
		</g>
	</g>
</g>
</svg>
