<svg xmlns="http://www.w3.org/2000/svg" width="21.543" height="21.541" viewBox="0 0 21.543 21.541"><path fill="#D5D6D6" d="M20.996 17.875L16.1 12.98c.74-1.286 1.132-2.747 1.132-4.238C17.232 4.085 13.148 0 8.49 0 3.81 0 0 3.808 0 8.49c0 4.656 4.086 8.74 8.742 8.74 1.44 0 2.855-.365 4.107-1.06l4.922 4.926c.285.286.666.444 1.072.444.404 0 .785-.158 1.072-.444l1.255-1.255c.24-.24.368-.525.368-.832 0-.382-.19-.773-.547-1.13zM8.49 3.035c2.987 0 5.707 2.72 5.707 5.707 0 3.008-2.447 5.455-5.455 5.455-2.986 0-5.707-2.72-5.707-5.708 0-3.01 2.447-5.458 5.455-5.458z"/></svg>