<svg xmlns="http://www.w3.org/2000/svg" width="37.233" height="15.263" viewBox="0 0 37.233 15.263"><path d="M0 7.657v-.11c0-.13.11-.304.218-.37L7.85 2.555c.284-.174.61 0 .61.35V4.8c0 .088-.086.263-.173.306L4.12 7.57l4.166 2.377c.087.043.174.218.174.304v1.9c0 .35-.327.524-.61.35L.217 8.028C.107 7.96 0 7.787 0 7.657zM19.357.283c.045-.152.22-.283.393-.283h2.138c.306 0 .48.24.392.545L18.027 14.98c-.043.152-.24.283-.392.283h-2.16c-.283 0-.48-.24-.392-.545L19.357.283zm9.416 9.967c0-.086.087-.26.174-.304l4.165-2.377L28.947 5.1c-.087-.043-.174-.218-.174-.305V2.903c0-.35.327-.523.61-.35l7.632 4.624c.11.065.218.24.218.37v.11c0 .13-.108.305-.218.37l-7.632 4.47c-.283.176-.61 0-.61-.348v-1.9z" fill="#fff"/></svg>