<svg xmlns="http://www.w3.org/2000/svg" width="37.233" height="15.263" viewBox="0 0 37.233 15.263"><path d="M0 7.656v-.108c0-.13.11-.306.218-.37L7.85 2.555c.284-.175.61 0 .61.35V4.8c0 .088-.086.263-.173.306L4.12 7.57l4.166 2.376c.087.044.174.218.174.306v1.896c0 .35-.327.523-.61.35L.217 8.028C.107 7.96 0 7.788 0 7.655zM19.357.283c.045-.152.22-.283.393-.283h2.138c.306 0 .48.24.392.545L18.03 14.98c-.044.152-.24.283-.393.283h-2.16c-.283 0-.48-.24-.392-.545L19.357.283zm9.416 9.97c0-.09.087-.263.174-.307l4.165-2.377-4.165-2.466c-.087-.043-.174-.218-.174-.305V2.902c0-.35.327-.523.61-.35l7.632 4.624c.11.064.218.24.218.37v.108c0 .13-.108.306-.218.37l-7.632 4.472c-.283.174-.61 0-.61-.35v-1.895z" fill="#26C7D5"/></svg>