<svg xmlns="http://www.w3.org/2000/svg" width="24.189" height="19.658" viewBox="0 0 24.189 19.658"><path fill="#D5D6D6" d="M24.19 2.327c-.892.396-1.848.66-2.853.782 1.025-.615 1.813-1.587 2.182-2.747-.958.568-2.02.98-3.15 1.203C19.463.604 18.172 0 16.745 0c-2.74 0-4.963 2.222-4.963 4.962 0 .39.044.77.13 1.13C7.79 5.888 4.13 3.913 1.685.91c-.43.733-.673 1.585-.673 2.494 0 1.722.876 3.24 2.207 4.13-.813-.024-1.58-.248-2.25-.62v.062c0 2.406 1.713 4.412 3.98 4.868-.413.114-.852.172-1.305.172-.32 0-.632-.03-.936-.088.63 1.97 2.467 3.407 4.637 3.446C5.65 16.708 3.51 17.5 1.183 17.5c-.4 0-.793-.024-1.183-.072 2.195 1.41 4.804 2.23 7.607 2.23 9.128 0 14.122-7.563 14.122-14.12 0-.217-.005-.43-.018-.644.97-.697 1.812-1.57 2.477-2.567z"/></svg>