<?xml version="1.0" encoding="utf-8"?>
<!-- Generator: Adobe Illustrator 16.0.0, SVG Export Plug-In . SVG Version: 6.00 Build 0)  -->
<!DOCTYPE svg PUBLIC "-//W3C//DTD SVG 1.1//EN" "http://www.w3.org/Graphics/SVG/1.1/DTD/svg11.dtd">
<svg version="1.1" id="Layer_1" xmlns="http://www.w3.org/2000/svg" xmlns:xlink="http://www.w3.org/1999/xlink" x="0px" y="0px"
	 width="24.189px" height="19.658px" viewBox="0 0 24.189 19.658" enable-background="new 0 0 24.189 19.658" xml:space="preserve">
<path fill="#D5D6D6" d="M24.189,2.327c-0.891,0.396-1.847,0.661-2.852,0.782c1.025-0.614,1.813-1.586,2.182-2.746
	c-0.957,0.568-2.019,0.981-3.15,1.203C19.464,0.604,18.173,0,16.746,0c-2.741,0-4.963,2.222-4.963,4.962
	c0,0.39,0.044,0.769,0.13,1.131C7.79,5.887,4.131,3.912,1.685,0.91C1.256,1.643,1.012,2.495,1.012,3.404
	c0,1.722,0.876,3.24,2.207,4.13C2.407,7.51,1.641,7.286,0.971,6.915c0,0.021,0,0.04,0,0.061c0,2.406,1.712,4.412,3.98,4.868
	c-0.414,0.114-0.853,0.172-1.306,0.172c-0.319,0-0.632-0.031-0.936-0.088c0.632,1.971,2.468,3.407,4.638,3.446
	C5.649,16.708,3.509,17.5,1.183,17.5C0.784,17.5,0.39,17.476,0,17.428c2.195,1.409,4.804,2.229,7.607,2.229
	c9.128,0,14.122-7.562,14.122-14.12c0-0.216-0.004-0.43-0.017-0.643C22.683,4.197,23.524,3.325,24.189,2.327z"/>
</svg>
