<?xml version="1.0" encoding="utf-8"?>
<!-- Generator: Adobe Illustrator 18.0.0, SVG Export Plug-In . SVG Version: 6.00 Build 0)  -->
<!DOCTYPE svg PUBLIC "-//W3C//DTD SVG 1.1//EN" "http://www.w3.org/Graphics/SVG/1.1/DTD/svg11.dtd">
<svg version="1.1" id="Layer_1" xmlns="http://www.w3.org/2000/svg" xmlns:xlink="http://www.w3.org/1999/xlink" x="0px" y="0px"
	 viewBox="0 0 230 35" enable-background="new 0 0 230 35" xml:space="preserve">
<path fill="#00C7FF" d="M0.1,0h151v35H0.1V0z"/>
<path fill="#FFFFFF" d="M15.1,13.2c0-0.1,0.1-0.1,0.1-0.1h1.5c0.1,0,0.2,0,0.2,0.1l2.2,4.9h0l2.1-4.9c0-0.1,0.1-0.1,0.2-0.1h1.5
	c0.1,0,0.1,0.1,0.1,0.1v8.3c0,0.1,0,0.1-0.1,0.1h-1.4c-0.1,0-0.1,0-0.1-0.1v-4.8h0l-1.6,3.6c0,0.1-0.1,0.2-0.2,0.2h-0.9
	c-0.1,0-0.2,0-0.2-0.2l-1.6-3.6h0v4.8c0,0.1,0,0.1-0.1,0.1h-1.4c-0.1,0-0.1,0-0.1-0.1L15.1,13.2L15.1,13.2z M30,13.2
	c0-0.1,0.1-0.1,0.2-0.1h1.6c0.1,0,0.1,0.1,0.2,0.1l2.9,8.3c0,0.1,0,0.1-0.1,0.1h-1.6c-0.1,0-0.1,0-0.2-0.1L32.4,20h-3l-0.5,1.5
	c0,0.1-0.1,0.1-0.2,0.1h-1.6c-0.1,0-0.1,0-0.1-0.1L30,13.2L30,13.2z M31.9,18.4l-1-3h0l-1,3H31.9z M38.8,13.2c0-0.1,0-0.1,0.1-0.1
	h1.6c0.1,0,0.1,0.1,0.1,0.1v3.7l2.8-3.7c0.1-0.1,0.1-0.1,0.2-0.1h1.8c0.1,0,0.1,0.1,0,0.2L43,16.5l2.8,5c0,0.1,0,0.1-0.1,0.1h-1.9
	c-0.1,0-0.1,0-0.2-0.1l-1.9-3.6l-1.1,1.4v2.2c0,0.1,0,0.1-0.1,0.1h-1.6c-0.1,0-0.1,0-0.1-0.1L38.8,13.2L38.8,13.2z M49.9,13.2
	c0-0.1,0-0.1,0.1-0.1h5.5c0.1,0,0.1,0.1,0.1,0.1v1.4c0,0.1,0,0.1-0.1,0.1h-3.7c0,0-0.1,0-0.1,0.1v1.7c0,0,0,0.1,0.1,0.1h3.1
	c0.1,0,0.1,0,0.1,0.1V18c0,0.1,0,0.1-0.1,0.1h-3.1c0,0-0.1,0-0.1,0.1v1.8c0,0,0,0.1,0.1,0.1h3.7c0.1,0,0.1,0,0.1,0.1v1.3
	c0,0.1,0,0.1-0.1,0.1H50c-0.1,0-0.1,0-0.1-0.1L49.9,13.2L49.9,13.2z M59.6,20.6c0,0-0.1-0.1,0-0.2l1-1.1c0-0.1,0.1-0.1,0.2,0
	c0.6,0.5,1.3,0.9,2.2,0.9c0.9,0,1.4-0.4,1.4-1c0-0.5-0.3-0.8-1.3-1l-0.5-0.1c-1.7-0.2-2.7-1.1-2.7-2.6c0-1.6,1.2-2.6,3-2.6
	c1.1,0,2.2,0.3,2.9,0.9c0.1,0.1,0.1,0.1,0,0.2l-0.8,1.1c-0.1,0.1-0.1,0.1-0.2,0c-0.7-0.4-1.3-0.7-2-0.7c-0.8,0-1.1,0.4-1.1,0.9
	c0,0.5,0.4,0.8,1.3,0.9l0.5,0.1c1.8,0.2,2.7,1,2.7,2.6s-1.1,2.7-3.4,2.7C61.6,21.8,60.3,21.2,59.6,20.6L59.6,20.6z M76.6,21.6
	c-0.1,0-0.1,0-0.1-0.1v-8.3c0-0.1,0.1-0.1,0.1-0.1h3.3c1.9,0,3,1.1,3,2.8c0,1.6-1.1,2.7-3,2.7h-1.5c-0.1,0-0.1,0-0.1,0.1v2.9
	c0,0.1-0.1,0.1-0.1,0.1L76.6,21.6L76.6,21.6z M81.1,15.8c0-0.7-0.5-1.2-1.2-1.2h-1.4c-0.1,0-0.1,0-0.1,0.1v2.2c0,0,0,0.1,0.1,0.1
	h1.4C80.6,17,81.1,16.5,81.1,15.8L81.1,15.8z M87.1,13.2c0-0.1,0.1-0.1,0.1-0.1h5.5c0.1,0,0.1,0.1,0.1,0.1v1.4
	c0,0.1-0.1,0.1-0.1,0.1H89c-0.1,0-0.1,0-0.1,0.1v1.7c0,0,0,0.1,0.1,0.1h3.1c0.1,0,0.1,0,0.1,0.1V18c0,0.1-0.1,0.1-0.1,0.1H89
	c-0.1,0-0.1,0-0.1,0.1v1.8c0,0,0,0.1,0.1,0.1h3.7c0.1,0,0.1,0,0.1,0.1v1.3c0,0.1-0.1,0.1-0.1,0.1h-5.5c-0.1,0-0.1,0-0.1-0.1
	L87.1,13.2L87.1,13.2z M97.2,19.7C97,19.1,97,18.6,97,17.3c0-1.3,0.1-1.8,0.2-2.3c0.4-1.4,1.6-2.1,3.1-2.1s2.7,0.7,3.1,2.1
	c0.2,0.6,0.2,1.1,0.2,2.3c0,1.3-0.1,1.8-0.2,2.3c-0.4,1.4-1.6,2.1-3.1,2.1S97.7,21.1,97.2,19.7L97.2,19.7z M101.7,19.2
	c0.1-0.3,0.1-0.7,0.1-1.8s0-1.5-0.1-1.8c-0.2-0.6-0.6-0.9-1.3-0.9c-0.7,0-1.2,0.4-1.3,0.9c-0.1,0.3-0.1,0.7-0.1,1.8s0,1.5,0.1,1.8
	c0.2,0.6,0.6,0.9,1.3,0.9C101,20.1,101.5,19.8,101.7,19.2L101.7,19.2z M108.2,21.6c-0.1,0-0.1,0-0.1-0.1v-8.3c0-0.1,0.1-0.1,0.1-0.1
	h3.3c1.9,0,3,1.1,3,2.8c0,1.6-1.1,2.7-3,2.7H110c-0.1,0-0.1,0-0.1,0.1v2.9c0,0.1-0.1,0.1-0.1,0.1L108.2,21.6L108.2,21.6z
	 M112.7,15.8c0-0.7-0.5-1.2-1.2-1.2H110c-0.1,0-0.1,0-0.1,0.1v2.2c0,0,0,0.1,0.1,0.1h1.4C112.2,17,112.7,16.5,112.7,15.8L112.7,15.8
	z M118.7,13.2c0-0.1,0.1-0.1,0.1-0.1h1.6c0.1,0,0.1,0.1,0.1,0.1v6.7c0,0,0,0.1,0.1,0.1h3.8c0.1,0,0.1,0,0.1,0.1v1.4
	c0,0.1-0.1,0.1-0.1,0.1h-5.6c-0.1,0-0.1,0-0.1-0.1L118.7,13.2L118.7,13.2z M128.7,13.2c0-0.1,0.1-0.1,0.1-0.1h5.5
	c0.1,0,0.1,0.1,0.1,0.1v1.4c0,0.1-0.1,0.1-0.1,0.1h-3.7c-0.1,0-0.1,0-0.1,0.1v1.7c0,0,0,0.1,0.1,0.1h3.1c0.1,0,0.1,0,0.1,0.1V18
	c0,0.1-0.1,0.1-0.1,0.1h-3.1c-0.1,0-0.1,0-0.1,0.1v1.8c0,0,0,0.1,0.1,0.1h3.7c0.1,0,0.1,0,0.1,0.1v1.3c0,0.1,0,0.1-0.1,0.1h-5.5
	c-0.1,0-0.1,0-0.1-0.1L128.7,13.2L128.7,13.2z"/>
<path fill="#009FEF" d="M150.5,0H230v35h-79.5V0z"/>
<path fill="#FFFFFF" d="M164.8,19.8l1.4-1.6c0.9,0.7,1.8,1.1,2.9,1.1c0.7,0,1-0.2,1-0.6v0c0-0.4-0.3-0.6-1.5-0.8
	c-1.9-0.4-3.3-1-3.3-2.8v0c0-1.6,1.3-2.8,3.4-2.8c1.5,0,2.7,0.4,3.6,1.2L171,15c-0.8-0.6-1.7-0.9-2.5-0.9c-0.6,0-0.9,0.3-0.9,0.6v0
	c0,0.4,0.3,0.6,1.5,0.9c2,0.4,3.3,1.1,3.3,2.7v0c0,1.8-1.4,2.9-3.6,2.9C167.4,21.2,165.9,20.7,164.8,19.8L164.8,19.8z M176.7,12.3
	h2.6l2.1,3.4l2.1-3.4h2.6v8.8h-2.4V16l-2.3,3.5h-0.1l-2.2-3.4v5h-2.4L176.7,12.3L176.7,12.3z M190.7,12.3h2.5v8.8h-2.5V12.3
	L190.7,12.3z M197.7,12.3h2.4v6.7h4.3v2.1h-6.7L197.7,12.3L197.7,12.3z M208.5,12.3h7.1v2.1h-4.7v1.3h4.2v1.9h-4.2V19h4.7v2.1h-7.2
	L208.5,12.3L208.5,12.3z"/>
</svg>
