<svg xmlns="http://www.w3.org/2000/svg" width="76.965" height="88.87" viewBox="0 0 76.965 88.87"><path fill="#44484D" d="M0 22.217L38.482 0l38.483 22.217v44.436L38.482 88.87 0 66.653z"/><path fill="#fff" d="M21.096 32.4c0-.217.144-.36.358-.36H41.43c.218 0 .36.144.36.36v1.975c0 .215-.143.36-.36.36H24.22c-.143 0-.215.07-.215.215v10.846c0 .145.072.216.216.216h7.09c.216 0 .36.144.36.36v1.975c0 .216-.145.36-.36.36h-7.09c-.143 0-.215.07-.215.215v7.187c0 .215-.143.358-.36.358h-2.19c-.215 0-.358-.144-.358-.36V32.4zM44.553 32.4c0-.217.144-.36.358-.36h4.636c4.238 0 6.072 1.833 6.072 6.287 0 3.054-1.043 4.562-2.84 5.353v.07c1.832.576 3.09 2.23 3.09 5.713 0 5.245-2.12 7.005-6.68 7.005H44.91c-.214 0-.357-.144-.357-.36V32.4zm4.85 10.202c2.3 0 3.268-.862 3.268-3.916 0-3.125-.86-3.952-3.34-3.952h-1.65c-.146 0-.218.072-.218.216v7.436c0 .144.072.215.217.215H49.4zm-1.724 11.172h1.615c2.657 0 3.628-.97 3.628-4.348 0-3.27-1.04-4.274-3.52-4.274h-1.725c-.145 0-.217.07-.217.216v8.19c.002.144.074.216.22.216zM35.948 56.83c-.216 0-.36-.144-.36-.36V42.105c0-.144-.07-.216-.216-.216H28.63c-.216 0-.36-.144-.36-.36v-1.975c0-.216.145-.36.36-.36h12.623c.215 0 .358.145.358.36v1.975c0 .216-.143.36-.357.36h-2.54c-.144 0-.214.072-.214.216V56.47c0 .217-.146.36-.36.36h-2.192zM29.524 52.47l.668 1.293 1.435.234-1.023 1.033.22 1.438-1.3-.654-1.298.654.22-1.438-1.023-1.033 1.435-.234z"/></svg>