<svg xmlns="http://www.w3.org/2000/svg" width="474.62" height="18.521" viewBox="0 0.001 474.62 18.521" enable-background="new 0 0.001 474.62 18.521"><path d="M1.116 2.698H7.58c1.584 0 2.7.396 3.44 1.134.503.505.81 1.17.81 2.035v.036c0 1.458-.83 2.322-1.946 2.81 1.53.503 2.503 1.367 2.503 3.078v.04c0 2.16-1.765 3.477-4.77 3.477h-6.5V2.697zm5.6 5.023c1.062 0 1.657-.36 1.657-1.093V6.59c0-.685-.54-1.08-1.584-1.08H4.52v2.21h2.196zm.504 4.777c1.062 0 1.674-.414 1.674-1.152v-.035c0-.686-.54-1.136-1.71-1.136H4.52v2.322h2.7zM27.344 2.61h3.367l5.37 12.69h-3.75l-.915-2.25h-4.86l-.9 2.25H21.98l5.363-12.69zm3.06 7.722L29 6.75l-1.422 3.583h2.827zM46.296 2.7h4.86c4.502 0 7.113 2.593 7.113 6.23v.035c0 3.637-2.65 6.338-7.19 6.338h-4.79V2.7zm4.915 9.506c2.09 0 3.48-1.152 3.48-3.188V8.98c0-2.016-1.385-3.186-3.474-3.186h-1.42v6.41h1.42zm17.428-3.17V9c0-3.674 2.88-6.555 6.788-6.555 2.215 0 3.78.684 5.114 1.836l-2.054 2.47c-.9-.752-1.8-1.184-3.043-1.184-1.817 0-3.222 1.53-3.222 3.457v.036c0 2.034 1.425 3.492 3.42 3.492.85 0 1.497-.18 2.02-.522V10.5h-2.49V7.94h5.8v5.673c-1.334 1.097-3.188 1.94-5.475 1.94-3.925 0-6.86-2.7-6.86-6.516zM91.908 2.7h10.137v2.97h-6.68v1.91h6.05v2.754h-6.05v2h6.77v2.97H91.908V2.698zm20.052 10.73l1.944-2.322c1.243.99 2.63 1.513 4.087 1.513.94 0 1.44-.322 1.44-.862v-.036c0-.523-.41-.812-2.12-1.207-2.682-.61-4.752-1.37-4.752-3.96v-.037c0-2.34 1.854-4.033 4.88-4.033 2.142 0 3.816.577 5.185 1.676l-1.747 2.467c-1.15-.81-2.412-1.242-3.528-1.242-.847 0-1.26.36-1.26.813v.036c0 .575.43.827 2.178 1.223 2.9.63 4.7 1.566 4.7 3.926v.037c0 2.573-2.035 4.103-5.096 4.103-2.23 0-4.357-.703-5.905-2.09zM147.636 2.7h10.083v3.06h-6.59v2.144h5.96V10.8h-5.96v4.5h-3.5V2.7zm20.232 6.337V9c0-3.62 2.917-6.555 6.806-6.555s6.77 2.898 6.77 6.518V9c0 3.618-2.917 6.553-6.806 6.553s-6.77-2.898-6.77-6.518zm10.01 0V9c0-1.82-1.313-3.404-3.24-3.404-1.908 0-3.187 1.55-3.187 3.367V9c0 1.817 1.32 3.402 3.23 3.402 1.926 0 3.204-1.548 3.204-3.367zm14.38-6.337h5.96c1.925 0 3.26.504 4.104 1.368.738.72 1.117 1.692 1.117 2.935v.038c0 1.93-1.03 3.21-2.6 3.87l3.008 4.4h-4.033l-2.54-3.818h-1.53v3.817h-3.494V2.696zm5.797 6.05c1.188 0 1.873-.577 1.873-1.496V7.22c0-.99-.72-1.496-1.89-1.496h-2.288V8.75h2.305zm30.13-6.05h6.464c1.58 0 2.7.396 3.433 1.134.505.505.81 1.17.81 2.035V5.9c0 1.458-.827 2.322-1.944 2.81 1.53.503 2.502 1.367 2.502 3.078v.04c0 2.16-1.764 3.475-4.77 3.475h-6.5V2.698zm5.6 5.023c1.062 0 1.657-.36 1.657-1.097V6.59c0-.684-.54-1.08-1.584-1.08h-2.27v2.21h2.197zm.504 4.773c1.06 0 1.67-.414 1.67-1.152v-.035c0-.69-.54-1.14-1.71-1.14h-2.667v2.323h2.7zm20.12-9.886h3.365l5.364 12.694h-3.74l-.92-2.25h-4.86l-.9 2.25h-3.674l5.366-12.69zm3.06 7.724l-1.405-3.58-1.424 3.583h2.828zM273.363 2.7h4.86c4.502 0 7.113 2.593 7.113 6.23v.035c0 3.637-2.646 6.338-7.184 6.338h-4.79V2.7zm4.915 9.506c2.09 0 3.475-1.152 3.475-3.188V8.98c0-2.016-1.386-3.186-3.476-3.186h-1.423v6.41h1.422zm17.422-3.17V9c0-3.674 2.88-6.555 6.788-6.555 2.22 0 3.786.684 5.118 1.836l-2.055 2.47c-.9-.752-1.8-1.184-3.04-1.184-1.82 0-3.224 1.53-3.224 3.457v.036c0 2.034 1.42 3.492 3.42 3.492.846 0 1.494-.18 2.016-.522V10.5h-2.484V7.94h5.796v5.673c-1.334 1.097-3.188 1.94-5.475 1.94-3.925 0-6.86-2.7-6.86-6.516zM318.978 2.7h10.137v2.97h-6.68v1.91h6.05v2.754h-6.05v2h6.77v2.97h-10.227V2.698zm20.05 10.73l1.945-2.322c1.242.99 2.63 1.513 4.087 1.513.937 0 1.44-.322 1.44-.862v-.036c0-.523-.414-.812-2.125-1.207-2.683-.61-4.753-1.37-4.753-3.96v-.037c0-2.34 1.854-4.033 4.88-4.033 2.143 0 3.816.577 5.186 1.676l-1.747 2.467c-1.15-.81-2.41-1.242-3.523-1.242-.847 0-1.26.36-1.26.813v.036c0 .575.432.827 2.18 1.223 2.897.63 4.698 1.566 4.698 3.926v.037c0 2.573-2.034 4.103-5.095 4.103-2.233 0-4.358-.703-5.907-2.09zm20.99-5.528c1.206-.125 1.853-.72 1.8-1.69h-1.37V2.697h3.548V5.56c0 2.665-1.44 3.583-3.69 3.655l-.29-1.314zm27.844 5.528l1.944-2.322c1.243.99 2.63 1.513 4.087 1.513.937 0 1.44-.322 1.44-.862v-.036c0-.523-.413-.812-2.124-1.207-2.69-.61-4.76-1.37-4.76-3.96v-.037c0-2.34 1.855-4.033 4.88-4.033 2.143 0 3.817.577 5.186 1.676l-1.747 2.467c-1.15-.81-2.41-1.242-3.528-1.242-.847 0-1.26.36-1.26.813v.036c0 .575.43.827 2.178 1.223 2.9.63 4.7 1.566 4.7 3.926v.037c0 2.573-2.033 4.103-5.094 4.103-2.233 0-4.357-.703-5.906-2.09zm25.776-10.82h3.367l5.365 12.69h-3.746l-.918-2.25h-4.86l-.9 2.25h-3.674l5.366-12.692zm3.06 7.723l-1.404-3.58-1.423 3.582h2.83zM432.59 2.7h3.493v5.11l4.34-5.112h4.14l-4.77 5.42 4.934 7.184h-4.195l-3.17-4.682-1.277 1.423v3.26h-3.493V2.697zm22.14 0h10.137v2.97h-6.68v1.91h6.05v2.754h-6.05v2h6.77v2.97H454.73V2.698z" enable-background="new" fill="#44484D"/></svg>