<svg xmlns="http://www.w3.org/2000/svg" width="230" height="35" viewBox="0 0 230 35" enable-background="new 0 0 230 35"><path fill="#00C7FF" d="M.1 0h151v35H.1V0z"/><path fill="#fff" d="M15.1 13.2c0-.1.1-.1.1-.1h1.5c.1 0 .2 0 .2.1l2.2 4.9 2.1-4.9c0-.1.1-.1.2-.1h1.5c.1 0 .1.1.1.1v8.3c0 .1 0 .1-.1.1h-1.4c-.1 0-.1 0-.1-.1v-4.8l-1.6 3.6c0 .1-.1.2-.2.2h-.9c-.1 0-.2 0-.2-.2l-1.6-3.6v4.8c0 .1 0 .1-.1.1h-1.4c-.1 0-.1 0-.1-.1l-.2-8.3zm14.9 0c0-.1.1-.1.2-.1h1.6c.1 0 .1.1.2.1l2.9 8.3c0 .1 0 .1-.1.1h-1.6c-.1 0-.1 0-.2-.1l-.6-1.5h-3l-.5 1.5c0 .1-.1.1-.2.1h-1.6c-.1 0-.1 0-.1-.1l3-8.3zm1.9 5.2l-1-3-1 3h2zm6.9-5.2c0-.1 0-.1.1-.1h1.6c.1 0 .1.1.1.1v3.7l2.8-3.7c.1-.1.1-.1.2-.1h1.8c.1 0 .1.1 0 .2L43 16.5l2.8 5c0 .1 0 .1-.1.1h-1.9c-.1 0-.1 0-.2-.1l-1.9-3.6-1.1 1.4v2.2c0 .1 0 .1-.1.1h-1.6c-.1 0-.1 0-.1-.1v-8.3zm11.1 0c0-.1 0-.1.1-.1h5.5c.1 0 .1.1.1.1v1.4c0 .1 0 .1-.1.1h-3.7s-.1 0-.1.1v1.7s0 .1.1.1h3.1c.1 0 .1 0 .1.1V18c0 .1 0 .1-.1.1h-3.1s-.1 0-.1.1V20s0 .1.1.1h3.7c.1 0 .1 0 .1.1v1.3c0 .1 0 .1-.1.1H50c-.1 0-.1 0-.1-.1v-8.3zm9.7 7.4s-.1-.1 0-.2l1-1.1c0-.1.1-.1.2 0 .6.5 1.3.9 2.2.9.9 0 1.4-.4 1.4-1 0-.5-.3-.8-1.3-1l-.5-.1c-1.7-.2-2.7-1.1-2.7-2.6 0-1.6 1.2-2.6 3-2.6 1.1 0 2.2.3 2.9.9.1.1.1.1 0 .2l-.8 1.1c-.1.1-.1.1-.2 0-.7-.4-1.3-.7-2-.7-.8 0-1.1.4-1.1.9s.4.8 1.3.9l.5.1c1.8.2 2.7 1 2.7 2.6s-1.1 2.7-3.4 2.7c-1.2.2-2.5-.4-3.2-1zm17 1c-.1 0-.1 0-.1-.1v-8.3c0-.1.1-.1.1-.1h3.3c1.9 0 3 1.1 3 2.8 0 1.6-1.1 2.7-3 2.7h-1.5c-.1 0-.1 0-.1.1v2.9c0 .1-.1.1-.1.1l-1.6-.1zm4.5-5.8c0-.7-.5-1.2-1.2-1.2h-1.4c-.1 0-.1 0-.1.1v2.2s0 .1.1.1h1.4c.7 0 1.2-.5 1.2-1.2zm6-2.6c0-.1.1-.1.1-.1h5.5c.1 0 .1.1.1.1v1.4c0 .1-.1.1-.1.1H89c-.1 0-.1 0-.1.1v1.7s0 .1.1.1h3.1c.1 0 .1 0 .1.1V18c0 .1-.1.1-.1.1H89c-.1 0-.1 0-.1.1V20s0 .1.1.1h3.7c.1 0 .1 0 .1.1v1.3c0 .1-.1.1-.1.1h-5.5c-.1 0-.1 0-.1-.1v-8.3zm10.1 6.5c-.2-.6-.2-1.1-.2-2.4 0-1.3.1-1.8.2-2.3.4-1.4 1.6-2.1 3.1-2.1s2.7.7 3.1 2.1c.2.6.2 1.1.2 2.3 0 1.3-.1 1.8-.2 2.3-.4 1.4-1.6 2.1-3.1 2.1s-2.6-.6-3.1-2zm4.5-.5c.1-.3.1-.7.1-1.8s0-1.5-.1-1.8c-.2-.6-.6-.9-1.3-.9-.7 0-1.2.4-1.3.9-.1.3-.1.7-.1 1.8s0 1.5.1 1.8c.2.6.6.9 1.3.9.6 0 1.1-.3 1.3-.9zm6.5 2.4c-.1 0-.1 0-.1-.1v-8.3c0-.1.1-.1.1-.1h3.3c1.9 0 3 1.1 3 2.8 0 1.6-1.1 2.7-3 2.7H110c-.1 0-.1 0-.1.1v2.9c0 .1-.1.1-.1.1l-1.6-.1zm4.5-5.8c0-.7-.5-1.2-1.2-1.2H110c-.1 0-.1 0-.1.1v2.2s0 .1.1.1h1.4c.8 0 1.3-.5 1.3-1.2zm6-2.6c0-.1.1-.1.1-.1h1.6c.1 0 .1.1.1.1v6.7s0 .1.1.1h3.8c.1 0 .1 0 .1.1v1.4c0 .1-.1.1-.1.1h-5.6c-.1 0-.1 0-.1-.1v-8.3zm10 0c0-.1.1-.1.1-.1h5.5c.1 0 .1.1.1.1v1.4c0 .1-.1.1-.1.1h-3.7c-.1 0-.1 0-.1.1v1.7s0 .1.1.1h3.1c.1 0 .1 0 .1.1V18c0 .1-.1.1-.1.1h-3.1c-.1 0-.1 0-.1.1V20s0 .1.1.1h3.7c.1 0 .1 0 .1.1v1.3c0 .1 0 .1-.1.1h-5.5c-.1 0-.1 0-.1-.1v-8.3z"/><path fill="#009FEF" d="M150.5 0H230v35h-79.5V0z"/><path fill="#fff" d="M164.8 19.8l1.4-1.6c.9.7 1.8 1.1 2.9 1.1.7 0 1-.2 1-.6 0-.4-.3-.6-1.5-.8-1.9-.4-3.3-1-3.3-2.8 0-1.6 1.3-2.8 3.4-2.8 1.5 0 2.7.4 3.6 1.2L171 15c-.8-.6-1.7-.9-2.5-.9-.6 0-.9.3-.9.6 0 .4.3.6 1.5.9 2 .4 3.3 1.1 3.3 2.7 0 1.8-1.4 2.9-3.6 2.9-1.4 0-2.9-.5-4-1.4zm11.9-7.5h2.6l2.1 3.4 2.1-3.4h2.6v8.8h-2.4V16l-2.3 3.5h-.1l-2.2-3.4v5h-2.4v-8.8zm14 0h2.5v8.8h-2.5v-8.8zm7 0h2.4V19h4.3v2.1h-6.7v-8.8zm10.8 0h7.1v2.1h-4.7v1.3h4.2v1.9h-4.2V19h4.7v2.1h-7.2l.1-8.8z"/></svg>