<svg xmlns="http://www.w3.org/2000/svg" width="295.991" height="43.387" viewBox="0 0 295.991 43.387"><path d="M21.544.315h8.08c1.98 0 3.376.495 4.3 1.418.63.63 1.012 1.463 1.012 2.543v.045c0 1.83-1.036 2.91-2.43 3.518 1.912.63 3.128 1.71 3.128 3.85v.044c0 2.7-2.206 4.344-5.964 4.344h-8.125V.316zm7 6.28c1.328 0 2.07-.45 2.07-1.373v-.045c0-.855-.674-1.35-1.98-1.35H25.8v2.768h2.744zm.63 5.964c1.328 0 2.093-.52 2.093-1.44v-.05c0-.857-.675-1.42-2.138-1.42H25.79v2.903h3.376zM54.33.2h4.21l6.706 15.867h-4.682l-1.147-2.814H53.34l-1.125 2.813h-4.59L54.33.202zm3.827 9.655l-1.755-4.48-1.778 4.48h3.533zM78.024.315H84.1c5.628 0 8.89 3.24 8.89 7.788v.045c0 4.546-3.308 7.922-8.98 7.922h-5.986V.315zM84.168 12.2c2.61 0 4.344-1.44 4.344-3.985V8.17c0-2.52-1.733-3.984-4.344-3.984H82.39V12.2h1.778zm21.782-3.963v-.045c0-4.59 3.6-8.192 8.485-8.192 2.768 0 4.727.855 6.392 2.296L118.26 5.38c-1.124-.946-2.25-1.486-3.803-1.486-2.273 0-4.03 1.913-4.03 4.32v.046c0 2.543 1.78 4.367 4.277 4.367 1.058 0 1.868-.225 2.52-.653V10.06h-3.105V6.866h7.24v7.09c-1.666 1.372-3.984 2.43-6.84 2.43-4.907 0-8.575-3.376-8.575-8.148zM135.044.315h12.67V4.03h-8.35v2.385h7.563v3.443h-7.562v2.5h8.462v3.712h-12.784V.315zM160.11 13.73l2.432-2.904c1.554 1.238 3.287 1.89 5.11 1.89 1.17 0 1.8-.404 1.8-1.08v-.044c0-.652-.518-1.013-2.656-1.508-3.354-.765-5.94-1.71-5.94-4.952v-.046c0-2.926 2.317-5.042 6.098-5.042 2.678 0 4.77.72 6.482 2.093l-2.184 3.083c-1.44-1.013-3.016-1.553-4.412-1.553-1.057 0-1.574.45-1.574 1.013v.045c0 .72.54 1.035 2.723 1.53 3.62.788 5.87 1.958 5.87 4.907v.045c0 3.218-2.545 5.13-6.37 5.13-2.79.003-5.45-.875-7.385-2.608zM204.71.315h12.605V4.14h-8.238v2.68h7.45v3.623h-7.45v5.626h-4.365V.31zm25.292 7.922v-.045c0-4.524 3.646-8.192 8.508-8.192s8.463 3.624 8.463 8.147v.045c0 4.524-3.646 8.192-8.508 8.192s-8.463-3.623-8.463-8.147zm12.514 0v-.045c0-2.273-1.643-4.254-4.05-4.254-2.388 0-3.985 1.936-3.985 4.21v.044c0 2.273 1.65 4.254 4.03 4.254 2.41 0 4.01-1.935 4.01-4.21zM260.493.315h7.45c2.407 0 4.073.63 5.132 1.71.922.9 1.395 2.116 1.395 3.67v.044c0 2.4-1.283 4-3.24 4.832l3.758 5.492h-5.04l-3.175-4.77h-1.912v4.77h-4.36V.314zm7.248 7.562c1.49 0 2.34-.72 2.34-1.868v-.05c0-1.24-.9-1.87-2.36-1.87h-2.853v3.78h2.88zM0 27.317h8.08c1.98 0 3.376.495 4.3 1.42.63.63 1.012 1.462 1.012 2.542v.04c0 1.82-1.036 2.9-2.43 3.51 1.912.63 3.127 1.71 3.127 3.85v.044c0 2.7-2.21 4.343-5.97 4.343H0V27.32zm7 6.28c1.328 0 2.07-.45 2.07-1.373v-.045c0-.86-.674-1.358-1.98-1.358H4.254v2.77H7zm.63 5.964c1.328 0 2.093-.51 2.093-1.44v-.04c0-.853-.675-1.42-2.138-1.42h-3.33v2.906H7.63zm25.156-12.35h4.21L43.7 43.073h-4.68l-1.147-2.812h-6.077l-1.125 2.812h-4.59l6.71-15.867zm3.826 9.657l-1.755-4.477-1.778 4.48h3.53zM56.48 27.32h6.077c5.627 0 8.89 3.24 8.89 7.787v.045c0 4.547-3.31 7.922-8.98 7.922H56.48V27.318zm6.144 11.88c2.61 0 4.344-1.438 4.344-3.982v-.045c0-2.52-1.733-3.983-4.344-3.983h-1.778v8.012h1.778zm21.78-3.96v-.045c0-4.592 3.6-8.192 8.486-8.192 2.768 0 4.727.855 6.392 2.296l-2.566 3.08c-1.125-.948-2.25-1.49-3.804-1.49-2.273 0-4.03 1.914-4.03 4.32v.047c0 2.544 1.78 4.366 4.277 4.366 1.05 0 1.86-.226 2.52-.653v-1.91h-3.11v-3.195h7.244v7.09c-1.666 1.373-3.984 2.43-6.84 2.43-4.907 0-8.576-3.377-8.576-8.148zm29.096-7.922h12.67v3.713h-8.35v2.39h7.563v3.447h-7.562v2.5h8.47v3.712H113.5V27.32zm25.067 13.414l2.43-2.904c1.554 1.238 3.287 1.89 5.11 1.89 1.17 0 1.8-.403 1.8-1.08v-.044c0-.652-.517-1.013-2.655-1.508-3.354-.766-5.942-1.71-5.942-4.95v-.046c0-2.926 2.318-5.042 6.1-5.042 2.677 0 4.77.72 6.48 2.093l-2.182 3.09c-1.44-1.012-3.016-1.552-4.41-1.552-1.06 0-1.577.45-1.577 1.013v.045c0 .72.548 1.036 2.73 1.53 3.625.788 5.875 1.96 5.875 4.907v.046c0 3.22-2.543 5.133-6.37 5.133-2.79 0-5.447-.88-7.382-2.61zm26.236-6.91c1.508-.157 2.318-.9 2.252-2.115h-1.71v-4.39h4.433v3.58c0 3.33-1.8 4.478-4.613 4.567l-.362-1.642zm34.81 6.91l2.433-2.904c1.553 1.238 3.285 1.89 5.11 1.89 1.17 0 1.8-.403 1.8-1.08v-.044c0-.652-.518-1.013-2.656-1.508-3.354-.766-5.94-1.71-5.94-4.95v-.046c0-2.926 2.317-5.042 6.1-5.042 2.677 0 4.77.72 6.48 2.093l-2.183 3.09c-1.44-1.012-3.018-1.552-4.412-1.552-1.06 0-1.576.45-1.576 1.013v.045c0 .72.54 1.036 2.72 1.53 3.62.788 5.87 1.96 5.87 4.907v.046c0 3.22-2.542 5.133-6.37 5.133-2.79 0-5.447-.88-7.382-2.61zm32.22-13.527h4.21l6.707 15.867h-4.682l-1.146-2.812h-6.078l-1.125 2.812h-4.6l6.708-15.867zm3.828 9.656l-1.75-4.472-1.78 4.48h3.537zm19.87-9.54h4.37v6.39l5.424-6.39h5.177l-5.965 6.777 6.168 8.98h-5.242l-3.962-5.853L259.9 39v4.072h-4.366V27.316zm27.68 0h12.67v3.716h-8.35v2.39h7.56v3.442h-7.56v2.5h8.466v3.712h-12.78V27.32z" fill="#44484D"/></svg>