<svg xmlns="http://www.w3.org/2000/svg" width="160" height="160" viewBox="0 0 160 160"><path fill="#3A3E44" d="M160 102.704L57.295 0H.725L160 159.274z"/><path fill="#fff" d="M48.856 19.968l.017-.017c1.72-1.717 4.39-1.742 6.177.044 1.205 1.205 1.475 2.485 1.272 3.732l-2.183-.278c.082-.758-.035-1.416-.6-1.98-.826-.826-2.107-.708-2.966.152l-.017.016c-.885.885-.995 2.157-.168 2.983.614.613 1.263.69 2.046.613l.354 2.107c-1.322.21-2.637.026-3.943-1.28-1.685-1.685-1.752-4.33.01-6.092zm9.354 9.355l.017-.017c1.694-1.694 4.433-1.702 6.253.118 1.82 1.82 1.812 4.525.118 6.22l-.017.016c-1.69 1.693-4.43 1.702-6.25-.118s-1.81-4.525-.12-6.22zm4.686 4.685l.017-.017c.85-.85.978-2.206.076-3.11-.895-.89-2.218-.765-3.07.086l-.016.017c-.85.85-.977 2.208-.083 3.1.9.903 2.224.777 3.075-.074zm8.857 2.925l1.525 1.525-.69 5.545 3.117-3.118 1.618 1.618-5.9 5.9-1.432-1.434.72-5.757-3.237 3.236-1.618-1.62 5.9-5.9zm9.995 12.86l-1.77-1.77 1.434-1.432 5.173 5.175-1.433 1.433-1.77-1.77-4.465 4.467-1.635-1.635 4.466-4.467zm18.388 15.523l1.644 1.644-5.898 5.9-1.644-1.645 5.898-5.9zm6.094 6.094l3.025 3.025c.74.74 1.078 1.45 1.078 2.14 0 .473-.17.927-.573 1.332l-.017.017c-.683.683-1.475.7-2.224.406.477.952.53 1.81-.273 2.61l-.017.018c-1.01 1.012-2.45.8-3.858-.606l-3.042-3.042 5.9-5.9zm-1.728 7.44c.497.498.978.59 1.323.246l.017-.017c.32-.32.278-.786-.27-1.334l-1.247-1.247-1.087 1.086 1.264 1.264zm1.998-2.468c.497.497.943.606 1.29.26l.016-.016c.32-.32.253-.758-.235-1.247l-1.06-1.064-1.037 1.036 1.028 1.03zm5.74 7.66l3.31-3.312 1.66 1.66-3.277 3.28c-.85.85-.826 1.684-.17 2.34.658.66 1.476.7 2.302-.125l3.32-3.32 1.66 1.66-3.27 3.27c-1.904 1.904-3.826 1.652-5.503-.024-1.677-1.677-1.88-3.58-.033-5.427zm13.154 9.398l-1.77-1.77 1.433-1.433 5.174 5.174-1.43 1.435-1.77-1.77-4.467 4.466-1.635-1.634 4.467-4.465zm8.926 6.06l4.743 4.744-1.39 1.39-3.127-3.125-.894.892 2.83 2.83-1.288 1.29-2.83-2.83-.937.935 3.168 3.168-1.39 1.39-4.786-4.786 5.9-5.9zM93.57 62.85l.02-.018c1.272-1.263 1.13-2.982-.364-4.484l-2.5-2.52-5.878 5.84 1.594 1.605 1.69-1.68.45.456-.006.01c-.17.45-.254.923-.252 1.41-.007 1.35.45 2.36 1.436 3.18l1.377-1.37c-.55-.46-.915-.935-.914-1.74.005-.044.006-.09.012-.138l.003-.032.03.012c.238.12.478.204.718.258.95.222 1.843-.052 2.585-.79zm-1.652-1.545l-.017.016c-.27.27-.612.37-.966.288-.262-.06-.524-.22-.766-.46l-.788-.793.016-.016 1.58-1.57.777.784c.3.3.47.606.5.907.034.306-.08.59-.335.846z"/></svg>