<svg xmlns="http://www.w3.org/2000/svg" width="183.694" height="185.37" viewBox="0 0 183.694 185.37"><path d="M148.502 68.557l-.695-1.865h-25.71c-7.156 0-13.66 2.848-18.44 7.467-1.512.754-5.432 1.744-11.3 1.744-5.864 0-9.784-.99-11.298-1.744-4.785-4.616-11.29-7.468-18.45-7.468H36.9l-.694 1.865c-.238.645-1.43 3.967-1.322 6.207.044.95.292 1.812.533 2.648.274.95.557 1.938.64 3.297.223 3.6.13 8.103.05 10.51-.01.076-.007.154-.01.23-.04.604-.07 1.21-.07 1.824 0 14.658 11.927 26.584 26.585 26.584 14.66 0 26.584-11.927 26.584-26.585 0-3.162-.557-6.2-1.576-9.014 1.323-.84 2.864-1.31 4.464-1.31 1.787 0 3.495.575 4.906 1.61-.95 2.73-1.477 5.66-1.477 8.713 0 14.658 11.928 26.584 26.585 26.584 14.66 0 26.585-11.926 26.585-26.584 0-.61-.027-1.213-.068-1.816-.006-.076-.003-.158-.01-.238-.078-2.407-.173-6.91.048-10.513.085-1.363.368-2.346.642-3.3.242-.833.49-1.696.533-2.645.105-2.24-1.086-5.56-1.326-6.206zM40.256 71.954h4.205v2.484h-4.203v-2.484zm22.355 42.17c-11.48 0-20.822-9.327-20.846-20.804.01-.21.035-.787.062-1.617.012-.127.02-.252.03-.38.014-.147.03-.292.047-.438.023-.195.047-.393.076-.588.02-.145.043-.29.067-.434.03-.19.06-.375.1-.56.03-.157.062-.312.098-.466.03-.164.072-.328.11-.492.042-.176.09-.35.136-.523.037-.133.07-.262.11-.393.06-.207.124-.414.19-.617.028-.086.06-.168.087-.252.085-.247.174-.495.265-.735.013-.027.022-.055.033-.08 2.695-6.896 8.982-12.01 16.44-13.102.034-.006.063-.008.096-.014.288-.04.58-.077.875-.106.124-.012.25-.02.374-.03.205-.015.41-.034.623-.042.34-.02.684-.027 1.028-.027 11.498 0 20.85 9.354 20.85 20.85 0 11.494-9.35 20.85-20.85 20.85zm59.488 0c-11.494 0-20.848-9.354-20.848-20.85 0-11.495 9.353-20.85 20.847-20.85.345 0 .688.01 1.03.028.207.008.416.027.625.043.123.01.25.018.374.03.292.028.583.063.874.104.03.004.062.006.092.012 7.457 1.092 13.738 6.2 16.44 13.086.01.034.024.07.036.103.092.237.178.478.26.718.032.09.062.178.092.27.067.198.126.4.186.6.04.136.08.272.117.41.044.167.088.335.13.503.04.173.082.345.118.517.033.147.063.294.093.44.038.195.073.39.106.588l.06.404c.03.206.057.413.08.62l.045.41c.012.13.02.264.03.396.028.825.052 1.4.063 1.608-.027 11.48-9.368 20.807-20.85 20.807zm22.358-39.686h-4.205v-2.484h4.206v2.484zm-22.136 21.15c-3.53 0-6.854-1.38-9.354-3.88l-3.562 3.56c3.454 3.456 8.04 5.358 12.916 5.358s9.465-1.902 12.92-5.357l-3.563-3.564c-2.5 2.502-5.823 3.88-9.357 3.88zm-59.238 0c-3.53 0-6.854-1.38-9.355-3.88l-3.564 3.56c3.455 3.456 8.043 5.358 12.92 5.358S72.548 98.724 76 95.27l-3.563-3.563c-2.5 2.502-5.824 3.88-9.355 3.88zm-41.948 39.51l-1.803-3.4-1.806.96 1.635 3.083-2.383 1.266-1.635-3.086-4.246 2.25-1.49-2.81 10.818-5.735 3.293 6.213-2.38 1.26zm6.8 6.042c1.055.468 1.954 1.16 2.696 2.077.743.916 1.234 1.94 1.475 3.07.24 1.13.182 2.248-.173 3.358-.355 1.11-1 2.043-1.934 2.8-1.54 1.247-3.2 1.773-4.98 1.58-1.78-.195-3.29-1.058-4.53-2.59-1.24-1.53-1.772-3.187-1.593-4.97.18-1.78 1.038-3.296 2.577-4.544.934-.754 1.98-1.19 3.14-1.31s2.265.06 3.32.53zm1.076 6.526c.075-.938-.184-1.774-.776-2.506-.594-.73-1.356-1.158-2.29-1.28-.935-.12-1.734.09-2.398.627-.808.654-1.27 1.463-1.392 2.424s.123 1.818.73 2.566c.606.748 1.393 1.164 2.357 1.246s1.854-.204 2.66-.858c.665-.54 1.036-1.278 1.11-2.216zm33.66 22.626l-3.607 8.84-2.946-1.202 3.607-8.84-2.436-.995 1.02-2.496 7.817 3.19-1.02 2.495-2.434-.994zm10.456 5.348l4.503.92.942-4.632 3.118.635-2.444 11.998-3.118-.633 1.002-4.917-4.503-.92-1.002 4.918-3.12-.636 2.446-11.998 3.12.636-.943 4.63zm21.476.182l-3.783-.062-.035 2.046 3.588.058-.044 2.695-3.59-.06-.033 2.11 3.783.062-.043 2.695-6.966-.113.2-12.243 6.966.113-.043 2.698zm23.825 5.758l-4.71 1.364-3.405-11.762 4.368-1.265c2.33-.675 3.79.008 4.38 2.046.336 1.165.137 2.09-.6 2.777l.01.03c1.66-.255 2.75.513 3.268 2.3.172.594.2 1.143.09 1.648-.114.506-.34.94-.68 1.305s-.736.672-1.187.926c-.45.254-.96.464-1.532.63zm-4.38-8.943l.66 2.277.342-.1c.497-.145.875-.338 1.132-.582.256-.243.32-.588.19-1.035-.075-.26-.186-.457-.33-.59-.147-.132-.328-.203-.545-.214-.218-.01-.412 0-.585.025-.172.027-.39.08-.648.153l-.218.068zm1.318 4.555l.73 2.527.39-.115.508-.146s.255-.086.498-.18c.245-.093.42-.183.524-.27.104-.086.225-.196.36-.332.135-.136.215-.29.24-.46.022-.17.005-.358-.056-.567-.045-.154-.102-.29-.17-.405-.066-.117-.15-.205-.253-.266l-.276-.165s-.2-.07-.35-.067c-.15.003-.267.003-.348-.003-.08-.004-.212.014-.396.057-.186.043-.307.072-.363.088l-.38.11-.345.1-.31.09zm20.39-5.112l-3.89 2.024.233 2.276-2.996 1.56-1.475-13.036 3.083-1.604 9.743 8.733-3.01 1.567-1.687-1.52zm-1.887-1.764l-2.952-2.857-.028.013.632 4.064 2.348-1.222zm12.625-2.416l-7.73-9.497 3.502-2.85c1.327-1.08 2.837-1.545 4.53-1.395 1.692.15 3.08.89 4.158 2.216 1.08 1.327 1.522 2.834 1.326 4.522-.198 1.688-.96 3.072-2.286 4.152l-3.502 2.85zm-3.56-9.415l4.327 5.314.555-.453c.79-.643 1.26-1.396 1.415-2.262s-.128-1.738-.846-2.62c-.676-.83-1.453-1.28-2.332-1.348-.878-.067-1.725.23-2.538.894l-.58.474zm15.823-11.8l3.968-4.917c.812.684 1.455 1.317 1.93 1.902.474.584.824 1.288 1.05 2.11.526 1.9.093 3.713-1.302 5.44-1.21 1.498-2.662 2.345-4.354 2.537-1.692.19-3.284-.314-4.775-1.518-1.54-1.247-2.397-2.725-2.568-4.435s.366-3.336 1.61-4.878c.803-.994 1.723-1.677 2.76-2.05 1.04-.372 2.164-.403 3.375-.094l-.912 3.146c-.614-.204-1.2-.238-1.755-.103-.555.137-1.03.45-1.424.938-.62.768-.806 1.616-.557 2.548.25.933.77 1.718 1.562 2.356.792.64 1.67.974 2.63 1.007.963.03 1.757-.34 2.382-1.115.45-.556.677-1.13.683-1.724.007-.594-.235-1.13-.725-1.61l-1.633 2.022-1.946-1.568zm8.144-17.845l-1.776 3.34 1.807.962 1.688-3.17 2.38 1.268-1.686 3.17 1.865.99 1.777-3.34 2.38 1.266-3.272 6.15-10.81-5.75 3.27-6.15 2.38 1.264zM5.285 76.985l.958-4.495-4.62-.985.662-3.113 11.976 2.553-.66 3.113-4.91-1.046-.957 4.495 4.907 1.046-.664 3.112L0 79.112.664 76l4.62.985zm.973-19.647l11.377 4.525-1.177 2.958L5.08 60.297l1.178-2.957zm14.062-1.423l-10.548-6.22 2.475-4.196c.698-1.187 1.536-1.95 2.514-2.3.98-.347 2.05-.177 3.218.51 2.388 1.41 2.847 3.357 1.38 5.846l-.917 1.553 3.498 2.06-1.617 2.744zm-6.72-7.66l2.63 1.552.27-.46c.155-.263.27-.462.345-.6.075-.14.15-.326.23-.563s.103-.432.08-.584c-.024-.152-.097-.317-.218-.495s-.308-.342-.56-.49c-.26-.154-.5-.244-.716-.27s-.4-.018-.554.03c-.153.047-.31.16-.47.335s-.288.333-.383.472-.222.344-.38.614l-.272.46zm11.392-18.61l1.036 2.574c-.834.134-1.5.49-1.995 1.062-.22.253-.354.55-.403.886-.05.337.046.608.283.813.164.143.37.203.617.18.248-.02.448-.07.6-.145.152-.076.35-.188.592-.336l.716-.454c.837-.536 1.623-.836 2.36-.9.734-.064 1.45.205 2.145.808 1.122.97 1.676 2.01 1.663 3.116-.015 1.192-.482 2.32-1.404 3.383-1.007 1.162-2.297 1.94-3.873 2.338l-1.048-2.71c1.27-.175 2.205-.61 2.808-1.306.27-.31.426-.652.468-1.023.043-.37-.087-.687-.39-.95-.418-.362-1.078-.253-1.98.326-.03.018-.143.09-.34.22-.507.335-.923.584-1.248.746-.326.163-.695.287-1.107.374-.412.087-.812.057-1.198-.092s-.797-.41-1.23-.787c-.934-.808-1.425-1.757-1.477-2.847-.052-1.09.327-2.102 1.135-3.035.404-.466.904-.903 1.5-1.31.596-.41 1.186-.718 1.77-.928zm11.078-7.34l6.067 7.374-2.458 2.02-6.068-7.374-2.03 1.67-1.714-2.08 6.52-5.366 1.713 2.083-2.03 1.672zm13.965-9.195l-3.273 1.9 1.026 1.77 3.104-1.802 1.353 2.332-3.104 1.8 1.06 1.827 3.275-1.898 1.353 2.33-6.027 3.496-6.143-10.592 6.026-3.496 1.353 2.33zm42.58-3.005l-4.384.1-.794 2.147-3.376.078L88.485.08 91.96 0l4.893 12.136-3.394.078-.846-2.11zm-.917-2.416L90.31 3.82h-.033l-1.225 3.93 2.646-.06zm10.457 5.04l2.11-12.062 4.8.84c1.354.237 2.365.752 3.035 1.545.67.793.887 1.856.653 3.19-.478 2.73-2.14 3.845-4.987 3.347l-1.776-.31-.7 3.998-3.135-.548zm4.804-8.985l-.528 3.007.528.092c.3.052.526.09.682.11.156.022.358.028.607.017.25-.01.44-.053.573-.13.134-.074.264-.2.388-.375s.213-.408.263-.696c.053-.3.053-.555.002-.768-.05-.21-.125-.38-.224-.508s-.26-.235-.48-.323c-.22-.09-.41-.152-.574-.192-.164-.04-.4-.086-.71-.14l-.528-.092zm9.932 12.175l4.32-11.458 4.56 1.72c1.285.484 2.184 1.18 2.693 2.082s.525 1.99.048 3.255c-.978 2.59-2.82 3.38-5.523 2.36l-1.688-.638-1.433 3.798-2.98-1.12zm6.393-7.934l-1.077 2.857.5.19c.284.106.5.185.65.235s.346.093.593.128c.25.036.445.028.59-.02.148-.05.298-.15.45-.3.157-.15.286-.36.39-.635.106-.282.155-.532.145-.75-.01-.22-.052-.4-.125-.542-.074-.143-.212-.28-.412-.407-.2-.126-.378-.225-.53-.294-.153-.07-.377-.16-.67-.27l-.503-.19zm31.89 16.796c1.1.348 2.072.936 2.912 1.764.84.828 1.443 1.79 1.808 2.886.363 1.096.432 2.215.202 3.357-.23 1.14-.765 2.14-1.608 2.996-1.393 1.41-2.983 2.12-4.774 2.125-1.792.007-3.39-.682-4.792-2.065-1.404-1.383-2.116-2.97-2.137-4.76-.02-1.792.664-3.394 2.055-4.805.843-.855 1.834-1.406 2.973-1.65 1.137-.247 2.257-.196 3.36.152zm1.798 6.365c-.03-.94-.38-1.743-1.05-2.404s-1.48-1-2.42-1.016c-.942-.016-1.713.28-2.313.89-.73.74-1.1 1.594-1.112 2.563-.012.97.325 1.79 1.012 2.467s1.514 1 2.482.975c.968-.026 1.816-.41 2.546-1.15.6-.608.885-1.383.855-2.325zm12.027 8.9l-4.628 6.53 7.856-1.56 1.884 2.9-13.117 2.286-1.344-2.07 7.466-10.987 1.884 2.9zm8.48 22.048l-1.44-3.5-1.892.78 1.366 3.318-2.493 1.026-1.364-3.32-1.952.804 1.44 3.498-2.492 1.026-2.65-6.443 11.322-4.66 2.65 6.44-2.49 1.028zm-6.836 9.65l11.988-2.49.918 4.42c.35 1.674.066 3.23-.847 4.66s-2.207 2.326-3.882 2.675-3.214.046-4.622-.905c-1.41-.95-2.287-2.264-2.636-3.938l-.916-4.42zm9.996 1.173l-6.71 1.395.146.7c.207.996.66 1.762 1.357 2.297.697.535 1.602.687 2.715.456 1.05-.22 1.806-.7 2.27-1.45.464-.75.59-1.638.375-2.666l-.153-.732zM61.135 48.344v5.687H59.24v-5.685h-1.567V46.74h5.03v1.604h-1.568zm14.632 5.686v-7.29h2.688c1.02 0 1.89.352 2.615 1.058s1.088 1.568 1.088 2.587-.362 1.88-1.088 2.586c-.726.71-1.597 1.06-2.615 1.06h-2.688zm1.895-5.686v4.08h.425c.606 0 1.107-.17 1.504-.512s.597-.85.597-1.527c0-.64-.19-1.138-.57-1.5-.38-.36-.884-.54-1.51-.54h-.444zm23.348 5.686l1.238-7.29h1.866l1.48 3.897 1.565-3.898h1.884l1.103 7.29h-1.896l-.53-4.196h-.02l-1.75 4.196h-.755l-1.673-4.195h-.02l-.61 4.196h-1.883zm24.232-4.283l2.292-3.007h2.35l-2.9 3.453 3.162 3.84h-2.456l-2.447-3.163h-.02v3.162h-1.895V46.74h1.896v3.007h.018zm-5.572-.393v-.02c.006-1.556-1.134-2.522-2.975-2.528l-3.077-.012-.023 7.188 1.96.006.007-2.064h.557l.004.012c.17.38.41.723.707 1.02.826.832 1.73 1.172 2.834 1.07l.003-1.686c-.618.057-1.134-.012-1.626-.506l-.08-.092-.016-.02.026-.013c.22-.074.42-.17.6-.283.717-.45 1.097-1.166 1.1-2.074zm-1.96.066v.02c0 .33-.15.604-.42.77-.194.123-.456.188-.753.188l-.97-.004v-.02l.007-1.932.96.004c.368 0 .66.084.862.25.21.168.313.412.313.724zm-63.558 89.918v-7.29h1.896l3.47 4.456h.02v-4.457h1.897v7.29H59.54l-3.473-4.467h-.02v4.468h-1.895zm13.113-7.064c.612-.312 1.27-.47 1.973-.47.702 0 1.36.157 1.973.47.614.312 1.11.76 1.49 1.34.38.58.57 1.23.57 1.943 0 1.18-.38 2.146-1.136 2.896s-1.723 1.127-2.896 1.127c-1.174 0-2.14-.376-2.896-1.127s-1.136-1.717-1.136-2.896c0-.715.19-1.363.57-1.943.38-.58.877-1.028 1.49-1.34zm3.423 1.95c-.406-.388-.89-.58-1.45-.58-.562 0-1.045.192-1.45.58s-.61.833-.61 1.343c0 .62.2 1.137.6 1.553.4.415.887.623 1.46.623.574 0 1.062-.208 1.46-.623.4-.416.6-.934.6-1.553 0-.51-.204-.957-.61-1.344zm9.262-.57v5.685h-1.894v-5.688H76.49v-1.605h5.028v1.605H79.95zm34.042-1.607v5.686h2.272v1.605h-4.168v-7.29h1.896zm6.788 3.79l-2.688-3.79h2.272l1.363 1.98 1.363-1.98h2.272l-2.688 3.79v3.5h-1.896v-3.5zM83.37 31.703h1.896v4.1c0 .594-.047 1.092-.14 1.495-.095.403-.302.763-.624 1.08-.55.54-1.354.81-2.418.81s-1.87-.27-2.418-.81c-.322-.317-.53-.676-.623-1.08-.094-.403-.14-.9-.14-1.494v-4.1h1.895v3.838c0 .234.005.427.015.58s.038.33.087.524c.048.193.116.348.203.464s.214.214.382.295.367.12.6.12.432-.04.6-.12c.167-.08.295-.18.382-.295s.154-.27.203-.464c.048-.194.077-.368.087-.522s.015-.347.015-.58v-3.838zm10.754.406l-.755 1.47c-.39-.323-.808-.484-1.26-.484-.2 0-.385.055-.555.165-.17.11-.257.256-.257.443 0 .13.053.245.16.348.104.104.205.175.3.214.092.04.22.083.38.135l.484.144c.567.167 1.01.405 1.324.71.316.307.475.734.475 1.282 0 .883-.25 1.538-.754 1.963-.54.457-1.23.686-2.07.686-.914 0-1.77-.277-2.56-.832l.81-1.528c.574.503 1.136.754 1.684.754.245 0 .46-.062.643-.188.184-.125.276-.308.276-.546 0-.33-.307-.583-.92-.764-.02-.006-.096-.03-.23-.068-.35-.097-.623-.187-.823-.27-.2-.085-.4-.203-.6-.354-.2-.15-.34-.343-.425-.576-.084-.232-.126-.52-.126-.86 0-.735.235-1.326.706-1.774s1.073-.672 1.81-.672c.366 0 .758.055 1.174.165.416.11.784.255 1.107.435zm8.566 5.62h-2.61l-.503 1.266h-2.012l2.805-7.292h2.07l2.745 7.292h-2.02l-.474-1.267zm-.51-1.45l-.774-2.323h-.02l-.783 2.32h1.576zM77.91 152.462h2.39v1.605h-5.86l2.98-3.24c.553-.605.83-1.2.83-1.788 0-.245-.08-.464-.236-.657-.158-.193-.356-.29-.595-.29-.247 0-.44.083-.58.25-.145.17-.215.382-.215.64 0 .103.01.206.028.31h-2.088c.03-.845.3-1.524.807-2.036.507-.513 1.185-.77 2.036-.77.785 0 1.45.24 1.996.717.544.477.816 1.102.816 1.875 0 .49-.095.91-.285 1.256s-.488.705-.895 1.073l-1.13 1.052zm7.67-5.633c.404-.228.87-.343 1.39-.343.523 0 .987.115 1.394.344s.73.537.973.92c.24.385.424.804.546 1.258.122.455.184.928.184 1.417 0 .387-.037.766-.11 1.136-.075.37-.192.728-.354 1.07s-.36.64-.595.894c-.235.256-.528.46-.88.61-.352.15-.736.227-1.156.227-.42 0-.804-.074-1.155-.227-.352-.15-.645-.354-.88-.61-.235-.253-.434-.552-.595-.894s-.28-.698-.353-1.07c-.076-.37-.113-.75-.113-1.135 0-.49.06-.962.184-1.417.123-.454.306-.873.547-1.257.24-.383.565-.69.97-.92zm1.985 1.577c-.17-.164-.37-.246-.595-.246s-.424.084-.595.248-.298.373-.382.624-.144.494-.18.727-.052.45-.052.656.02.427.055.663c.035.233.095.48.18.733.083.255.21.465.38.63.172.164.37.246.596.246s.425-.083.596-.247c.17-.165.3-.375.383-.63.082-.254.142-.5.18-.733.033-.236.05-.457.05-.663s-.017-.425-.052-.657c-.036-.232-.096-.475-.18-.726-.083-.25-.21-.46-.382-.623zm8.225-.024h-1.044v-1.605h2.94v7.29H95.79v-5.685zm12.388 2.727h.88v1.45h-.88v1.51h-1.76v-1.51h-3.54v-1.208l2.814-4.574h2.485v4.332zm-1.76 0v-2.805h-.02l-1.702 2.805h1.722zM175.925 100l1.58 3.202 3.532.51-2.556 2.494.606 3.52-3.16-1.663-3.16 1.662.604-3.52-2.558-2.492 3.535-.51zM9.938 100l1.58 3.202 3.53.51-2.555 2.494.605 3.52-3.16-1.663-3.16 1.662.603-3.52-2.555-2.492 3.53-.51zm133.73-79.185l.02-.03c1.37-2.18.616-4.546-1.97-6.173l-4.322-2.717-6.348 10.098 2.758 1.73 1.822-2.902.78.494-.003.02c-.088.685-.053 1.376.1 2.058.434 1.897 1.405 3.167 3.05 3.995l1.49-2.37c-.923-.466-1.59-1.013-1.848-2.142-.015-.064-.023-.13-.032-.195l-.006-.05.045.01c.37.087.74.13 1.09.13 1.405 0 2.57-.674 3.372-1.953zm-2.818-1.63l-.018.03c-.29.463-.742.717-1.266.717-.383 0-.807-.137-1.225-.398l-1.362-.855.02-.033 1.706-2.715 1.35.848c.518.33.85.702.992 1.112.146.42.08.857-.195 1.294zM67.39 7.93l-.01-.035c-.872-2.424-3.2-3.29-6.073-2.262L56.5 7.358l4.025 11.225 3.063-1.098-1.157-3.225.87-.312.015.014c.483.494 1.05.893 1.682 1.19 1.758.83 3.357.85 5.024.067l-.944-2.635c-.937.436-1.778.62-2.824.13-.06-.028-.113-.06-.173-.095l-.045-.024.038-.033c.3-.238.558-.5.775-.777.867-1.102 1.055-2.438.546-3.856zm-3.024 1.21l.015.034c.185.516.107 1.023-.216 1.438-.235.303-.606.55-1.07.717l-1.516.543-.012-.035-1.083-3.017 1.502-.54c.574-.203 1.074-.236 1.483-.094.426.146.725.467.9.953zm7.792 40.214v-.02c.006-1.556-1.137-2.522-2.975-2.528l-3.077-.012-.023 7.188 1.962.006.006-2.064h.56v.012c.175.38.413.723.71 1.02.826.832 1.727 1.172 2.834 1.07l.004-1.686c-.62.057-1.135-.012-1.627-.506-.024-.03-.052-.06-.077-.092l-.02-.02.027-.013c.218-.074.417-.17.597-.283.718-.45 1.1-1.166 1.1-2.074zm-1.96.066v.02c-.004.33-.15.604-.42.77-.196.123-.456.188-.753.188l-.97-.004v-.02l.007-1.932.96.004c.368 0 .66.084.862.25.208.168.313.412.313.724zm38.328 85.24v-.022c.006-1.553-1.137-2.52-2.975-2.527l-3.075-.01-.023 7.188 1.962.004.006-2.06h.557l.006.01c.172.382.41.724.708 1.02.825.833 1.73 1.173 2.834 1.07l.007-1.685c-.62.057-1.136-.012-1.625-.506-.028-.03-.055-.06-.08-.092l-.02-.023.03-.01c.215-.074.415-.168.595-.28.72-.45 1.1-1.167 1.1-2.075zm-1.962.065v.02c0 .33-.15.604-.418.77-.194.123-.457.188-.754.186h-.97v-.02l.007-1.932.96.004c.366 0 .657.085.86.25.21.168.313.413.313.725zm-67.857 28.797l.047.02c.586.252 1.17.38 1.73.38 1.082 0 2.042-.454 2.86-1.35l.024-.022c1.693-1.85 1.383-4.25-.808-6.26l-3.667-3.355-7.842 8.562 2.337 2.14 2.256-2.46.024.02.64.587-.01.02c-.204.64-.292 1.31-.263 1.988.086 1.89.79 3.277 2.22 4.357l1.842-2.01c-.802-.61-1.343-1.25-1.394-2.375 0-.066 0-.13.005-.193v-.05zm-.242-3.105l-1.157-1.06.023-.026 2.11-2.3.027.022 1.12 1.028c.437.4.693.816.76 1.234.063.43-.078.836-.417 1.207l-.022.025c-.298.322-.665.492-1.065.492-.456.002-.933-.213-1.378-.62zm53.28-112.97l2.554 2.555-2.556 2.554L89.19 50zm-.012 85.718l2.554 2.553-2.554 2.555-2.554-2.553z" fill="#CCCECF"/></svg>