<?xml version="1.0" encoding="utf-8"?>
<!-- Generator: Adobe Illustrator 16.0.0, SVG Export Plug-In . SVG Version: 6.00 Build 0)  -->
<!DOCTYPE svg PUBLIC "-//W3C//DTD SVG 1.1//EN" "http://www.w3.org/Graphics/SVG/1.1/DTD/svg11.dtd">
<svg version="1.1" id="Layer_1" xmlns="http://www.w3.org/2000/svg" xmlns:xlink="http://www.w3.org/1999/xlink" x="0px" y="0px"
	 width="37.233px" height="15.263px" viewBox="0 0 37.233 15.263" enable-background="new 0 0 37.233 15.263" xml:space="preserve">
<g>
	<path fill="#FFFFFF" d="M0,7.657V7.548c0-0.131,0.109-0.305,0.218-0.371L7.85,2.555c0.284-0.174,0.611,0,0.611,0.349v1.897
		c0,0.087-0.087,0.262-0.174,0.305L4.121,7.57l4.165,2.377C8.373,9.99,8.46,10.165,8.46,10.251v1.897
		c0,0.349-0.327,0.523-0.611,0.349l-7.631-4.47C0.109,7.962,0,7.788,0,7.657z"/>
	<path fill="#FFFFFF" d="M19.357,0.283C19.402,0.131,19.576,0,19.75,0h2.138c0.306,0,0.479,0.24,0.392,0.545L18.027,14.98
		c-0.043,0.152-0.24,0.283-0.392,0.283h-2.159c-0.284,0-0.48-0.24-0.393-0.545L19.357,0.283z"/>
	<path fill="#FFFFFF" d="M28.773,10.251c0-0.087,0.087-0.262,0.174-0.305l4.165-2.377l-4.165-2.464
		c-0.087-0.043-0.174-0.218-0.174-0.305V2.904c0-0.349,0.327-0.523,0.61-0.349l7.632,4.623c0.109,0.065,0.218,0.24,0.218,0.371
		v0.109c0,0.131-0.108,0.305-0.218,0.371l-7.632,4.47c-0.283,0.175-0.61,0-0.61-0.349V10.251z"/>
</g>
</svg>
