<?xml version="1.0" encoding="utf-8"?>
<!-- Generator: Adobe Illustrator 16.0.0, SVG Export Plug-In . SVG Version: 6.00 Build 0)  -->
<!DOCTYPE svg PUBLIC "-//W3C//DTD SVG 1.1//EN" "http://www.w3.org/Graphics/SVG/1.1/DTD/svg11.dtd">
<svg version="1.1" id="Layer_1" xmlns="http://www.w3.org/2000/svg" xmlns:xlink="http://www.w3.org/1999/xlink" x="0px" y="0px"
	 width="618.609px" height="46.602px" viewBox="0 0 618.609 46.602" enable-background="new 0 0 618.609 46.602"
	 xml:space="preserve">
<g>
	<g>
		<path fill="#FFFFFF" d="M26.069,0.629H1.375C0.617,0.629,0,1.244,0,2.002v41.627c0,0.757,0.617,1.374,1.375,1.374H7.16
			c0.731,0,1.375-0.645,1.375-1.374V30.162h13.554c0.732,0,1.375-0.643,1.375-1.375v-5.156c0-0.731-0.642-1.374-1.375-1.374H8.534
			V8.533h17.535c0.757,0,1.373-0.618,1.373-1.375V2.002C27.442,1.244,26.826,0.629,26.069,0.629z"/>
		<path fill="#FFFFFF" d="M89.56,22.879C89.56,10.263,79.325,0,66.743,0c-6.122,0-11.85,2.375-16.129,6.686
			C46.343,10.99,43.99,16.74,43.99,22.879c0,12.757,9.996,22.752,22.753,22.752c6.135,0,11.874-2.352,16.161-6.623
			C87.197,34.732,89.56,29.004,89.56,22.879z M66.743,37.098c-7.839,0-14.218-6.38-14.218-14.219c0-7.91,6.379-14.346,14.218-14.346
			c7.744,0,14.282,6.568,14.282,14.346C81.025,30.718,74.62,37.098,66.743,37.098z"/>
		<path fill="#FFFFFF" d="M144.254,39.399c-3.231-0.283-5.946-1.466-8.069-3.519c-2.013-1.943-3.231-4.439-3.528-7.227
			c6.389-1.504,11.01-7.346,11.01-13.951c0-7.76-6.398-14.076-14.265-14.076h-18.369c-0.758,0-1.373,0.617-1.373,1.375v41.627
			c0,0.757,0.615,1.374,1.373,1.374h5.785c0.732,0,1.375-0.645,1.375-1.374V29.031h6.63c0.523,4.586,2.641,8.88,5.979,12.106
			c3.702,3.576,8.305,5.464,13.315,5.464c0.001,0,0.046,0,0.049,0c0.355-0.007,0.726-0.175,0.965-0.438
			c0.202-0.223,0.298-0.498,0.276-0.766l-0.008-4.871C145.391,40,144.956,39.436,144.254,39.399z M128.9,21.001h-10.707V8.723H128.9
			c3.472,0,6.297,2.654,6.297,5.918C135.197,18.148,132.372,21.001,128.9,21.001z M144.118,46.424V46.42h0.001L144.118,46.424z"/>
		<path fill="#FFFFFF" d="M210.376,0.629h-23.885c-0.757,0-1.375,0.615-1.375,1.373v5.156c0,0.757,0.617,1.375,1.375,1.375h7.643
			v35.096c0,0.729,0.643,1.374,1.376,1.374h5.847c0.732,0,1.375-0.645,1.375-1.374V8.533h7.644c0.759,0,1.375-0.618,1.375-1.375
			V2.002C211.751,1.244,211.136,0.629,210.376,0.629z"/>
		<path fill="#FFFFFF" d="M259.237,43.629c0,0.757,0.616,1.374,1.373,1.374h5.785c0.732,0,1.375-0.645,1.375-1.374V2.002
			c0-0.73-0.642-1.373-1.375-1.373h-5.785c-0.757,0-1.373,0.615-1.373,1.373v18.744h-16.546V2.002c0-0.758-0.617-1.373-1.375-1.373
			h-5.848c-0.731,0-1.375,0.643-1.375,1.373v41.627c0,0.729,0.644,1.374,1.375,1.374h5.848c0.757,0,1.375-0.617,1.375-1.374V28.716
			h16.546V43.629z"/>
		<path fill="#FFFFFF" d="M319.288,8.533c0.758,0,1.375-0.618,1.375-1.375V2.002c0-0.758-0.617-1.373-1.375-1.373h-24.693
			c-0.758,0-1.375,0.615-1.375,1.373v41.627c0,0.757,0.617,1.374,1.375,1.374h24.693c0.758,0,1.375-0.617,1.375-1.374v-5.156
			c0-0.758-0.617-1.375-1.375-1.375h-17.535v-8.382h13.556c0.758,0,1.375-0.618,1.375-1.374v-5.22c0-0.731-0.645-1.376-1.375-1.376
			h-13.556V8.533H319.288z"/>
		<path fill="#FFFFFF" d="M397.916,32.688c0-5.86-4.78-9.142-7.891-10.28c2.8-1.473,6.63-5.15,6.63-9.969
			c0-6.733-5.781-11.811-13.446-11.811H368.81c-0.757,0-1.374,0.615-1.374,1.373v41.627c0,0.757,0.617,1.374,1.374,1.374h15.219
			C391.944,45.003,397.916,39.707,397.916,32.688z M375.907,8.471h6.55c3.077,0,5.224,2.124,5.224,5.164
			c0,3.176-2.198,5.48-5.224,5.48h-6.55V8.471z M383.333,37.224h-7.427V26.39h6.673c3.011,0,6.231,2.126,6.231,5.292
			C388.811,34.789,386.407,37.224,383.333,37.224z"/>
		<path fill="#FFFFFF" d="M456.856,44.407c0.237-0.374,0.255-0.846,0.05-1.294l-19.37-42.322C437.339,0.398,437.04,0,436.307,0
			h-0.629c-0.557,0-0.967,0.266-1.231,0.795L414.89,43.113c-0.206,0.448-0.191,0.92,0.052,1.294
			c0.242,0.378,0.671,0.596,1.181,0.596h5.471c1.303,0,1.824-0.96,1.985-1.364l3.034-6.686h18.57l3.036,6.693
			c0.429,0.858,0.889,1.356,1.983,1.356h5.468C456.182,45.003,456.61,44.785,456.856,44.407z M429.856,29.615l5.979-13.424
			l6.104,13.424H429.856z"/>
		<path fill="#FFFFFF" d="M491.069,0.629h-14.903c-0.709,0-1.313,0.629-1.313,1.373v41.627c0,0.744,0.604,1.374,1.313,1.374h14.903
			c12.267,0,22.246-9.982,22.246-22.251C513.315,10.554,503.335,0.629,491.069,0.629z M490.314,36.973h-6.987V8.596h6.987
			c7.96,0,13.969,6.088,13.969,14.156C504.283,30.992,498.408,36.973,490.314,36.973z"/>
		<path fill="#FFFFFF" d="M568.403,20.562h-14.771c-0.795,0-1.372,0.578-1.372,1.375v4.967c0,0.734,0.603,1.312,1.372,1.312h7.546
			v7.305c-1.221,0.489-3.896,1.514-7.301,1.514c-7.705,0-13.968-6.38-13.968-14.219c0-7.944,6.235-14.407,13.903-14.407
			c3.467,0,6.71,1.245,9.374,3.601c0.637,0.564,1.313,0.563,1.887-0.011l3.896-4.084c0.276-0.275,0.417-0.637,0.399-1.016
			c-0.019-0.364-0.185-0.719-0.475-1.008C564.438,2.092,558.952,0,553.438,0c-12.547,0-22.756,10.263-22.756,22.879
			c0,6.119,2.36,11.836,6.648,16.097c4.272,4.251,9.994,6.593,16.107,6.593c9.064,0,15.623-4.074,15.699-4.123
			c0.374-0.281,0.575-0.679,0.575-1.149V21.938C569.712,21.191,569.112,20.562,568.403,20.562z"/>
		<path fill="#FFFFFF" d="M617.234,8.533c0.759,0,1.375-0.618,1.375-1.375V2.002c0-0.758-0.616-1.373-1.375-1.373h-24.692
			c-0.757,0-1.376,0.615-1.376,1.373v41.627c0,0.757,0.619,1.374,1.376,1.374h24.692c0.759,0,1.375-0.617,1.375-1.374v-5.156
			c0-0.758-0.616-1.375-1.375-1.375h-17.536v-8.382h13.557c0.757,0,1.372-0.618,1.372-1.374v-5.22c0-0.731-0.641-1.376-1.372-1.376
			h-13.557V8.533H617.234z"/>
	</g>
</g>
</svg>
