<svg xmlns="http://www.w3.org/2000/svg" width="618.609" height="46.602" viewBox="0 0 618.609 46.602"><path d="M26.07.63H1.374C.617.63 0 1.243 0 2v41.63c0 .756.617 1.373 1.375 1.373H7.16c.73 0 1.375-.645 1.375-1.374V30.16H22.09c.73 0 1.374-.643 1.374-1.375V23.63c0-.73-.642-1.373-1.375-1.373H8.532V8.533H26.07c.756 0 1.372-.618 1.372-1.375V2.002c0-.758-.616-1.373-1.373-1.373zm63.49 22.25C89.56 10.262 79.325 0 66.743 0c-6.122 0-11.85 2.375-16.13 6.686-4.27 4.304-6.623 10.054-6.623 16.193 0 12.755 9.996 22.75 22.753 22.75 6.135 0 11.874-2.35 16.16-6.623 4.294-4.276 6.657-10.004 6.657-16.13zM66.743 37.097c-7.84 0-14.218-6.38-14.218-14.22 0-7.91 6.38-14.345 14.218-14.345 7.744 0 14.282 6.568 14.282 14.346 0 7.838-6.405 14.218-14.282 14.218zm77.51 2.303c-3.23-.284-5.945-1.467-8.07-3.52-2.01-1.943-3.23-4.44-3.526-7.227 6.39-1.504 11.01-7.346 11.01-13.95 0-7.76-6.398-14.077-14.265-14.077h-18.37c-.757 0-1.372.617-1.372 1.375v41.63c0 .757.615 1.374 1.373 1.374h5.785c.732 0 1.375-.645 1.375-1.374v-14.6h6.63c.523 4.587 2.64 8.88 5.98 12.107 3.7 3.576 8.304 5.464 13.314 5.464h.05c.354-.005.725-.173.964-.436.204-.223.3-.498.278-.766l-.008-4.87c-.01-.527-.444-1.09-1.146-1.128zM128.9 21h-10.707V8.724H128.9c3.472 0 6.297 2.654 6.297 5.918 0 3.508-2.825 6.36-6.297 6.36zm15.218 25.424v-.004.004zM210.376.63H186.49c-.756 0-1.374.614-1.374 1.372v5.156c0 .757.617 1.375 1.375 1.375h7.645V43.63c0 .728.643 1.373 1.376 1.373h5.848c.732 0 1.375-.645 1.375-1.374V8.53h7.644c.76 0 1.375-.618 1.375-1.375V2.002c0-.758-.614-1.373-1.374-1.373zm48.86 43c0 .756.617 1.373 1.374 1.373h5.785c.732 0 1.375-.645 1.375-1.374V2c0-.73-.642-1.373-1.375-1.373h-5.785c-.757 0-1.373.614-1.373 1.372v18.743H242.69V2.003c0-.76-.616-1.374-1.374-1.374h-5.848c-.73 0-1.375.64-1.375 1.37v41.63c0 .728.644 1.373 1.375 1.373h5.848c.757 0 1.375-.617 1.375-1.374V28.714h16.548V43.63zM319.29 8.533c.758 0 1.375-.618 1.375-1.375V2.002c0-.758-.617-1.373-1.375-1.373h-24.693c-.758 0-1.375.613-1.375 1.37v41.63c0 .756.617 1.373 1.375 1.373h24.693c.758 0 1.375-.617 1.375-1.374V38.47c0-.758-.617-1.375-1.375-1.375h-17.535v-8.382h13.556c.756 0 1.373-.618 1.373-1.374v-5.22c0-.73-.645-1.375-1.375-1.375H301.75V8.533h17.536zm78.628 24.155c0-5.86-4.78-9.142-7.89-10.28 2.8-1.473 6.63-5.15 6.63-9.97 0-6.732-5.782-11.81-13.447-11.81h-14.4c-.758 0-1.375.615-1.375 1.373v41.63c0 .757.617 1.374 1.374 1.374h15.22c7.913 0 13.885-5.295 13.885-12.314zM375.906 8.47h6.55c3.078 0 5.225 2.125 5.225 5.165 0 3.176-2.196 5.48-5.222 5.48h-6.55V8.47zm7.427 28.754h-7.427V26.39h6.673c3.01 0 6.23 2.126 6.23 5.292 0 3.107-2.404 5.542-5.478 5.542zm73.523 7.183c.237-.374.255-.846.05-1.294L437.536.79c-.196-.39-.496-.79-1.23-.79h-.628c-.557 0-.967.266-1.23.795L414.89 43.113c-.206.448-.19.92.052 1.294.242.378.67.596 1.18.596h5.472c1.303 0 1.824-.96 1.985-1.364l3.032-6.688h18.57l3.036 6.693c.428.858.888 1.356 1.982 1.356h5.468c.512 0 .94-.216 1.186-.594zm-27-14.792l5.98-13.424 6.103 13.426h-12.085zM491.07.63h-14.904c-.71 0-1.313.628-1.313 1.372V43.63c0 .743.604 1.373 1.313 1.373h14.903c12.265 0 22.244-9.982 22.244-22.25 0-12.2-9.98-22.124-22.246-22.124zm-.756 36.343h-6.987V8.596h6.987c7.96 0 13.97 6.088 13.97 14.156 0 8.24-5.876 14.22-13.97 14.22zm78.09-16.41h-14.77c-.797 0-1.374.577-1.374 1.374v4.967c0 .734.603 1.312 1.372 1.312h7.546v7.305c-1.22.49-3.896 1.516-7.3 1.516-7.706 0-13.97-6.38-13.97-14.22 0-7.943 6.236-14.406 13.904-14.406 3.467 0 6.71 1.244 9.374 3.6.637.564 1.313.563 1.887-.01l3.896-4.085c.274-.275.415-.637.397-1.016-.02-.366-.185-.72-.475-1.01-4.455-3.8-9.94-5.89-15.455-5.89C540.89 0 530.68 10.26 530.68 22.88c0 6.117 2.36 11.834 6.65 16.095 4.27 4.25 9.993 6.593 16.106 6.593 9.064 0 15.623-4.075 15.7-4.124.373-.28.574-.68.574-1.15V21.94c.002-.747-.598-1.376-1.307-1.376zm48.83-12.03c.76 0 1.375-.618 1.375-1.375V2.002c0-.758-.618-1.373-1.377-1.373H592.54c-.756 0-1.375.613-1.375 1.37v41.63c0 .756.62 1.373 1.376 1.373h24.693c.76 0 1.375-.617 1.375-1.374V38.47c0-.758-.617-1.375-1.376-1.375h-17.536v-8.382h13.557c.757 0 1.372-.618 1.372-1.374v-5.22c0-.73-.64-1.375-1.372-1.375h-13.557V8.533h17.536z" fill="#fff"/></svg>