<?xml version="1.0" encoding="utf-8"?>
<!-- Generator: Adobe Illustrator 16.0.0, SVG Export Plug-In . SVG Version: 6.00 Build 0)  -->
<!DOCTYPE svg PUBLIC "-//W3C//DTD SVG 1.1//EN" "http://www.w3.org/Graphics/SVG/1.1/DTD/svg11.dtd">
<svg version="1.1" id="Layer_1" xmlns="http://www.w3.org/2000/svg" xmlns:xlink="http://www.w3.org/1999/xlink" x="0px" y="0px"
	 width="76.965px" height="88.87px" viewBox="0 0 76.965 88.87" enable-background="new 0 0 76.965 88.87" xml:space="preserve">
<g>
	<g>
		<polygon fill="#44484D" points="0,22.217 38.482,0 76.965,22.217 76.965,66.653 38.482,88.87 0,66.653 		"/>
	</g>
	<g>
		<g>
			<g>
				<path fill="#FFFFFF" d="M21.096,32.399c0-0.216,0.144-0.359,0.358-0.359h19.977c0.217,0,0.36,0.144,0.36,0.359v1.976
					c0,0.215-0.144,0.359-0.36,0.359h-17.21c-0.144,0-0.216,0.072-0.216,0.216v10.846c0,0.145,0.072,0.216,0.216,0.216h7.09
					c0.215,0,0.358,0.144,0.358,0.36v1.975c0,0.216-0.144,0.359-0.358,0.359h-7.09c-0.144,0-0.216,0.072-0.216,0.216v7.187
					c0,0.216-0.143,0.359-0.359,0.359h-2.191c-0.215,0-0.358-0.144-0.358-0.359V32.399z"/>
			</g>
		</g>
		<g>
			<g>
				<path fill="#FFFFFF" d="M44.553,32.399c0-0.216,0.144-0.359,0.358-0.359h4.635c4.238,0,6.072,1.833,6.072,6.287
					c0,3.054-1.043,4.562-2.84,5.353v0.071c1.832,0.575,3.091,2.228,3.091,5.712c0,5.245-2.12,7.005-6.682,7.005h-4.276
					c-0.215,0-0.358-0.144-0.358-0.359V32.399z M49.402,42.602c2.3,0,3.269-0.862,3.269-3.916c0-3.125-0.861-3.952-3.34-3.952
					h-1.652c-0.145,0-0.217,0.072-0.217,0.216v7.436c0,0.144,0.072,0.215,0.217,0.215H49.402z M47.679,53.774h1.616
					c2.657,0,3.628-0.971,3.628-4.348c0-3.269-1.041-4.274-3.521-4.274h-1.724c-0.145,0-0.217,0.071-0.217,0.216v8.189
					C47.462,53.702,47.534,53.774,47.679,53.774z"/>
			</g>
		</g>
		<g>
			<g>
				<path fill="#FFFFFF" d="M35.948,56.83c-0.216,0-0.359-0.144-0.359-0.359V42.104c0-0.144-0.072-0.216-0.217-0.216H28.63
					c-0.216,0-0.359-0.144-0.359-0.36v-1.975c0-0.216,0.144-0.359,0.359-0.359h12.623c0.215,0,0.358,0.144,0.358,0.359v1.975
					c0,0.216-0.144,0.36-0.358,0.36h-2.539c-0.145,0-0.215,0.072-0.215,0.216v14.367c0,0.216-0.145,0.359-0.359,0.359H35.948z"/>
			</g>
		</g>
		<polygon fill="#FFFFFF" points="29.524,52.47 30.192,53.763 31.627,53.997 30.604,55.03 30.824,56.468 29.524,55.814 
			28.226,56.468 28.445,55.03 27.423,53.997 28.858,53.763 		"/>
	</g>
</g>
</svg>
