<?xml version="1.0" encoding="utf-8"?>
<!-- Generator: Adobe Illustrator 16.0.0, SVG Export Plug-In . SVG Version: 6.00 Build 0)  -->
<!DOCTYPE svg PUBLIC "-//W3C//DTD SVG 1.1//EN" "http://www.w3.org/Graphics/SVG/1.1/DTD/svg11.dtd">
<svg version="1.1" id="Layer_1" xmlns="http://www.w3.org/2000/svg" xmlns:xlink="http://www.w3.org/1999/xlink" x="0px" y="0px"
	 width="43.994px" height="31.654px" viewBox="0 0 43.994 31.654" enable-background="new 0 0 43.994 31.654" xml:space="preserve">
<g>
	<g>
		<path fill="#FFFFFF" d="M10.355,28.71v2.531c0,0.201,0.158,0.413,0.414,0.413h12.534c0.257,0,0.413-0.212,0.413-0.413V28.71
			c0-0.2-0.156-0.413-0.413-0.413H10.77C10.514,28.297,10.355,28.51,10.355,28.71z"/>
		<path fill="#FFFFFF" d="M43.994,25.418c0-3.08-2.637-4.75-4.197-5.247l-0.438-0.143l0.419-0.196
			c1.427-0.668,3.552-2.587,3.552-5.123c0-3.404-2.938-5.97-6.835-5.97h-7.615c-0.279,0-0.447,0.235-0.447,0.452v22.01
			c0,0.219,0.168,0.453,0.447,0.453h8.047C40.958,31.654,43.994,28.973,43.994,25.418z M32.355,12.332h3.74
			c1.791,0,3.043,1.237,3.043,3.011c0,1.806-1.31,3.172-3.043,3.172h-3.74V12.332z M32.355,28.093v-6.28h3.808
			c1.724,0,3.573,1.234,3.573,3.074c0,1.797-1.396,3.206-3.175,3.206H32.355z"/>
		<path fill="#FFFFFF" d="M0.59,31.654h2.615c0.309,0,0.591-0.281,0.591-0.59V20.046h6.76c0.309,0,0.593-0.28,0.593-0.586v-2.214
			c0-0.309-0.284-0.591-0.593-0.591h-6.76V3.435h39.59c0.323,0,0.59-0.266,0.59-0.592V0.59c0-0.325-0.267-0.59-0.59-0.59H0.59
			C0.264,0,0,0.265,0,0.59v30.474C0,31.39,0.264,31.654,0.59,31.654z"/>
		<path fill="#FFFFFF" d="M16.771,23.51h2.873c0.212,0,0.414-0.2,0.414-0.414V12.1h3.755c0.257,0,0.414-0.217,0.414-0.416V9.152
			c0-0.199-0.157-0.412-0.414-0.412H10.423c-0.256,0-0.413,0.213-0.413,0.412v2.532c0,0.199,0.157,0.416,0.413,0.416h5.936v10.997
			C16.358,23.31,16.559,23.51,16.771,23.51z"/>
	</g>
</g>
</svg>
