<?xml version="1.0" encoding="utf-8"?>
<!-- Generator: Adobe Illustrator 16.0.0, SVG Export Plug-In . SVG Version: 6.00 Build 0)  -->
<!DOCTYPE svg PUBLIC "-//W3C//DTD SVG 1.1//EN" "http://www.w3.org/Graphics/SVG/1.1/DTD/svg11.dtd">
<svg version="1.1" id="Layer_1" xmlns="http://www.w3.org/2000/svg" xmlns:xlink="http://www.w3.org/1999/xlink" x="0px" y="0px"
	 width="453.476px" height="20.086px" viewBox="0 0 453.476 20.086" enable-background="new 0 0 453.476 20.086"
	 xml:space="preserve">
<g>
	<g>
		<path fill="#FFFFFF" d="M7.367,9.612V9.555C8.805,8.921,9.64,7.741,9.64,5.325c0-3.483-1.554-5.065-5.065-5.065H0.288
			C0.114,0.26,0,0.375,0,0.547v18.992c0,0.174,0.114,0.289,0.288,0.289h3.884c3.799,0,5.698-1.411,5.698-5.756
			C9.869,11.482,8.834,10.043,7.367,9.612z M3.078,3.224c0-0.114,0.059-0.173,0.172-0.173h1.037c1.698,0,2.272,0.547,2.272,2.705
			S5.985,8.433,4.287,8.433H3.25c-0.114,0-0.172-0.059-0.172-0.173V3.224z M4.287,17.036H3.25c-0.114,0-0.172-0.058-0.172-0.173
			v-5.611c0-0.115,0.059-0.172,0.172-0.172h1.037c1.841,0,2.475,0.662,2.475,2.964S6.128,17.036,4.287,17.036z"/>
		<path fill="#FFFFFF" d="M23.658,0.26H21.24c-0.173,0-0.259,0.115-0.316,0.287l-4.231,18.992c-0.028,0.174,0.059,0.289,0.231,0.289
			h2.445c0.202,0,0.288-0.115,0.317-0.289l0.777-3.941h3.884l0.777,3.941c0.029,0.174,0.116,0.289,0.316,0.289h2.447
			c0.172,0,0.259-0.115,0.229-0.289L23.974,0.547C23.945,0.375,23.83,0.26,23.658,0.26z M20.952,13.008l1.439-7.281h0.086
			l1.381,7.281H20.952z"/>
		<path fill="#FFFFFF" d="M40.554,0.26h-4.518c-0.172,0-0.288,0.115-0.288,0.287v18.992c0,0.174,0.115,0.289,0.288,0.289h4.518
			c2.561,0,4.058-1.037,4.748-3.137c0.346-1.064,0.49-2.389,0.49-6.648c0-4.259-0.144-5.582-0.49-6.646
			C44.611,1.295,43.115,0.26,40.554,0.26z M42.309,15.627c-0.345,0.978-0.978,1.409-2.072,1.409H39
			c-0.115,0-0.172-0.058-0.172-0.173V3.224c0-0.114,0.057-0.173,0.172-0.173h1.237c1.094,0,1.728,0.433,2.072,1.41
			c0.229,0.72,0.345,1.67,0.345,5.582C42.654,13.957,42.539,14.906,42.309,15.627z"/>
		<path fill="#FFFFFF" d="M63.608,8.921h-4.374c-0.174,0-0.288,0.115-0.288,0.288v2.129c0,0.173,0.114,0.289,0.288,0.289h1.525
			c0.115,0,0.172,0.057,0.172,0.172c0,3.627-0.057,3.914-0.202,4.402c-0.201,0.662-0.921,1.095-1.755,1.095
			c-0.806,0-1.524-0.433-1.727-1.095c-0.172-0.547-0.202-0.775-0.202-6.158c0-5.38,0.029-5.611,0.202-6.157
			c0.202-0.662,0.864-1.094,1.699-1.094c1.15,0,1.812,0.778,1.956,2.302c0.029,0.173,0.145,0.26,0.317,0.231l2.331-0.403
			c0.144-0.029,0.259-0.173,0.229-0.346C63.465,1.497,61.737,0,58.917,0c-2.417,0-4,1.123-4.633,3.051
			c-0.288,0.863-0.374,1.554-0.374,6.992c0,5.439,0.086,6.131,0.374,6.993c0.633,1.928,2.216,3.05,4.633,3.05
			c2.388,0,3.971-1.122,4.604-3.05c0.288-0.862,0.375-1.554,0.375-6.964V9.209C63.896,9.036,63.78,8.921,63.608,8.921z"/>
		<path fill="#FFFFFF" d="M80.59,0.26h-8.029c-0.172,0-0.288,0.115-0.288,0.287v18.992c0,0.174,0.116,0.289,0.288,0.289h8.029
			c0.172,0,0.288-0.115,0.288-0.289v-2.215c0-0.173-0.116-0.288-0.288-0.288h-5.064c-0.116,0-0.173-0.058-0.173-0.173v-5.353
			c0-0.114,0.057-0.173,0.173-0.173h4.373c0.172,0,0.288-0.115,0.288-0.287V8.835c0-0.173-0.116-0.288-0.288-0.288h-4.373
			c-0.116,0-0.173-0.057-0.173-0.173v-5.15c0-0.114,0.057-0.173,0.173-0.173h5.064c0.172,0,0.288-0.115,0.288-0.288V0.547
			C80.878,0.375,80.763,0.26,80.59,0.26z"/>
		<path fill="#FFFFFF" d="M94.695,8.49l-1.18-0.461c-1.554-0.604-1.899-1.15-1.899-2.965c0-1.61,0.575-2.358,1.784-2.358
			c1.267,0,1.785,0.892,1.841,2.504c0,0.173,0.145,0.259,0.317,0.229l2.302-0.346c0.173-0.057,0.259-0.143,0.259-0.316
			C97.947,1.729,96.537,0,93.313,0c-3.223,0-4.748,1.842-4.748,5.21c0,3.05,0.806,4.46,3.511,5.524l1.18,0.461
			c1.525,0.604,1.928,1.295,1.928,3.396c0,2.13-0.604,2.792-1.842,2.792c-1.324,0-1.928-0.807-2.014-2.879
			c0-0.172-0.116-0.287-0.317-0.258l-2.416,0.401c-0.174,0.029-0.231,0.145-0.231,0.317c0.086,3.425,1.727,5.121,4.892,5.121
			c3.712,0,5.008-2.014,5.008-5.869C98.264,10.878,97.255,9.497,94.695,8.49z"/>
		<path fill="#FFFFFF" d="M126.039,0.26h-8.029c-0.172,0-0.288,0.115-0.288,0.287v18.992c0,0.174,0.116,0.289,0.288,0.289h2.504
			c0.172,0,0.288-0.115,0.288-0.289v-7.884c0-0.115,0.057-0.173,0.173-0.173h4.373c0.172,0,0.288-0.115,0.288-0.287V8.979
			c0-0.173-0.116-0.288-0.288-0.288h-4.373c-0.116,0-0.173-0.057-0.173-0.172V3.224c0-0.114,0.057-0.173,0.173-0.173h5.064
			c0.172,0,0.288-0.115,0.288-0.288V0.547C126.327,0.375,126.211,0.26,126.039,0.26z"/>
		<path fill="#FFFFFF" d="M138.964,0c-2.417,0-4,1.123-4.633,3.051c-0.288,0.863-0.374,1.554-0.374,6.992
			c0,5.439,0.086,6.131,0.374,6.993c0.633,1.928,2.216,3.05,4.633,3.05c2.388,0,3.97-1.122,4.604-3.05
			c0.286-0.862,0.373-1.554,0.373-6.993c0-5.438-0.086-6.129-0.373-6.992C142.934,1.123,141.352,0,138.964,0z M140.604,16.201
			c-0.202,0.662-0.834,1.095-1.64,1.095c-0.834,0-1.469-0.433-1.669-1.095c-0.173-0.547-0.202-0.775-0.202-6.158
			c0-5.38,0.029-5.611,0.202-6.157c0.2-0.662,0.834-1.094,1.669-1.094c0.806,0,1.438,0.432,1.64,1.094
			c0.172,0.546,0.202,0.777,0.202,6.157C140.806,15.426,140.776,15.654,140.604,16.201z"/>
		<path fill="#FFFFFF" d="M159.887,11.08c1.467-0.835,2.331-2.445,2.331-5.008c0-4.287-2.1-5.812-5.582-5.812h-3.942
			c-0.174,0-0.288,0.115-0.288,0.287v18.992c0,0.174,0.114,0.289,0.288,0.289h2.502c0.172,0,0.288-0.115,0.288-0.289V12
			c0-0.115,0.059-0.172,0.173-0.172h0.979h0.488l2.388,7.798c0.059,0.145,0.145,0.202,0.317,0.202h2.676
			c0.143,0,0.202-0.144,0.143-0.289L159.887,11.08z M156.664,9.095h-1.007c-0.114,0-0.173-0.059-0.173-0.174V3.224
			c0-0.114,0.059-0.173,0.173-0.173h1.007c1.728,0,2.476,0.719,2.476,3.021C159.14,8.403,158.392,9.095,156.664,9.095z"/>
		<path fill="#FFFFFF" d="M231.673,20.086c3.71,0,5.005-2.014,5.005-5.869c0-3.339-1.006-4.72-3.566-5.727l-1.181-0.461
			c-1.553-0.604-1.897-1.15-1.897-2.965c0-1.61,0.573-2.358,1.783-2.358c1.266,0,1.783,0.892,1.842,2.504
			c0,0.173,0.144,0.259,0.315,0.229l2.304-0.346c0.173-0.057,0.258-0.143,0.258-0.316C236.362,1.729,234.953,0,231.729,0
			c-3.221,0-4.746,1.842-4.746,5.21c0,3.05,0.805,4.46,3.51,5.524l1.181,0.461c1.523,0.604,1.927,1.295,1.927,3.396
			c0,2.13-0.604,2.792-1.842,2.792c-1.324,0-1.926-0.807-2.014-2.879c0-0.172-0.114-0.287-0.316-0.258l-2.416,0.401
			c-0.175,0.029-0.23,0.145-0.23,0.317C226.866,18.39,228.508,20.086,231.673,20.086z"/>
		<path fill="#FFFFFF" d="M254.813,19.828c0.173,0,0.258-0.115,0.229-0.289l-4.143-18.992c-0.029-0.172-0.144-0.287-0.315-0.287
			h-2.418c-0.173,0-0.26,0.115-0.318,0.287l-4.23,18.992c-0.026,0.174,0.059,0.289,0.231,0.289h2.446
			c0.202,0,0.287-0.115,0.316-0.289l0.777-3.941h3.885l0.777,3.941c0.026,0.174,0.114,0.289,0.316,0.289H254.813z M247.877,13.008
			l1.438-7.281h0.087l1.38,7.281H247.877z"/>
		<path fill="#FFFFFF" d="M268.918,8.174l3.912-7.627c0.087-0.143,0-0.287-0.144-0.287h-2.619c-0.202,0-0.287,0.058-0.374,0.23
			l-3.941,8.145V0.547c0-0.172-0.116-0.287-0.289-0.287h-2.502c-0.173,0-0.29,0.115-0.29,0.287v18.992
			c0,0.174,0.117,0.289,0.29,0.289h2.502c0.173,0,0.289-0.115,0.289-0.289v-5.495l1.295-2.677l3.251,8.259
			c0.059,0.145,0.144,0.202,0.315,0.202h2.678c0.144,0,0.202-0.144,0.144-0.289L268.918,8.174z"/>
		<path fill="#FFFFFF" d="M289.439,0.26h-8.03c-0.173,0-0.287,0.115-0.287,0.287v18.992c0,0.174,0.114,0.289,0.287,0.289h8.03
			c0.172,0,0.286-0.115,0.286-0.289v-2.215c0-0.173-0.114-0.288-0.286-0.288h-5.066c-0.114,0-0.172-0.058-0.172-0.173v-5.353
			c0-0.114,0.058-0.173,0.172-0.173h4.376c0.173,0,0.287-0.115,0.287-0.287V8.835c0-0.173-0.114-0.288-0.287-0.288h-4.376
			c-0.114,0-0.172-0.057-0.172-0.173v-5.15c0-0.114,0.058-0.173,0.172-0.173h5.066c0.172,0,0.286-0.115,0.286-0.288V0.547
			C289.726,0.375,289.611,0.26,289.439,0.26z"/>
		<path fill="#FFFFFF" d="M313.848,0c-2.417,0-3.999,1.123-4.633,3.051c-0.287,0.863-0.374,1.554-0.374,6.992
			c0,5.439,0.087,6.131,0.374,6.993c0.634,1.928,2.216,3.05,4.633,3.05c2.389,0,3.973-1.122,4.604-3.05
			c0.289-0.862,0.374-1.554,0.374-6.993c0-5.438-0.085-6.129-0.374-6.992C317.82,1.123,316.236,0,313.848,0z M315.488,16.201
			c-0.202,0.662-0.834,1.095-1.641,1.095c-0.833,0-1.467-0.433-1.669-1.095c-0.173-0.547-0.201-0.775-0.201-6.158
			c0-5.38,0.028-5.611,0.201-6.157c0.202-0.662,0.836-1.094,1.669-1.094c0.807,0,1.438,0.432,1.641,1.094
			c0.172,0.546,0.201,0.777,0.201,6.157C315.689,15.426,315.66,15.654,315.488,16.201z"/>
		<path fill="#FFFFFF" d="M335.605,0.26h-8.027c-0.172,0-0.289,0.115-0.289,0.287v18.992c0,0.174,0.117,0.289,0.289,0.289h2.503
			c0.172,0,0.289-0.115,0.289-0.289v-7.884c0-0.115,0.056-0.173,0.173-0.173h4.373c0.172,0,0.286-0.115,0.286-0.287V8.979
			c0-0.173-0.114-0.288-0.286-0.288h-4.373c-0.117,0-0.173-0.057-0.173-0.172V3.224c0-0.114,0.056-0.173,0.173-0.173h5.062
			c0.173,0,0.289-0.115,0.289-0.288V0.547C335.895,0.375,335.778,0.26,335.605,0.26z"/>
		<path fill="#FFFFFF" d="M362.575,9.612V9.555c1.441-0.634,2.274-1.813,2.274-4.229c0-3.483-1.553-5.065-5.063-5.065h-4.288
			c-0.173,0-0.289,0.115-0.289,0.287v18.992c0,0.174,0.116,0.289,0.289,0.289h3.885c3.798,0,5.697-1.411,5.697-5.756
			C365.08,11.482,364.043,10.043,362.575,9.612z M358.29,3.224c0-0.114,0.056-0.173,0.172-0.173h1.035
			c1.698,0,2.274,0.547,2.274,2.705s-0.576,2.677-2.274,2.677h-1.035c-0.116,0-0.172-0.059-0.172-0.173V3.224z M359.497,17.036
			h-1.035c-0.116,0-0.172-0.058-0.172-0.173v-5.611c0-0.115,0.056-0.172,0.172-0.172h1.035c1.842,0,2.476,0.662,2.476,2.964
			S361.339,17.036,359.497,17.036z"/>
		<path fill="#FFFFFF" d="M378.869,0.26h-2.418c-0.172,0-0.26,0.115-0.318,0.287l-4.229,18.992c-0.026,0.174,0.059,0.289,0.23,0.289
			h2.447c0.201,0,0.286-0.115,0.315-0.289l0.777-3.941h3.885l0.778,3.941c0.026,0.174,0.114,0.289,0.315,0.289h2.447
			c0.172,0,0.257-0.115,0.228-0.289l-4.143-18.992C379.156,0.375,379.042,0.26,378.869,0.26z M376.162,13.008l1.438-7.281h0.088
			l1.38,7.281H376.162z"/>
		<path fill="#FFFFFF" d="M395.766,0.26h-4.52c-0.173,0-0.287,0.115-0.287,0.287v18.992c0,0.174,0.114,0.289,0.287,0.289h4.52
			c2.561,0,4.057-1.037,4.747-3.137c0.345-1.064,0.488-2.389,0.488-6.648c0-4.259-0.144-5.582-0.488-6.646
			C399.822,1.295,398.326,0.26,395.766,0.26z M397.52,15.627c-0.345,0.978-0.977,1.409-2.07,1.409h-1.239
			c-0.114,0-0.172-0.058-0.172-0.173V3.224c0-0.114,0.058-0.173,0.172-0.173h1.239c1.094,0,1.726,0.433,2.07,1.41
			c0.23,0.72,0.345,1.67,0.345,5.582C397.864,13.957,397.75,14.906,397.52,15.627z"/>
		<path fill="#FFFFFF" d="M418.818,8.921h-4.374c-0.172,0-0.289,0.115-0.289,0.288v2.129c0,0.173,0.117,0.289,0.289,0.289h1.526
			c0.114,0,0.172,0.057,0.172,0.172c0,3.627-0.058,3.914-0.201,4.402c-0.201,0.662-0.921,1.095-1.757,1.095
			c-0.804,0-1.523-0.433-1.725-1.095c-0.173-0.547-0.202-0.775-0.202-6.158c0-5.38,0.029-5.611,0.202-6.157
			c0.201-0.662,0.862-1.094,1.695-1.094c1.152,0,1.815,0.778,1.959,2.302c0.028,0.173,0.143,0.26,0.315,0.231l2.33-0.403
			c0.146-0.029,0.26-0.173,0.23-0.346C418.675,1.497,416.947,0,414.129,0c-2.418,0-4.002,1.123-4.633,3.051
			c-0.29,0.863-0.375,1.554-0.375,6.992c0,5.439,0.085,6.131,0.375,6.993c0.631,1.928,2.215,3.05,4.633,3.05
			c2.389,0,3.97-1.122,4.604-3.05c0.286-0.862,0.374-1.554,0.374-6.964V9.209C419.107,9.036,418.99,8.921,418.818,8.921z"/>
		<path fill="#FFFFFF" d="M435.802,0.26h-8.03c-0.172,0-0.286,0.115-0.286,0.287v18.992c0,0.174,0.114,0.289,0.286,0.289h8.03
			c0.173,0,0.286-0.115,0.286-0.289v-2.215c0-0.173-0.113-0.288-0.286-0.288h-5.065c-0.114,0-0.173-0.058-0.173-0.173v-5.353
			c0-0.114,0.059-0.173,0.173-0.173h4.375c0.173,0,0.287-0.115,0.287-0.287V8.835c0-0.173-0.114-0.288-0.287-0.288h-4.375
			c-0.114,0-0.173-0.057-0.173-0.173v-5.15c0-0.114,0.059-0.173,0.173-0.173h5.065c0.173,0,0.286-0.115,0.286-0.288V0.547
			C436.088,0.375,435.975,0.26,435.802,0.26z"/>
		<path fill="#FFFFFF" d="M449.906,8.49l-1.181-0.461c-1.553-0.604-1.897-1.15-1.897-2.965c0-1.61,0.576-2.358,1.783-2.358
			c1.266,0,1.783,0.892,1.842,2.504c0,0.173,0.143,0.259,0.315,0.229l2.304-0.346c0.172-0.057,0.258-0.143,0.258-0.316
			C453.157,1.729,451.748,0,448.526,0c-3.225,0-4.75,1.842-4.75,5.21c0,3.05,0.807,4.46,3.511,5.524l1.181,0.461
			c1.526,0.604,1.927,1.295,1.927,3.396c0,2.13-0.603,2.792-1.842,2.792c-1.321,0-1.927-0.807-2.014-2.879
			c0-0.172-0.114-0.287-0.316-0.258l-2.417,0.401c-0.173,0.029-0.231,0.145-0.231,0.317c0.088,3.425,1.728,5.121,4.894,5.121
			c3.713,0,5.008-2.014,5.008-5.869C453.476,10.878,452.467,9.497,449.906,8.49z"/>
		<path fill="#FFFFFF" d="M205.26,19.676c0.975-0.049,1.87-0.312,2.658-0.787c0.744-0.449,1.384-1.026,1.933-1.686
			c0.167-0.217-0.115-1.276-0.354-1.35c-0.04-0.015-0.079-0.018-0.12-0.014c-0.429,0.045-0.972,0.898-1.273,1.126
			c-1.126,0.844-2.436,1.236-3.886,1.159c-0.405-0.023-0.736-0.187-0.936-0.467c-0.196-0.27-0.247-0.623-0.144-0.996
			c0.058-0.211,0.271-0.362,0.453-0.398c0.181-0.039,0.362-0.064,0.539-0.09c0.266-0.04,0.516-0.076,0.748-0.146
			c1.655-0.49,3.144-1.817,3.534-3.556c0.365-1.634-0.854-3.376-2.581-3.376c-0.175,0-0.357,0.018-0.537,0.055
			c-1.332,0.258-2.307,0.917-2.985,2.016c-0.766,1.243-1.162,2.771-1.211,4.664c-0.001,0.051,0.004,0.112,0.006,0.18
			c0.012,0.238,0.028,0.506-0.149,0.693c-0.395,0.419-1.021,0.688-1.518,0.961c-0.293,0.161-0.687,0.389-1.035,0.281
			c-0.429-0.137-0.462-0.595-0.303-0.949c0.015-0.03,0.029-0.062,0.038-0.085c0.103-0.277,0.209-0.552,0.313-0.818
			c0.211-0.542,0.429-1.102,0.605-1.665c0.331-1.051,0.417-1.956,0.275-2.847c-0.104-0.662-0.41-1.157-0.929-1.517
			c-0.391-0.271-1.114-0.452-1.798-0.452c-0.654,0-1.188,0.161-1.511,0.454c-0.112,0.102-0.232,0.186-0.347,0.266
			c-0.049,0.035-0.098,0.068-0.144,0.103c-0.113,0.085-0.27,0.079-0.376-0.015l-0.08-0.067c-0.09-0.078-0.124-0.2-0.09-0.317
			c0.612-1.973,1.453-3.855,2.265-5.675c0.329-0.74,0.79-1.415,1.088-2.168c0.096-0.24,0.447-0.869,0.319-1.125
			c-0.147-0.294-0.65-0.148-0.917-0.148c-0.559,0-1.04-0.087-1.424,0.399c-0.426,0.544-0.608,1.377-0.873,2.014
			c-0.338,0.818-0.662,1.645-0.977,2.47c-0.618,1.629-1.193,3.276-1.742,4.929c-0.33,0.994-0.657,1.99-0.961,2.994
			c-0.054,0.176-0.117,0.372-0.239,0.542c-0.129,0.181-0.259,0.362-0.389,0.543c-0.427,0.601-0.868,1.222-1.359,1.794
			c-0.745,0.866-1.553,1.406-2.475,1.648c-0.197,0.053-0.391,0.078-0.575,0.078c-0.437,0-0.808-0.144-1.073-0.417
			c-0.279-0.288-0.419-0.7-0.405-1.19c0.016-0.585,0.109-1.181,0.275-1.77c0.435-1.551,1.13-2.978,1.865-4.424
			c0.108-0.217,0.377-0.316,0.584-0.318c0.388-0.008,0.785-0.011,1.218-0.011c0.265,0,2.231,0.132,2.442-0.014
			c0.216-0.149,0.357-0.899,0.456-1.154c0.049-0.122,0.097-0.243,0.129-0.37c-0.561-0.23-2.832-0.039-3.45-0.039
			c-0.103,0-0.196-0.05-0.254-0.133c-0.054-0.09-0.062-0.195-0.021-0.287l1.145-2.561h-0.94c-0.497,0-0.878,0-1.237-0.004
			c-0.03,0-0.046,0-0.074,0.035c-0.172,0.38-0.354,0.758-0.531,1.125c-0.226,0.472-0.458,0.961-0.675,1.444
			c-0.141,0.309-0.369,0.459-0.7,0.459c-0.025,0-0.049,0-0.074-0.003c-0.131-0.008-0.847-0.012-1.006-0.012
			c-0.562,0-1.044,0.614-1.141,1.123c-0.108,0.567,1.04,0.377,1.441,0.377c0.104,0,0.202,0.055,0.255,0.145
			c0.056,0.086,0.061,0.197,0.015,0.29c-0.023,0.048-0.045,0.093-0.065,0.134c-0.041,0.082-0.076,0.154-0.113,0.227
			c-0.654,1.238-1.305,2.594-1.64,4.1c-0.099,0.441-0.144,0.923-0.188,1.387c-0.02,0.203-0.04,0.41-0.065,0.617l0.146,0.832
			c0.198,0.508,0.462,0.848,0.862,1.091c0.272,0.166,0.553,0.333,0.828,0.444c0.63,0.247,1.264,0.373,1.883,0.373
			c0.675,0,1.362-0.15,2.046-0.447c0.234-0.102,0.458-0.227,0.697-0.357c0.115-0.065,0.234-0.129,0.358-0.194
			c0.105-0.056,0.232-0.044,0.328,0.03c0.093,0.073,0.133,0.197,0.103,0.311c-0.042,0.164-0.108,0.332-0.088,0.488
			c0.41,0.069,0.83,0.041,1.244,0.015c0.309-0.02,0.765,0.137,1.01-0.086c0.333-0.303,0.397-1.267,0.54-1.69
			c0.391-1.165,0.725-2.353,1.093-3.527c0.275-0.885,0.698-1.57,1.291-2.1c0.442-0.395,1.065-0.85,1.933-0.85
			c0.091,0,0.185,0.004,0.281,0.015c0.673,0.071,1.129,0.608,1.062,1.247c-0.023,0.225-0.086,0.458-0.198,0.732
			c-0.131,0.322-0.269,0.647-0.401,0.963c-0.175,0.41-0.353,0.834-0.517,1.254c-0.308,0.79-0.607,1.639-0.602,2.598
			c0.003,0.719,0.375,1.262,0.97,1.414c0.243,0.064,0.52,0.097,0.826,0.097c0.17,0,0.346-0.011,0.539-0.029
			c0.905-0.089,2.173-0.46,3.078-1.204c0.126-0.105,0.312-0.091,0.42,0.033l0.041,0.047c0.033,0.037,0.065,0.073,0.094,0.109
			c0.473,0.584,0.986,0.888,1.569,0.934c0.52,0.043,0.947,0.061,1.343,0.061C204.925,19.688,205.098,19.684,205.26,19.676z
			 M205.146,10.959c0.081-0.041,0.207-0.096,0.353-0.107c0.045-0.003,0.09-0.006,0.135-0.006c0.342,0,0.612,0.107,0.78,0.311
			c0.111,0.136,0.228,0.38,0.152,0.772c-0.164,0.857-0.722,1.44-1.126,1.805c-0.351,0.314-0.764,0.543-1.191,0.77
			c-0.176,0.095-0.373,0.11-0.547,0.126c-0.068,0.008-0.131,0.014-0.189,0.021c-0.016,0.004-0.033,0.006-0.051,0.006
			c-0.088,0-0.176-0.042-0.234-0.112l-0.072-0.091c-0.06-0.073-0.08-0.169-0.056-0.264C203.386,13.06,203.742,11.651,205.146,10.959
			z"/>
	</g>
</g>
</svg>
