<?xml version="1.0" standalone="no"?>
<!DOCTYPE svg PUBLIC "-//W3C//DTD SVG 20010904//EN"
 "http://www.w3.org/TR/2001/REC-SVG-20010904/DTD/svg10.dtd">
<svg version="1.0" xmlns="http://www.w3.org/2000/svg"
 width="16.000000pt" height="16.000000pt" viewBox="0 0 16.000000 16.000000"
 preserveAspectRatio="xMidYMid meet">
<metadata>
Created by potrace 1.11, written by Peter Selinger 2001-2013
</metadata>
<g transform="translate(0.000000,16.000000) scale(0.002247,-0.002247)"
fill="#000000" stroke="none">
<path d="M2024 6231 l-1539 -889 0 -1782 0 -1782 1539 -889 1539 -888 36 19
c20 11 713 410 1541 888 l1505 870 0 1782 0 1782 -1505 870 c-828 478 -1521
877 -1541 888 l-36 19 -1539 -888z m1801 -1786 l0 -100 -699 -3 c-496 -1 -703
-5 -713 -13 -19 -17 -19 -871 0 -888 9 -7 111 -12 308 -13 l294 -3 0 -100 0
-100 -302 -3 -303 -2 0 -288 c0 -158 -3 -297 -6 -310 -6 -22 -9 -23 -118 -20
l-111 3 -3 960 c-1 528 0 966 3 973 3 10 174 12 827 10 l823 -3 0 -100z m803
90 c159 -38 252 -132 293 -295 20 -81 18 -310 -4 -379 -31 -99 -103 -191 -173
-223 -13 -6 -24 -14 -24 -17 0 -3 20 -17 45 -30 81 -43 135 -118 172 -236 14
-47 18 -92 18 -210 -1 -228 -39 -343 -145 -438 -100 -90 -193 -109 -515 -105
l-240 3 -3 960 c-1 528 0 966 3 973 7 19 489 17 573 -3z m-820 -567 c8 -8 12
-45 12 -100 0 -108 0 -108 -144 -108 l-106 0 -2 -592 -3 -593 -109 -3 c-81 -2
-112 1 -118 10 -4 7 -8 275 -8 596 l0 582 -274 0 c-151 0 -281 3 -290 6 -13 5
-16 24 -16 103 0 54 3 101 7 104 3 4 239 7 523 7 388 0 519 -3 528 -12z m-933
-1107 c24 -48 26 -50 80 -56 30 -4 55 -10 55 -14 0 -4 -16 -23 -36 -42 -35
-33 -36 -35 -30 -91 3 -32 2 -58 -2 -58 -4 1 -27 11 -52 24 l-45 24 -47 -24
c-26 -13 -49 -24 -51 -24 -2 0 0 25 6 56 l9 56 -38 39 c-21 21 -36 40 -33 42
2 2 27 8 54 13 46 8 52 13 75 56 14 27 26 48 27 48 2 0 14 -22 28 -49z"/>
<path d="M4298 4335 c-5 -5 -8 -147 -8 -317 l0 -308 113 0 c131 0 175 10 222
51 56 49 70 102 70 264 0 194 -23 250 -120 291 -42 17 -264 33 -277 19z"/>
<path d="M4286 3485 c-8 -21 -8 -638 0 -659 5 -13 23 -16 94 -16 222 0 302 51
331 210 18 102 8 283 -20 345 -47 106 -90 127 -267 133 -116 4 -132 2 -138
-13z"/>
</g>
</svg>
